STARTFONT 2.1
COMMENT 
COMMENT Converted from OpenType font "kochi-gothic-subst.ttf" by "otf2bdf 3.0".
COMMENT 
FONT -FreeType-Kochi Gothic-Medium-R-Normal--11-80-100-100-P-86-ISO10646-1
SIZE 8 100 100
FONTBOUNDINGBOX 11 11 0 -2
STARTPROPERTIES 20
FOUNDRY "FreeType"
FAMILY_NAME "Kochi Gothic"
WEIGHT_NAME "Medium"
SLANT "R"
SETWIDTH_NAME "Normal"
ADD_STYLE_NAME ""
PIXEL_SIZE 12
POINT_SIZE 80
RESOLUTION_X 100
RESOLUTION_Y 100
SPACING "P"
AVERAGE_WIDTH 86
CHARSET_REGISTRY "ISO10646"
CHARSET_ENCODING "1"
FONT_ASCENT 9
FONT_DESCENT 3
COPYRIGHT "Wada lab's font license (except NAGA10)"
_OTF_FONTFILE "kochi-gothic-subst.ttf"
_OTF_PSNAME "Kochi-Gothic"
_GBDFED_INFO "Edited with gbdfed 1.6."
ENDPROPERTIES
CHARS 12879
STARTCHAR 2600
ENCODING 9728
SWIDTH 990 0
DWIDTH 11 0
BBX 0 0 0 0
BITMAP
ENDCHAR
STARTCHAR 2601
ENCODING 9729
SWIDTH 990 0
DWIDTH 11 0
BBX 0 0 0 0
BITMAP
ENDCHAR
STARTCHAR 2602
ENCODING 9730
SWIDTH 990 0
DWIDTH 11 0
BBX 0 0 0 0
BITMAP
ENDCHAR
STARTCHAR 2603
ENCODING 9731
SWIDTH 990 0
DWIDTH 11 0
BBX 0 0 0 0
BITMAP
ENDCHAR
STARTCHAR 2604
ENCODING 9732
SWIDTH 990 0
DWIDTH 11 0
BBX 0 0 0 0
BITMAP
ENDCHAR
STARTCHAR 2605
ENCODING 9733
SWIDTH 900 0
DWIDTH 10 0
BBX 9 9 1 -1
BITMAP
0800
0800
1C00
FF80
7F00
3E00
3E00
7700
4100
ENDCHAR
STARTCHAR 2606
ENCODING 9734
SWIDTH 900 0
DWIDTH 10 0
BBX 9 9 1 -1
BITMAP
0800
0800
1400
F780
4100
2200
2A00
7700
4100
ENDCHAR
STARTCHAR 2607
ENCODING 9735
SWIDTH 990 0
DWIDTH 11 0
BBX 0 0 0 0
BITMAP
ENDCHAR
STARTCHAR 2608
ENCODING 9736
SWIDTH 990 0
DWIDTH 11 0
BBX 0 0 0 0
BITMAP
ENDCHAR
STARTCHAR 2609
ENCODING 9737
SWIDTH 990 0
DWIDTH 11 0
BBX 0 0 0 0
BITMAP
ENDCHAR
STARTCHAR 260A
ENCODING 9738
SWIDTH 990 0
DWIDTH 11 0
BBX 0 0 0 0
BITMAP
ENDCHAR
STARTCHAR 260B
ENCODING 9739
SWIDTH 990 0
DWIDTH 11 0
BBX 0 0 0 0
BITMAP
ENDCHAR
STARTCHAR 260C
ENCODING 9740
SWIDTH 990 0
DWIDTH 11 0
BBX 0 0 0 0
BITMAP
ENDCHAR
STARTCHAR 260D
ENCODING 9741
SWIDTH 990 0
DWIDTH 11 0
BBX 0 0 0 0
BITMAP
ENDCHAR
STARTCHAR 260E
ENCODING 9742
SWIDTH 990 0
DWIDTH 11 0
BBX 0 0 0 0
BITMAP
ENDCHAR
STARTCHAR 260F
ENCODING 9743
SWIDTH 990 0
DWIDTH 11 0
BBX 0 0 0 0
BITMAP
ENDCHAR
STARTCHAR 2610
ENCODING 9744
SWIDTH 990 0
DWIDTH 11 0
BBX 0 0 0 0
BITMAP
ENDCHAR
STARTCHAR 2611
ENCODING 9745
SWIDTH 990 0
DWIDTH 11 0
BBX 0 0 0 0
BITMAP
ENDCHAR
STARTCHAR 2612
ENCODING 9746
SWIDTH 990 0
DWIDTH 11 0
BBX 0 0 0 0
BITMAP
ENDCHAR
STARTCHAR 2613
ENCODING 9747
SWIDTH 990 0
DWIDTH 11 0
BBX 0 0 0 0
BITMAP
ENDCHAR
STARTCHAR 261A
ENCODING 9754
SWIDTH 990 0
DWIDTH 11 0
BBX 0 0 0 0
BITMAP
ENDCHAR
STARTCHAR 261B
ENCODING 9755
SWIDTH 990 0
DWIDTH 11 0
BBX 0 0 0 0
BITMAP
ENDCHAR
STARTCHAR 261C
ENCODING 9756
SWIDTH 990 0
DWIDTH 11 0
BBX 0 0 0 0
BITMAP
ENDCHAR
STARTCHAR 261D
ENCODING 9757
SWIDTH 990 0
DWIDTH 11 0
BBX 0 0 0 0
BITMAP
ENDCHAR
STARTCHAR 261E
ENCODING 9758
SWIDTH 990 0
DWIDTH 11 0
BBX 0 0 0 0
BITMAP
ENDCHAR
STARTCHAR 261F
ENCODING 9759
SWIDTH 990 0
DWIDTH 11 0
BBX 0 0 0 0
BITMAP
ENDCHAR
STARTCHAR 2620
ENCODING 9760
SWIDTH 990 0
DWIDTH 11 0
BBX 0 0 0 0
BITMAP
ENDCHAR
STARTCHAR 2621
ENCODING 9761
SWIDTH 990 0
DWIDTH 11 0
BBX 0 0 0 0
BITMAP
ENDCHAR
STARTCHAR 2622
ENCODING 9762
SWIDTH 990 0
DWIDTH 11 0
BBX 0 0 0 0
BITMAP
ENDCHAR
STARTCHAR 2623
ENCODING 9763
SWIDTH 990 0
DWIDTH 11 0
BBX 0 0 0 0
BITMAP
ENDCHAR
STARTCHAR 2624
ENCODING 9764
SWIDTH 990 0
DWIDTH 11 0
BBX 0 0 0 0
BITMAP
ENDCHAR
STARTCHAR 2625
ENCODING 9765
SWIDTH 990 0
DWIDTH 11 0
BBX 0 0 0 0
BITMAP
ENDCHAR
STARTCHAR 2626
ENCODING 9766
SWIDTH 990 0
DWIDTH 11 0
BBX 0 0 0 0
BITMAP
ENDCHAR
STARTCHAR 2627
ENCODING 9767
SWIDTH 990 0
DWIDTH 11 0
BBX 0 0 0 0
BITMAP
ENDCHAR
STARTCHAR 2628
ENCODING 9768
SWIDTH 990 0
DWIDTH 11 0
BBX 0 0 0 0
BITMAP
ENDCHAR
STARTCHAR 2629
ENCODING 9769
SWIDTH 990 0
DWIDTH 11 0
BBX 0 0 0 0
BITMAP
ENDCHAR
STARTCHAR 262A
ENCODING 9770
SWIDTH 990 0
DWIDTH 11 0
BBX 0 0 0 0
BITMAP
ENDCHAR
STARTCHAR 262B
ENCODING 9771
SWIDTH 990 0
DWIDTH 11 0
BBX 0 0 0 0
BITMAP
ENDCHAR
STARTCHAR 262C
ENCODING 9772
SWIDTH 990 0
DWIDTH 11 0
BBX 0 0 0 0
BITMAP
ENDCHAR
STARTCHAR 262D
ENCODING 9773
SWIDTH 990 0
DWIDTH 11 0
BBX 0 0 0 0
BITMAP
ENDCHAR
STARTCHAR 262E
ENCODING 9774
SWIDTH 990 0
DWIDTH 11 0
BBX 0 0 0 0
BITMAP
ENDCHAR
STARTCHAR 262F
ENCODING 9775
SWIDTH 990 0
DWIDTH 11 0
BBX 0 0 0 0
BITMAP
ENDCHAR
STARTCHAR 2630
ENCODING 9776
SWIDTH 990 0
DWIDTH 11 0
BBX 0 0 0 0
BITMAP
ENDCHAR
STARTCHAR 2631
ENCODING 9777
SWIDTH 990 0
DWIDTH 11 0
BBX 0 0 0 0
BITMAP
ENDCHAR
STARTCHAR 2632
ENCODING 9778
SWIDTH 990 0
DWIDTH 11 0
BBX 0 0 0 0
BITMAP
ENDCHAR
STARTCHAR 2633
ENCODING 9779
SWIDTH 990 0
DWIDTH 11 0
BBX 0 0 0 0
BITMAP
ENDCHAR
STARTCHAR 2634
ENCODING 9780
SWIDTH 990 0
DWIDTH 11 0
BBX 0 0 0 0
BITMAP
ENDCHAR
STARTCHAR 2635
ENCODING 9781
SWIDTH 990 0
DWIDTH 11 0
BBX 0 0 0 0
BITMAP
ENDCHAR
STARTCHAR 2636
ENCODING 9782
SWIDTH 990 0
DWIDTH 11 0
BBX 0 0 0 0
BITMAP
ENDCHAR
STARTCHAR 2637
ENCODING 9783
SWIDTH 990 0
DWIDTH 11 0
BBX 0 0 0 0
BITMAP
ENDCHAR
STARTCHAR 2638
ENCODING 9784
SWIDTH 990 0
DWIDTH 11 0
BBX 0 0 0 0
BITMAP
ENDCHAR
STARTCHAR 2639
ENCODING 9785
SWIDTH 540 0
DWIDTH 6 0
BBX 0 0 0 0
BITMAP
ENDCHAR
STARTCHAR 263A
ENCODING 9786
SWIDTH 540 0
DWIDTH 6 0
BBX 0 0 0 0
BITMAP
ENDCHAR
STARTCHAR 263B
ENCODING 9787
SWIDTH 540 0
DWIDTH 6 0
BBX 0 0 0 0
BITMAP
ENDCHAR
STARTCHAR 263C
ENCODING 9788
SWIDTH 540 0
DWIDTH 6 0
BBX 0 0 0 0
BITMAP
ENDCHAR
STARTCHAR 263D
ENCODING 9789
SWIDTH 990 0
DWIDTH 11 0
BBX 0 0 0 0
BITMAP
ENDCHAR
STARTCHAR 263E
ENCODING 9790
SWIDTH 990 0
DWIDTH 11 0
BBX 0 0 0 0
BITMAP
ENDCHAR
STARTCHAR 263F
ENCODING 9791
SWIDTH 990 0
DWIDTH 11 0
BBX 0 0 0 0
BITMAP
ENDCHAR
STARTCHAR 2640
ENCODING 9792
SWIDTH 900 0
DWIDTH 10 0
BBX 7 9 2 -1
BITMAP
38
44
44
44
38
10
FE
10
10
ENDCHAR
STARTCHAR 2641
ENCODING 9793
SWIDTH 990 0
DWIDTH 11 0
BBX 0 0 0 0
BITMAP
ENDCHAR
STARTCHAR 2642
ENCODING 9794
SWIDTH 900 0
DWIDTH 10 0
BBX 8 8 1 -1
BITMAP
0F
03
05
79
88
88
88
70
ENDCHAR
STARTCHAR 2643
ENCODING 9795
SWIDTH 990 0
DWIDTH 11 0
BBX 0 0 0 0
BITMAP
ENDCHAR
STARTCHAR 2644
ENCODING 9796
SWIDTH 990 0
DWIDTH 11 0
BBX 0 0 0 0
BITMAP
ENDCHAR
STARTCHAR 2645
ENCODING 9797
SWIDTH 990 0
DWIDTH 11 0
BBX 0 0 0 0
BITMAP
ENDCHAR
STARTCHAR 2646
ENCODING 9798
SWIDTH 990 0
DWIDTH 11 0
BBX 0 0 0 0
BITMAP
ENDCHAR
STARTCHAR 2647
ENCODING 9799
SWIDTH 990 0
DWIDTH 11 0
BBX 0 0 0 0
BITMAP
ENDCHAR
STARTCHAR 2648
ENCODING 9800
SWIDTH 990 0
DWIDTH 11 0
BBX 0 0 0 0
BITMAP
ENDCHAR
STARTCHAR 2649
ENCODING 9801
SWIDTH 990 0
DWIDTH 11 0
BBX 0 0 0 0
BITMAP
ENDCHAR
STARTCHAR 264A
ENCODING 9802
SWIDTH 990 0
DWIDTH 11 0
BBX 0 0 0 0
BITMAP
ENDCHAR
STARTCHAR 264B
ENCODING 9803
SWIDTH 990 0
DWIDTH 11 0
BBX 0 0 0 0
BITMAP
ENDCHAR
STARTCHAR 264C
ENCODING 9804
SWIDTH 990 0
DWIDTH 11 0
BBX 0 0 0 0
BITMAP
ENDCHAR
STARTCHAR 264D
ENCODING 9805
SWIDTH 990 0
DWIDTH 11 0
BBX 0 0 0 0
BITMAP
ENDCHAR
STARTCHAR 264E
ENCODING 9806
SWIDTH 990 0
DWIDTH 11 0
BBX 0 0 0 0
BITMAP
ENDCHAR
STARTCHAR 264F
ENCODING 9807
SWIDTH 990 0
DWIDTH 11 0
BBX 0 0 0 0
BITMAP
ENDCHAR
STARTCHAR 2650
ENCODING 9808
SWIDTH 990 0
DWIDTH 11 0
BBX 0 0 0 0
BITMAP
ENDCHAR
STARTCHAR 2651
ENCODING 9809
SWIDTH 990 0
DWIDTH 11 0
BBX 0 0 0 0
BITMAP
ENDCHAR
STARTCHAR 2652
ENCODING 9810
SWIDTH 990 0
DWIDTH 11 0
BBX 0 0 0 0
BITMAP
ENDCHAR
STARTCHAR 2653
ENCODING 9811
SWIDTH 990 0
DWIDTH 11 0
BBX 0 0 0 0
BITMAP
ENDCHAR
STARTCHAR 2654
ENCODING 9812
SWIDTH 990 0
DWIDTH 11 0
BBX 0 0 0 0
BITMAP
ENDCHAR
STARTCHAR 2655
ENCODING 9813
SWIDTH 990 0
DWIDTH 11 0
BBX 0 0 0 0
BITMAP
ENDCHAR
STARTCHAR 2656
ENCODING 9814
SWIDTH 990 0
DWIDTH 11 0
BBX 0 0 0 0
BITMAP
ENDCHAR
STARTCHAR 2657
ENCODING 9815
SWIDTH 990 0
DWIDTH 11 0
BBX 0 0 0 0
BITMAP
ENDCHAR
STARTCHAR 2658
ENCODING 9816
SWIDTH 990 0
DWIDTH 11 0
BBX 0 0 0 0
BITMAP
ENDCHAR
STARTCHAR 2659
ENCODING 9817
SWIDTH 990 0
DWIDTH 11 0
BBX 0 0 0 0
BITMAP
ENDCHAR
STARTCHAR 265A
ENCODING 9818
SWIDTH 990 0
DWIDTH 11 0
BBX 0 0 0 0
BITMAP
ENDCHAR
STARTCHAR 265B
ENCODING 9819
SWIDTH 990 0
DWIDTH 11 0
BBX 0 0 0 0
BITMAP
ENDCHAR
STARTCHAR 265C
ENCODING 9820
SWIDTH 990 0
DWIDTH 11 0
BBX 0 0 0 0
BITMAP
ENDCHAR
STARTCHAR 265D
ENCODING 9821
SWIDTH 990 0
DWIDTH 11 0
BBX 0 0 0 0
BITMAP
ENDCHAR
STARTCHAR 265E
ENCODING 9822
SWIDTH 990 0
DWIDTH 11 0
BBX 0 0 0 0
BITMAP
ENDCHAR
STARTCHAR 265F
ENCODING 9823
SWIDTH 990 0
DWIDTH 11 0
BBX 0 0 0 0
BITMAP
ENDCHAR
STARTCHAR 2660
ENCODING 9824
SWIDTH 540 0
DWIDTH 6 0
BBX 0 0 0 0
BITMAP
ENDCHAR
STARTCHAR 2661
ENCODING 9825
SWIDTH 540 0
DWIDTH 6 0
BBX 0 0 0 0
BITMAP
ENDCHAR
STARTCHAR 2662
ENCODING 9826
SWIDTH 540 0
DWIDTH 6 0
BBX 0 0 0 0
BITMAP
ENDCHAR
STARTCHAR 2663
ENCODING 9827
SWIDTH 540 0
DWIDTH 6 0
BBX 0 0 0 0
BITMAP
ENDCHAR
STARTCHAR 2664
ENCODING 9828
SWIDTH 540 0
DWIDTH 6 0
BBX 0 0 0 0
BITMAP
ENDCHAR
STARTCHAR 2665
ENCODING 9829
SWIDTH 540 0
DWIDTH 6 0
BBX 0 0 0 0
BITMAP
ENDCHAR
STARTCHAR 2666
ENCODING 9830
SWIDTH 540 0
DWIDTH 6 0
BBX 0 0 0 0
BITMAP
ENDCHAR
STARTCHAR 2667
ENCODING 9831
SWIDTH 540 0
DWIDTH 6 0
BBX 0 0 0 0
BITMAP
ENDCHAR
STARTCHAR 2668
ENCODING 9832
SWIDTH 990 0
DWIDTH 11 0
BBX 0 0 0 0
BITMAP
ENDCHAR
STARTCHAR 2669
ENCODING 9833
SWIDTH 540 0
DWIDTH 6 0
BBX 0 0 0 0
BITMAP
ENDCHAR
STARTCHAR 266A
ENCODING 9834
SWIDTH 900 0
DWIDTH 10 0
BBX 7 9 2 -1
BITMAP
10
18
1C
16
12
12
74
F0
60
ENDCHAR
STARTCHAR 266B
ENCODING 9835
SWIDTH 540 0
DWIDTH 6 0
BBX 0 0 0 0
BITMAP
ENDCHAR
STARTCHAR 266C
ENCODING 9836
SWIDTH 540 0
DWIDTH 6 0
BBX 0 0 0 0
BITMAP
ENDCHAR
STARTCHAR 266D
ENCODING 9837
SWIDTH 900 0
DWIDTH 10 0
BBX 4 9 4 -1
BITMAP
80
80
80
80
E0
90
90
A0
C0
ENDCHAR
STARTCHAR 266E
ENCODING 9838
SWIDTH 540 0
DWIDTH 6 0
BBX 0 0 0 0
BITMAP
ENDCHAR
STARTCHAR 266F
ENCODING 9839
SWIDTH 900 0
DWIDTH 10 0
BBX 6 10 2 -2
BITMAP
08
48
4C
78
C8
4C
78
C8
48
40
ENDCHAR
STARTCHAR 3000
ENCODING 12288
SWIDTH 990 0
DWIDTH 11 0
BBX 0 0 0 0
BITMAP
ENDCHAR
STARTCHAR 3001
ENCODING 12289
SWIDTH 900 0
DWIDTH 10 0
BBX 3 3 1 -1
BITMAP
80
40
20
ENDCHAR
STARTCHAR 3002
ENCODING 12290
SWIDTH 900 0
DWIDTH 10 0
BBX 4 4 1 -1
BITMAP
60
90
90
60
ENDCHAR
STARTCHAR 3003
ENCODING 12291
SWIDTH 900 0
DWIDTH 10 0
BBX 5 5 3 1
BITMAP
48
48
48
90
90
ENDCHAR
STARTCHAR 3004
ENCODING 12292
SWIDTH 990 0
DWIDTH 11 0
BBX 0 0 0 0
BITMAP
ENDCHAR
STARTCHAR 3005
ENCODING 12293
SWIDTH 900 0
DWIDTH 10 0
BBX 6 6 2 0
BITMAP
20
3C
44
88
30
08
ENDCHAR
STARTCHAR 3006
ENCODING 12294
SWIDTH 900 0
DWIDTH 10 0
BBX 8 8 1 -1
BITMAP
01
02
74
88
94
A2
C0
80
ENDCHAR
STARTCHAR 3007
ENCODING 12295
SWIDTH 900 0
DWIDTH 10 0
BBX 9 7 1 0
BITMAP
1C00
6300
8080
8080
8080
6300
1C00
ENDCHAR
STARTCHAR 3008
ENCODING 12296
SWIDTH 900 0
DWIDTH 10 0
BBX 3 9 6 -1
BITMAP
20
20
40
40
80
40
40
20
20
ENDCHAR
STARTCHAR 3009
ENCODING 12297
SWIDTH 900 0
DWIDTH 10 0
BBX 3 9 2 -1
BITMAP
80
80
40
40
20
40
40
80
80
ENDCHAR
STARTCHAR 300A
ENCODING 12298
SWIDTH 900 0
DWIDTH 10 0
BBX 5 9 5 -1
BITMAP
28
28
50
50
A0
50
50
28
28
ENDCHAR
STARTCHAR 300B
ENCODING 12299
SWIDTH 900 0
DWIDTH 10 0
BBX 5 9 2 -1
BITMAP
A0
A0
50
50
28
50
50
A0
A0
ENDCHAR
STARTCHAR 300C
ENCODING 12300
SWIDTH 900 0
DWIDTH 10 0
BBX 4 7 6 1
BITMAP
F0
80
80
80
80
80
80
ENDCHAR
STARTCHAR 300D
ENCODING 12301
SWIDTH 900 0
DWIDTH 10 0
BBX 4 7 1 -1
BITMAP
10
10
10
10
10
10
F0
ENDCHAR
STARTCHAR 300E
ENCODING 12302
SWIDTH 900 0
DWIDTH 10 0
BBX 5 8 5 0
BITMAP
F8
88
B8
A0
A0
A0
A0
E0
ENDCHAR
STARTCHAR 300F
ENCODING 12303
SWIDTH 900 0
DWIDTH 10 0
BBX 5 8 1 -1
BITMAP
38
28
28
28
28
E8
88
F8
ENDCHAR
STARTCHAR 3010
ENCODING 12304
SWIDTH 900 0
DWIDTH 10 0
BBX 4 9 6 -1
BITMAP
F0
E0
C0
80
80
80
C0
E0
F0
ENDCHAR
STARTCHAR 3011
ENCODING 12305
SWIDTH 900 0
DWIDTH 10 0
BBX 4 9 1 -1
BITMAP
F0
70
30
10
10
10
30
70
F0
ENDCHAR
STARTCHAR 3012
ENCODING 12306
SWIDTH 900 0
DWIDTH 10 0
BBX 7 7 2 0
BITMAP
FE
00
FE
10
10
10
10
ENDCHAR
STARTCHAR 3013
ENCODING 12307
SWIDTH 900 0
DWIDTH 10 0
BBX 8 6 1 0
BITMAP
FF
FF
00
00
FF
FF
ENDCHAR
STARTCHAR 3014
ENCODING 12308
SWIDTH 900 0
DWIDTH 10 0
BBX 4 9 5 -1
BITMAP
30
C0
80
80
80
80
80
C0
30
ENDCHAR
STARTCHAR 3015
ENCODING 12309
SWIDTH 900 0
DWIDTH 10 0
BBX 4 9 2 -1
BITMAP
C0
30
10
10
10
10
10
30
C0
ENDCHAR
STARTCHAR 3016
ENCODING 12310
SWIDTH 990 0
DWIDTH 11 0
BBX 0 0 0 0
BITMAP
ENDCHAR
STARTCHAR 3017
ENCODING 12311
SWIDTH 990 0
DWIDTH 11 0
BBX 0 0 0 0
BITMAP
ENDCHAR
STARTCHAR 3018
ENCODING 12312
SWIDTH 990 0
DWIDTH 11 0
BBX 0 0 0 0
BITMAP
ENDCHAR
STARTCHAR 3019
ENCODING 12313
SWIDTH 990 0
DWIDTH 11 0
BBX 0 0 0 0
BITMAP
ENDCHAR
STARTCHAR 301A
ENCODING 12314
SWIDTH 990 0
DWIDTH 11 0
BBX 0 0 0 0
BITMAP
ENDCHAR
STARTCHAR 301B
ENCODING 12315
SWIDTH 990 0
DWIDTH 11 0
BBX 0 0 0 0
BITMAP
ENDCHAR
STARTCHAR 301C
ENCODING 12316
SWIDTH 900 0
DWIDTH 10 0
BBX 9 3 1 2
BITMAP
7000
8880
0700
ENDCHAR
STARTCHAR 301D
ENCODING 12317
SWIDTH 990 0
DWIDTH 11 0
BBX 0 0 0 0
BITMAP
ENDCHAR
STARTCHAR 301E
ENCODING 12318
SWIDTH 990 0
DWIDTH 11 0
BBX 0 0 0 0
BITMAP
ENDCHAR
STARTCHAR 301F
ENCODING 12319
SWIDTH 990 0
DWIDTH 11 0
BBX 0 0 0 0
BITMAP
ENDCHAR
STARTCHAR 3020
ENCODING 12320
SWIDTH 990 0
DWIDTH 11 0
BBX 0 0 0 0
BITMAP
ENDCHAR
STARTCHAR 3030
ENCODING 12336
SWIDTH 990 0
DWIDTH 11 0
BBX 0 0 0 0
BITMAP
ENDCHAR
STARTCHAR 3031
ENCODING 12337
SWIDTH 990 0
DWIDTH 11 0
BBX 0 0 0 0
BITMAP
ENDCHAR
STARTCHAR 3032
ENCODING 12338
SWIDTH 990 0
DWIDTH 11 0
BBX 0 0 0 0
BITMAP
ENDCHAR
STARTCHAR 3033
ENCODING 12339
SWIDTH 990 0
DWIDTH 11 0
BBX 0 0 0 0
BITMAP
ENDCHAR
STARTCHAR 3034
ENCODING 12340
SWIDTH 990 0
DWIDTH 11 0
BBX 0 0 0 0
BITMAP
ENDCHAR
STARTCHAR 3035
ENCODING 12341
SWIDTH 990 0
DWIDTH 11 0
BBX 0 0 0 0
BITMAP
ENDCHAR
STARTCHAR 3036
ENCODING 12342
SWIDTH 990 0
DWIDTH 11 0
BBX 0 0 0 0
BITMAP
ENDCHAR
STARTCHAR 3037
ENCODING 12343
SWIDTH 990 0
DWIDTH 11 0
BBX 0 0 0 0
BITMAP
ENDCHAR
STARTCHAR 3041
ENCODING 12353
SWIDTH 900 0
DWIDTH 10 0
BBX 7 7 1 -1
BITMAP
20
7C
20
7C
AA
B2
64
ENDCHAR
STARTCHAR 3042
ENCODING 12354
SWIDTH 900 0
DWIDTH 10 0
BBX 8 9 1 -1
BITMAP
10
FE
20
3E
65
A9
A9
91
66
ENDCHAR
STARTCHAR 3043
ENCODING 12355
SWIDTH 900 0
DWIDTH 10 0
BBX 7 6 2 -1
BITMAP
84
84
82
82
92
60
ENDCHAR
STARTCHAR 3044
ENCODING 12356
SWIDTH 900 0
DWIDTH 10 0
BBX 8 8 1 -1
BITMAP
82
82
81
81
81
91
A0
40
ENDCHAR
STARTCHAR 3045
ENCODING 12357
SWIDTH 900 0
DWIDTH 10 0
BBX 6 7 2 -1
BITMAP
78
00
38
C4
04
08
30
ENDCHAR
STARTCHAR 3046
ENCODING 12358
SWIDTH 900 0
DWIDTH 10 0
BBX 8 9 1 -1
BITMAP
30
0C
00
3E
C1
01
01
02
1C
ENDCHAR
STARTCHAR 3047
ENCODING 12359
SWIDTH 900 0
DWIDTH 10 0
BBX 6 7 3 -1
BITMAP
70
00
F8
10
30
50
8C
ENDCHAR
STARTCHAR 3048
ENCODING 12360
SWIDTH 900 0
DWIDTH 10 0
BBX 8 9 1 -1
BITMAP
3C
00
7E
04
08
18
24
44
83
ENDCHAR
STARTCHAR 3049
ENCODING 12361
SWIDTH 900 0
DWIDTH 10 0
BBX 8 7 1 -1
BITMAP
20
FA
21
3C
62
A2
6C
ENDCHAR
STARTCHAR 304A
ENCODING 12362
SWIDTH 900 0
DWIDTH 10 0
BBX 8 9 1 -1
BITMAP
20
21
FD
20
3E
61
A1
A1
66
ENDCHAR
STARTCHAR 304B
ENCODING 12363
SWIDTH 900 0
DWIDTH 10 0
BBX 8 9 1 -1
BITMAP
20
20
F2
2A
49
49
49
A8
90
ENDCHAR
STARTCHAR 304C
ENCODING 12364
SWIDTH 900 0
DWIDTH 10 0
BBX 9 9 1 -1
BITMAP
2280
2280
F000
2A00
4900
4900
4900
A800
9000
ENDCHAR
STARTCHAR 304D
ENCODING 12365
SWIDTH 900 0
DWIDTH 10 0
BBX 8 9 1 -1
BITMAP
10
7E
08
FF
04
3E
42
40
3C
ENDCHAR
STARTCHAR 304E
ENCODING 12366
SWIDTH 900 0
DWIDTH 10 0
BBX 9 9 1 -1
BITMAP
1280
7A80
0800
FF00
0400
3E00
4200
4000
3C00
ENDCHAR
STARTCHAR 304F
ENCODING 12367
SWIDTH 900 0
DWIDTH 10 0
BBX 5 9 2 -1
BITMAP
08
10
60
80
80
40
20
10
08
ENDCHAR
STARTCHAR 3050
ENCODING 12368
SWIDTH 900 0
DWIDTH 10 0
BBX 8 9 2 -1
BITMAP
08
15
65
80
80
40
20
10
08
ENDCHAR
STARTCHAR 3051
ENCODING 12369
SWIDTH 900 0
DWIDTH 10 0
BBX 8 9 1 -1
BITMAP
02
82
9F
82
82
82
82
84
18
ENDCHAR
STARTCHAR 3052
ENCODING 12370
SWIDTH 900 0
DWIDTH 10 0
BBX 9 9 1 -1
BITMAP
0280
8280
9D00
8200
8200
8200
8200
8400
1800
ENDCHAR
STARTCHAR 3053
ENCODING 12371
SWIDTH 900 0
DWIDTH 10 0
BBX 8 8 1 -1
BITMAP
7E
00
00
00
00
80
80
7F
ENDCHAR
STARTCHAR 3054
ENCODING 12372
SWIDTH 900 0
DWIDTH 10 0
BBX 9 9 1 -1
BITMAP
0280
7A80
0000
0000
0000
0000
8000
8000
7F00
ENDCHAR
STARTCHAR 3055
ENCODING 12373
SWIDTH 900 0
DWIDTH 10 0
BBX 8 9 1 -1
BITMAP
08
08
FF
04
04
3E
42
40
3C
ENDCHAR
STARTCHAR 3056
ENCODING 12374
SWIDTH 900 0
DWIDTH 10 0
BBX 9 9 1 -1
BITMAP
0A80
0A80
FC00
0400
0400
3E00
4200
4000
3C00
ENDCHAR
STARTCHAR 3057
ENCODING 12375
SWIDTH 900 0
DWIDTH 10 0
BBX 7 9 2 -1
BITMAP
80
80
80
80
80
82
82
44
38
ENDCHAR
STARTCHAR 3058
ENCODING 12376
SWIDTH 900 0
DWIDTH 10 0
BBX 7 9 2 -1
BITMAP
8A
8A
80
80
80
82
82
44
38
ENDCHAR
STARTCHAR 3059
ENCODING 12377
SWIDTH 900 0
DWIDTH 10 0
BBX 8 9 1 -1
BITMAP
04
FF
04
1C
24
24
1C
04
18
ENDCHAR
STARTCHAR 305A
ENCODING 12378
SWIDTH 900 0
DWIDTH 10 0
BBX 9 9 1 -1
BITMAP
0280
FA80
0400
1C00
2400
2400
1C00
0400
1800
ENDCHAR
STARTCHAR 305B
ENCODING 12379
SWIDTH 900 0
DWIDTH 10 0
BBX 9 9 1 -1
BITMAP
2200
2200
FF80
2200
2200
2C00
2000
2000
1E00
ENDCHAR
STARTCHAR 305C
ENCODING 12380
SWIDTH 900 0
DWIDTH 10 0
BBX 9 9 1 -1
BITMAP
2280
2280
FD00
2200
2200
2C00
2000
2000
1E00
ENDCHAR
STARTCHAR 305D
ENCODING 12381
SWIDTH 900 0
DWIDTH 10 0
BBX 8 8 1 -1
BITMAP
7E
04
08
FF
10
20
20
1C
ENDCHAR
STARTCHAR 305E
ENCODING 12382
SWIDTH 900 0
DWIDTH 10 0
BBX 9 9 1 -1
BITMAP
0280
7A80
0400
0800
FF00
1000
2000
2000
1C00
ENDCHAR
STARTCHAR 305F
ENCODING 12383
SWIDTH 900 0
DWIDTH 10 0
BBX 8 9 1 -1
BITMAP
20
20
F8
20
4F
40
40
90
8F
ENDCHAR
STARTCHAR 3060
ENCODING 12384
SWIDTH 900 0
DWIDTH 10 0
BBX 9 9 1 -1
BITMAP
2000
2280
FA80
2000
4F00
4000
4000
9000
8F00
ENDCHAR
STARTCHAR 3061
ENCODING 12385
SWIDTH 900 0
DWIDTH 10 0
BBX 8 9 1 -1
BITMAP
10
10
FF
20
3E
41
01
02
1C
ENDCHAR
STARTCHAR 3062
ENCODING 12386
SWIDTH 900 0
DWIDTH 10 0
BBX 9 9 1 -1
BITMAP
1280
1280
FC00
2000
3E00
4100
0100
0200
1C00
ENDCHAR
STARTCHAR 3063
ENCODING 12387
SWIDTH 900 0
DWIDTH 10 0
BBX 7 6 2 -1
BITMAP
38
C4
02
02
0C
30
ENDCHAR
STARTCHAR 3064
ENCODING 12388
SWIDTH 900 0
DWIDTH 10 0
BBX 9 7 1 0
BITMAP
1E00
E100
0080
0080
0080
0300
1C00
ENDCHAR
STARTCHAR 3065
ENCODING 12389
SWIDTH 900 0
DWIDTH 10 0
BBX 9 8 1 0
BITMAP
0280
1E80
E100
0080
0080
0080
0300
1C00
ENDCHAR
STARTCHAR 3066
ENCODING 12390
SWIDTH 900 0
DWIDTH 10 0
BBX 9 8 1 -1
BITMAP
FF80
0400
0800
1000
1000
1000
0800
0600
ENDCHAR
STARTCHAR 3067
ENCODING 12391
SWIDTH 900 0
DWIDTH 10 0
BBX 9 8 1 -1
BITMAP
FF80
0400
0A80
1280
1000
1000
0800
0600
ENDCHAR
STARTCHAR 3068
ENCODING 12392
SWIDTH 900 0
DWIDTH 10 0
BBX 7 9 2 -1
BITMAP
20
20
20
2E
30
40
80
80
7E
ENDCHAR
STARTCHAR 3069
ENCODING 12393
SWIDTH 900 0
DWIDTH 10 0
BBX 8 9 2 -1
BITMAP
25
25
20
2E
30
40
80
80
7E
ENDCHAR
STARTCHAR 306A
ENCODING 12394
SWIDTH 900 0
DWIDTH 10 0
BBX 9 9 1 -1
BITMAP
1000
1300
F880
2000
4200
4200
8F00
1280
0C00
ENDCHAR
STARTCHAR 306B
ENCODING 12395
SWIDTH 900 0
DWIDTH 10 0
BBX 8 8 1 -1
BITMAP
80
9F
80
80
80
90
90
8F
ENDCHAR
STARTCHAR 306C
ENCODING 12396
SWIDTH 900 0
DWIDTH 10 0
BBX 9 9 1 -1
BITMAP
0400
4400
5E00
6500
4880
A880
9680
A900
4680
ENDCHAR
STARTCHAR 306D
ENCODING 12397
SWIDTH 900 0
DWIDTH 10 0
BBX 9 9 1 -1
BITMAP
2000
2000
EE00
3100
2100
2100
6700
A980
2600
ENDCHAR
STARTCHAR 306E
ENCODING 12398
SWIDTH 900 0
DWIDTH 10 0
BBX 9 8 1 -1
BITMAP
3E00
4900
8880
8880
9080
9080
6100
0600
ENDCHAR
STARTCHAR 306F
ENCODING 12399
SWIDTH 900 0
DWIDTH 10 0
BBX 9 9 1 -1
BITMAP
0200
8200
9F80
8200
8200
8200
8F00
9280
8C00
ENDCHAR
STARTCHAR 3070
ENCODING 12400
SWIDTH 900 0
DWIDTH 10 0
BBX 9 9 1 -1
BITMAP
0280
8280
9D00
8200
8200
8200
8F00
9280
8C00
ENDCHAR
STARTCHAR 3071
ENCODING 12401
SWIDTH 900 0
DWIDTH 10 0
BBX 9 9 1 -1
BITMAP
0500
8680
BE80
8500
8400
8400
9E00
A500
9800
ENDCHAR
STARTCHAR 3072
ENCODING 12402
SWIDTH 900 0
DWIDTH 10 0
BBX 9 8 1 -1
BITMAP
3200
E200
2300
4280
4200
4200
4400
3800
ENDCHAR
STARTCHAR 3073
ENCODING 12403
SWIDTH 900 0
DWIDTH 10 0
BBX 9 9 1 -1
BITMAP
0280
3280
E000
2200
4300
4280
4200
4400
3800
ENDCHAR
STARTCHAR 3074
ENCODING 12404
SWIDTH 900 0
DWIDTH 10 0
BBX 9 9 1 -1
BITMAP
0100
3280
E280
2100
4200
4300
4280
4400
3800
ENDCHAR
STARTCHAR 3075
ENCODING 12405
SWIDTH 900 0
DWIDTH 10 0
BBX 9 9 1 -1
BITMAP
1800
0400
0800
1000
4900
4480
8480
A480
1800
ENDCHAR
STARTCHAR 3076
ENCODING 12406
SWIDTH 900 0
DWIDTH 10 0
BBX 9 9 1 -1
BITMAP
1A80
0680
0800
1000
4900
4480
8480
A480
1800
ENDCHAR
STARTCHAR 3077
ENCODING 12407
SWIDTH 900 0
DWIDTH 10 0
BBX 9 9 1 -1
BITMAP
1900
0680
0A80
1100
4800
4480
8480
A480
1800
ENDCHAR
STARTCHAR 3078
ENCODING 12408
SWIDTH 900 0
DWIDTH 10 0
BBX 9 6 1 0
BITMAP
3000
4800
4400
8200
0100
0080
ENDCHAR
STARTCHAR 3079
ENCODING 12409
SWIDTH 900 0
DWIDTH 10 0
BBX 9 7 1 0
BITMAP
0280
3280
4800
4400
8200
0100
0080
ENDCHAR
STARTCHAR 307A
ENCODING 12410
SWIDTH 900 0
DWIDTH 10 0
BBX 9 8 1 0
BITMAP
0100
0280
3280
4900
4400
8200
0100
0080
ENDCHAR
STARTCHAR 307B
ENCODING 12411
SWIDTH 900 0
DWIDTH 10 0
BBX 9 8 1 -1
BITMAP
9F80
8200
9F80
8200
8200
8F00
9280
8C00
ENDCHAR
STARTCHAR 307C
ENCODING 12412
SWIDTH 900 0
DWIDTH 10 0
BBX 9 9 1 -1
BITMAP
0280
BA80
8400
BF00
8400
8400
9E00
A500
9800
ENDCHAR
STARTCHAR 307D
ENCODING 12413
SWIDTH 900 0
DWIDTH 10 0
BBX 9 9 1 -1
BITMAP
0100
BE80
8680
BD00
8400
8400
9E00
A500
9800
ENDCHAR
STARTCHAR 307E
ENCODING 12414
SWIDTH 900 0
DWIDTH 10 0
BBX 7 9 2 -1
BITMAP
08
FE
08
7C
08
08
7C
8A
70
ENDCHAR
STARTCHAR 307F
ENCODING 12415
SWIDTH 900 0
DWIDTH 10 0
BBX 9 8 1 -1
BITMAP
7800
0A00
0A00
7F00
9280
A200
C200
0C00
ENDCHAR
STARTCHAR 3080
ENCODING 12416
SWIDTH 900 0
DWIDTH 10 0
BBX 9 9 1 -1
BITMAP
2000
2000
F900
2080
6000
A000
A100
6100
1E00
ENDCHAR
STARTCHAR 3081
ENCODING 12417
SWIDTH 900 0
DWIDTH 10 0
BBX 9 9 1 -1
BITMAP
0400
4400
5E00
6500
4880
A880
9080
A100
4600
ENDCHAR
STARTCHAR 3082
ENCODING 12418
SWIDTH 900 0
DWIDTH 10 0
BBX 8 9 1 -1
BITMAP
10
10
7C
20
FE
20
21
21
1E
ENDCHAR
STARTCHAR 3083
ENCODING 12419
SWIDTH 900 0
DWIDTH 10 0
BBX 7 6 1 -1
BITMAP
28
3C
E2
24
10
10
ENDCHAR
STARTCHAR 3084
ENCODING 12420
SWIDTH 900 0
DWIDTH 10 0
BBX 8 9 1 -1
BITMAP
44
48
3E
E1
21
26
10
10
10
ENDCHAR
STARTCHAR 3085
ENCODING 12421
SWIDTH 900 0
DWIDTH 10 0
BBX 6 7 2 -1
BITMAP
10
B8
D4
94
B8
10
20
ENDCHAR
STARTCHAR 3086
ENCODING 12422
SWIDTH 900 0
DWIDTH 10 0
BBX 8 9 1 -1
BITMAP
08
88
BE
C9
89
A9
9E
08
10
ENDCHAR
STARTCHAR 3087
ENCODING 12423
SWIDTH 900 0
DWIDTH 10 0
BBX 6 7 2 -1
BITMAP
10
10
1C
10
70
98
64
ENDCHAR
STARTCHAR 3088
ENCODING 12424
SWIDTH 900 0
DWIDTH 10 0
BBX 8 9 1 -1
BITMAP
08
08
0F
08
08
08
7C
8A
71
ENDCHAR
STARTCHAR 3089
ENCODING 12425
SWIDTH 900 0
DWIDTH 10 0
BBX 7 9 2 -1
BITMAP
70
0C
40
40
FC
82
02
04
38
ENDCHAR
STARTCHAR 308A
ENCODING 12426
SWIDTH 900 0
DWIDTH 10 0
BBX 6 9 2 -1
BITMAP
84
84
84
84
A4
44
04
08
30
ENDCHAR
STARTCHAR 308B
ENCODING 12427
SWIDTH 900 0
DWIDTH 10 0
BBX 8 9 1 -1
BITMAP
7C
08
10
3C
42
81
19
26
1C
ENDCHAR
STARTCHAR 308C
ENCODING 12428
SWIDTH 900 0
DWIDTH 10 0
BBX 9 9 1 -1
BITMAP
2000
2000
EC00
3200
2200
2200
6200
A280
2100
ENDCHAR
STARTCHAR 308D
ENCODING 12429
SWIDTH 900 0
DWIDTH 10 0
BBX 8 9 1 -1
BITMAP
7C
08
10
3C
42
81
01
02
1C
ENDCHAR
STARTCHAR 308E
ENCODING 12430
SWIDTH 900 0
DWIDTH 10 0
BBX 6 7 2 -1
BITMAP
40
40
D8
64
44
C4
48
ENDCHAR
STARTCHAR 308F
ENCODING 12431
SWIDTH 900 0
DWIDTH 10 0
BBX 9 9 1 -1
BITMAP
2000
2000
EE00
3100
2080
2080
6080
A100
2600
ENDCHAR
STARTCHAR 3090
ENCODING 12432
SWIDTH 900 0
DWIDTH 10 0
BBX 8 8 1 -1
BITMAP
7C
08
3C
52
91
A7
A9
46
ENDCHAR
STARTCHAR 3091
ENCODING 12433
SWIDTH 900 0
DWIDTH 10 0
BBX 9 9 1 -1
BITMAP
3C00
0800
1C00
2200
5A00
1C00
2000
7700
8980
ENDCHAR
STARTCHAR 3092
ENCODING 12434
SWIDTH 900 0
DWIDTH 10 0
BBX 8 9 1 -1
BITMAP
10
FE
20
33
4C
94
24
20
1E
ENDCHAR
STARTCHAR 3093
ENCODING 12435
SWIDTH 900 0
DWIDTH 10 0
BBX 8 9 1 -1
BITMAP
08
10
10
20
30
48
49
89
86
ENDCHAR
STARTCHAR 3094
ENCODING 12436
SWIDTH 990 0
DWIDTH 11 0
BBX 0 0 0 0
BITMAP
ENDCHAR
STARTCHAR 309B
ENCODING 12443
SWIDTH 900 0
DWIDTH 10 0
BBX 3 4 1 4
BITMAP
40
20
80
40
ENDCHAR
STARTCHAR 309C
ENCODING 12444
SWIDTH 900 0
DWIDTH 10 0
BBX 3 4 1 4
BITMAP
40
A0
A0
40
ENDCHAR
STARTCHAR 309D
ENCODING 12445
SWIDTH 900 0
DWIDTH 10 0
BBX 4 6 3 0
BITMAP
80
80
40
20
10
60
ENDCHAR
STARTCHAR 309E
ENCODING 12446
SWIDTH 900 0
DWIDTH 10 0
BBX 7 8 3 0
BITMAP
04
12
88
80
40
20
10
60
ENDCHAR
STARTCHAR 30A1
ENCODING 12449
SWIDTH 900 0
DWIDTH 10 0
BBX 6 6 3 -1
BITMAP
FC
04
28
20
20
40
ENDCHAR
STARTCHAR 30A2
ENCODING 12450
SWIDTH 900 0
DWIDTH 10 0
BBX 8 8 1 -1
BITMAP
FF
01
12
14
10
10
20
40
ENDCHAR
STARTCHAR 30A3
ENCODING 12451
SWIDTH 900 0
DWIDTH 10 0
BBX 6 7 2 -1
BITMAP
04
08
10
70
90
10
10
ENDCHAR
STARTCHAR 30A4
ENCODING 12452
SWIDTH 900 0
DWIDTH 10 0
BBX 8 9 1 -1
BITMAP
01
02
04
08
38
C8
08
08
08
ENDCHAR
STARTCHAR 30A5
ENCODING 12453
SWIDTH 900 0
DWIDTH 10 0
BBX 6 7 2 -1
BITMAP
10
10
FC
84
04
08
30
ENDCHAR
STARTCHAR 30A6
ENCODING 12454
SWIDTH 900 0
DWIDTH 10 0
BBX 7 9 2 -1
BITMAP
10
10
FE
82
82
02
04
08
30
ENDCHAR
STARTCHAR 30A7
ENCODING 12455
SWIDTH 900 0
DWIDTH 10 0
BBX 7 5 2 -1
BITMAP
7C
10
10
10
FE
ENDCHAR
STARTCHAR 30A8
ENCODING 12456
SWIDTH 900 0
DWIDTH 10 0
BBX 9 6 1 0
BITMAP
7F00
0800
0800
0800
0800
FF80
ENDCHAR
STARTCHAR 30A9
ENCODING 12457
SWIDTH 900 0
DWIDTH 10 0
BBX 6 7 2 -1
BITMAP
08
08
FC
18
28
48
98
ENDCHAR
STARTCHAR 30AA
ENCODING 12458
SWIDTH 900 0
DWIDTH 10 0
BBX 8 9 1 -1
BITMAP
04
04
FF
0C
14
24
44
84
0C
ENDCHAR
STARTCHAR 30AB
ENCODING 12459
SWIDTH 900 0
DWIDTH 10 0
BBX 8 9 1 -1
BITMAP
10
10
FF
11
11
21
21
41
86
ENDCHAR
STARTCHAR 30AC
ENCODING 12460
SWIDTH 900 0
DWIDTH 10 0
BBX 9 9 1 -1
BITMAP
1280
1280
FF00
1100
1100
2100
2100
4100
8600
ENDCHAR
STARTCHAR 30AD
ENCODING 12461
SWIDTH 900 0
DWIDTH 10 0
BBX 9 9 1 -1
BITMAP
1000
1000
7F00
0800
0800
FF80
0400
0400
0400
ENDCHAR
STARTCHAR 30AE
ENCODING 12462
SWIDTH 900 0
DWIDTH 10 0
BBX 9 9 1 -1
BITMAP
1280
1280
7F00
0800
0800
FF80
0400
0400
0400
ENDCHAR
STARTCHAR 30AF
ENCODING 12463
SWIDTH 900 0
DWIDTH 10 0
BBX 7 9 2 -1
BITMAP
20
3E
22
42
82
04
04
18
60
ENDCHAR
STARTCHAR 30B0
ENCODING 12464
SWIDTH 900 0
DWIDTH 10 0
BBX 8 9 2 -1
BITMAP
25
3D
22
42
82
04
04
18
60
ENDCHAR
STARTCHAR 30B1
ENCODING 12465
SWIDTH 900 0
DWIDTH 10 0
BBX 8 9 1 -1
BITMAP
20
20
3F
44
84
04
04
08
30
ENDCHAR
STARTCHAR 30B2
ENCODING 12466
SWIDTH 900 0
DWIDTH 10 0
BBX 9 9 1 -1
BITMAP
2280
2280
3F00
4400
8400
0400
0400
0800
3000
ENDCHAR
STARTCHAR 30B3
ENCODING 12467
SWIDTH 900 0
DWIDTH 10 0
BBX 7 7 2 -1
BITMAP
FE
02
02
02
02
FE
02
ENDCHAR
STARTCHAR 30B4
ENCODING 12468
SWIDTH 900 0
DWIDTH 10 0
BBX 8 9 2 -1
BITMAP
05
05
FE
02
02
02
02
FE
02
ENDCHAR
STARTCHAR 30B5
ENCODING 12469
SWIDTH 900 0
DWIDTH 10 0
BBX 9 9 1 -1
BITMAP
2200
2200
FF80
2200
2200
2200
0200
0400
1800
ENDCHAR
STARTCHAR 30B6
ENCODING 12470
SWIDTH 900 0
DWIDTH 10 0
BBX 9 9 1 -1
BITMAP
2280
2280
FD00
2200
2200
2200
0200
0400
1800
ENDCHAR
STARTCHAR 30B7
ENCODING 12471
SWIDTH 900 0
DWIDTH 10 0
BBX 7 8 2 -1
BITMAP
C0
22
02
C2
24
04
18
E0
ENDCHAR
STARTCHAR 30B8
ENCODING 12472
SWIDTH 900 0
DWIDTH 10 0
BBX 8 9 2 -1
BITMAP
05
C5
22
02
C2
24
04
18
E0
ENDCHAR
STARTCHAR 30B9
ENCODING 12473
SWIDTH 900 0
DWIDTH 10 0
BBX 8 8 1 -1
BITMAP
7E
02
04
04
08
14
22
C1
ENDCHAR
STARTCHAR 30BA
ENCODING 12474
SWIDTH 900 0
DWIDTH 10 0
BBX 9 9 1 -1
BITMAP
0280
7E80
0200
0400
0400
0800
1400
2200
C100
ENDCHAR
STARTCHAR 30BB
ENCODING 12475
SWIDTH 900 0
DWIDTH 10 0
BBX 8 9 1 -1
BITMAP
40
40
4F
F1
42
44
40
40
3E
ENDCHAR
STARTCHAR 30BC
ENCODING 12476
SWIDTH 900 0
DWIDTH 10 0
BBX 9 9 1 -1
BITMAP
4280
4280
4F00
F100
4200
4400
4000
4000
3E00
ENDCHAR
STARTCHAR 30BD
ENCODING 12477
SWIDTH 900 0
DWIDTH 10 0
BBX 7 8 2 -1
BITMAP
82
42
22
04
04
08
10
60
ENDCHAR
STARTCHAR 30BE
ENCODING 12478
SWIDTH 900 0
DWIDTH 10 0
BBX 8 9 2 -1
BITMAP
05
85
42
22
04
04
08
10
60
ENDCHAR
STARTCHAR 30BF
ENCODING 12479
SWIDTH 900 0
DWIDTH 10 0
BBX 7 9 2 -1
BITMAP
20
3E
22
62
92
0C
04
18
60
ENDCHAR
STARTCHAR 30C0
ENCODING 12480
SWIDTH 900 0
DWIDTH 10 0
BBX 8 9 2 -1
BITMAP
25
3D
22
62
92
0C
04
18
60
ENDCHAR
STARTCHAR 30C1
ENCODING 12481
SWIDTH 900 0
DWIDTH 10 0
BBX 8 8 1 -1
BITMAP
06
78
08
FF
08
08
10
60
ENDCHAR
STARTCHAR 30C2
ENCODING 12482
SWIDTH 900 0
DWIDTH 10 0
BBX 9 9 1 -1
BITMAP
0280
0680
7800
0800
FF00
0800
0800
1000
6000
ENDCHAR
STARTCHAR 30C3
ENCODING 12483
SWIDTH 900 0
DWIDTH 10 0
BBX 6 5 2 -1
BITMAP
A4
A4
04
08
30
ENDCHAR
STARTCHAR 30C4
ENCODING 12484
SWIDTH 900 0
DWIDTH 10 0
BBX 7 8 2 -1
BITMAP
20
92
52
42
04
04
18
60
ENDCHAR
STARTCHAR 30C5
ENCODING 12485
SWIDTH 900 0
DWIDTH 10 0
BBX 8 9 2 -1
BITMAP
05
25
90
52
42
04
04
18
60
ENDCHAR
STARTCHAR 30C6
ENCODING 12486
SWIDTH 900 0
DWIDTH 10 0
BBX 8 8 1 -1
BITMAP
7E
00
FF
08
08
08
10
60
ENDCHAR
STARTCHAR 30C7
ENCODING 12487
SWIDTH 900 0
DWIDTH 10 0
BBX 9 9 1 -1
BITMAP
0280
7A80
0000
FF00
0800
0800
0800
1000
6000
ENDCHAR
STARTCHAR 30C8
ENCODING 12488
SWIDTH 900 0
DWIDTH 10 0
BBX 5 9 3 -1
BITMAP
80
80
80
C0
B0
88
80
80
80
ENDCHAR
STARTCHAR 30C9
ENCODING 12489
SWIDTH 900 0
DWIDTH 10 0
BBX 6 9 3 -1
BITMAP
94
94
80
C0
B0
88
80
80
80
ENDCHAR
STARTCHAR 30CA
ENCODING 12490
SWIDTH 900 0
DWIDTH 10 0
BBX 8 9 1 -1
BITMAP
08
08
FF
08
08
08
08
10
60
ENDCHAR
STARTCHAR 30CB
ENCODING 12491
SWIDTH 900 0
DWIDTH 10 0
BBX 8 6 1 0
BITMAP
7E
00
00
00
00
FF
ENDCHAR
STARTCHAR 30CC
ENCODING 12492
SWIDTH 900 0
DWIDTH 10 0
BBX 7 8 2 -1
BITMAP
FE
02
04
34
08
14
22
C0
ENDCHAR
STARTCHAR 30CD
ENCODING 12493
SWIDTH 900 0
DWIDTH 10 0
BBX 7 9 2 -1
BITMAP
10
10
FE
04
08
38
D6
10
10
ENDCHAR
STARTCHAR 30CE
ENCODING 12494
SWIDTH 900 0
DWIDTH 10 0
BBX 7 8 2 -1
BITMAP
02
02
04
04
08
10
20
C0
ENDCHAR
STARTCHAR 30CF
ENCODING 12495
SWIDTH 900 0
DWIDTH 10 0
BBX 8 8 1 -1
BITMAP
24
24
22
22
42
41
41
81
ENDCHAR
STARTCHAR 30D0
ENCODING 12496
SWIDTH 900 0
DWIDTH 10 0
BBX 9 9 1 -1
BITMAP
0280
2280
2400
2200
2200
4200
4100
4100
8100
ENDCHAR
STARTCHAR 30D1
ENCODING 12497
SWIDTH 900 0
DWIDTH 10 0
BBX 9 9 1 -1
BITMAP
0100
0280
2280
2500
2200
4200
4100
4100
8100
ENDCHAR
STARTCHAR 30D2
ENCODING 12498
SWIDTH 900 0
DWIDTH 10 0
BBX 7 9 2 -1
BITMAP
80
80
86
98
E0
80
80
80
7E
ENDCHAR
STARTCHAR 30D3
ENCODING 12499
SWIDTH 900 0
DWIDTH 10 0
BBX 8 9 2 -1
BITMAP
85
85
84
98
E0
80
80
80
7E
ENDCHAR
STARTCHAR 30D4
ENCODING 12500
SWIDTH 900 0
DWIDTH 10 0
BBX 8 9 2 -1
BITMAP
82
85
85
9A
E0
80
80
80
7E
ENDCHAR
STARTCHAR 30D5
ENCODING 12501
SWIDTH 900 0
DWIDTH 10 0
BBX 7 8 2 -1
BITMAP
FE
02
02
02
04
04
18
60
ENDCHAR
STARTCHAR 30D6
ENCODING 12502
SWIDTH 900 0
DWIDTH 10 0
BBX 8 9 2 -1
BITMAP
05
05
FE
02
02
04
04
18
60
ENDCHAR
STARTCHAR 30D7
ENCODING 12503
SWIDTH 900 0
DWIDTH 10 0
BBX 8 9 2 -1
BITMAP
02
05
FD
02
02
04
04
18
60
ENDCHAR
STARTCHAR 30D8
ENCODING 12504
SWIDTH 900 0
DWIDTH 10 0
BBX 8 6 1 0
BITMAP
20
50
88
04
02
01
ENDCHAR
STARTCHAR 30D9
ENCODING 12505
SWIDTH 900 0
DWIDTH 10 0
BBX 8 7 1 0
BITMAP
05
25
50
88
04
02
01
ENDCHAR
STARTCHAR 30DA
ENCODING 12506
SWIDTH 900 0
DWIDTH 10 0
BBX 9 8 1 0
BITMAP
0100
0280
2280
5100
8800
0400
0200
0100
ENDCHAR
STARTCHAR 30DB
ENCODING 12507
SWIDTH 900 0
DWIDTH 10 0
BBX 9 9 1 -1
BITMAP
0800
0800
FF80
0800
0800
4900
4880
8880
1800
ENDCHAR
STARTCHAR 30DC
ENCODING 12508
SWIDTH 900 0
DWIDTH 10 0
BBX 9 9 1 -1
BITMAP
0A80
0A80
FF00
0800
0800
4900
4880
8880
1800
ENDCHAR
STARTCHAR 30DD
ENCODING 12509
SWIDTH 900 0
DWIDTH 10 0
BBX 9 9 1 -1
BITMAP
0900
0A80
FE80
0900
0800
4900
4880
8880
1800
ENDCHAR
STARTCHAR 30DE
ENCODING 12510
SWIDTH 900 0
DWIDTH 10 0
BBX 8 7 1 -1
BITMAP
FF
02
04
28
10
08
08
ENDCHAR
STARTCHAR 30DF
ENCODING 12511
SWIDTH 900 0
DWIDTH 10 0
BBX 6 8 2 -1
BITMAP
70
0C
00
70
0C
00
F0
0C
ENDCHAR
STARTCHAR 30E0
ENCODING 12512
SWIDTH 900 0
DWIDTH 10 0
BBX 8 8 1 -1
BITMAP
10
10
10
20
24
42
4E
F1
ENDCHAR
STARTCHAR 30E1
ENCODING 12513
SWIDTH 900 0
DWIDTH 10 0
BBX 7 8 2 -1
BITMAP
02
02
64
14
08
14
22
C0
ENDCHAR
STARTCHAR 30E2
ENCODING 12514
SWIDTH 900 0
DWIDTH 10 0
BBX 8 8 1 -1
BITMAP
7E
10
10
FF
10
10
10
0F
ENDCHAR
STARTCHAR 30E3
ENCODING 12515
SWIDTH 900 0
DWIDTH 10 0
BBX 6 7 2 -1
BITMAP
20
20
FC
24
28
20
20
ENDCHAR
STARTCHAR 30E4
ENCODING 12516
SWIDTH 900 0
DWIDTH 10 0
BBX 9 9 1 -1
BITMAP
2000
2000
1F80
F100
1200
1000
0800
0800
0800
ENDCHAR
STARTCHAR 30E5
ENCODING 12517
SWIDTH 900 0
DWIDTH 10 0
BBX 7 4 2 0
BITMAP
78
08
08
FE
ENDCHAR
STARTCHAR 30E6
ENCODING 12518
SWIDTH 900 0
DWIDTH 10 0
BBX 8 6 1 0
BITMAP
7E
02
02
04
04
FF
ENDCHAR
STARTCHAR 30E7
ENCODING 12519
SWIDTH 900 0
DWIDTH 10 0
BBX 5 5 2 -1
BITMAP
F8
08
F8
08
F8
ENDCHAR
STARTCHAR 30E8
ENCODING 12520
SWIDTH 900 0
DWIDTH 10 0
BBX 7 8 2 -1
BITMAP
FE
02
02
FE
02
02
FE
02
ENDCHAR
STARTCHAR 30E9
ENCODING 12521
SWIDTH 900 0
DWIDTH 10 0
BBX 7 8 2 -1
BITMAP
7C
00
FE
02
02
04
08
30
ENDCHAR
STARTCHAR 30EA
ENCODING 12522
SWIDTH 900 0
DWIDTH 10 0
BBX 6 9 2 -1
BITMAP
84
84
84
84
84
04
08
10
60
ENDCHAR
STARTCHAR 30EB
ENCODING 12523
SWIDTH 900 0
DWIDTH 10 0
BBX 8 8 1 -1
BITMAP
48
48
48
48
49
49
8A
8C
ENDCHAR
STARTCHAR 30EC
ENCODING 12524
SWIDTH 900 0
DWIDTH 10 0
BBX 7 8 2 -1
BITMAP
80
80
80
80
82
84
98
E0
ENDCHAR
STARTCHAR 30ED
ENCODING 12525
SWIDTH 900 0
DWIDTH 10 0
BBX 7 7 2 -1
BITMAP
FE
82
82
82
82
FE
82
ENDCHAR
STARTCHAR 30EE
ENCODING 12526
SWIDTH 900 0
DWIDTH 10 0
BBX 6 6 2 -1
BITMAP
FC
84
04
04
08
30
ENDCHAR
STARTCHAR 30EF
ENCODING 12527
SWIDTH 900 0
DWIDTH 10 0
BBX 7 8 2 -1
BITMAP
FE
82
82
02
02
04
08
30
ENDCHAR
STARTCHAR 30F0
ENCODING 12528
SWIDTH 900 0
DWIDTH 10 0
BBX 8 9 1 -1
BITMAP
04
04
FF
44
44
FF
04
04
04
ENDCHAR
STARTCHAR 30F1
ENCODING 12529
SWIDTH 900 0
DWIDTH 10 0
BBX 8 7 1 0
BITMAP
7E
02
14
10
10
10
FF
ENDCHAR
STARTCHAR 30F2
ENCODING 12530
SWIDTH 900 0
DWIDTH 10 0
BBX 7 8 2 -1
BITMAP
FE
02
02
FE
04
04
18
60
ENDCHAR
STARTCHAR 30F3
ENCODING 12531
SWIDTH 900 0
DWIDTH 10 0
BBX 7 8 2 -1
BITMAP
C0
22
02
02
04
04
18
E0
ENDCHAR
STARTCHAR 30F4
ENCODING 12532
SWIDTH 900 0
DWIDTH 10 0
BBX 8 9 2 -1
BITMAP
15
15
FE
82
82
02
04
08
30
ENDCHAR
STARTCHAR 30F5
ENCODING 12533
SWIDTH 900 0
DWIDTH 10 0
BBX 6 7 2 -1
BITMAP
20
20
FC
24
24
44
8C
ENDCHAR
STARTCHAR 30F6
ENCODING 12534
SWIDTH 900 0
DWIDTH 10 0
BBX 7 7 2 -1
BITMAP
20
20
7E
88
08
10
60
ENDCHAR
STARTCHAR 30F7
ENCODING 12535
SWIDTH 990 0
DWIDTH 11 0
BBX 0 0 0 0
BITMAP
ENDCHAR
STARTCHAR 30F8
ENCODING 12536
SWIDTH 990 0
DWIDTH 11 0
BBX 0 0 0 0
BITMAP
ENDCHAR
STARTCHAR 30F9
ENCODING 12537
SWIDTH 990 0
DWIDTH 11 0
BBX 0 0 0 0
BITMAP
ENDCHAR
STARTCHAR 30FA
ENCODING 12538
SWIDTH 990 0
DWIDTH 11 0
BBX 0 0 0 0
BITMAP
ENDCHAR
STARTCHAR 30FB
ENCODING 12539
SWIDTH 900 0
DWIDTH 10 0
BBX 2 2 4 2
BITMAP
C0
C0
ENDCHAR
STARTCHAR 30FC
ENCODING 12540
SWIDTH 900 0
DWIDTH 10 0
BBX 8 2 1 3
BITMAP
80
7F
ENDCHAR
STARTCHAR 30FD
ENCODING 12541
SWIDTH 900 0
DWIDTH 10 0
BBX 4 5 3 1
BITMAP
80
40
20
10
10
ENDCHAR
STARTCHAR 30FE
ENCODING 12542
SWIDTH 900 0
DWIDTH 10 0
BBX 7 7 3 1
BITMAP
04
12
88
40
20
10
10
ENDCHAR
STARTCHAR 3220
ENCODING 12832
SWIDTH 990 0
DWIDTH 11 0
BBX 0 0 0 0
BITMAP
ENDCHAR
STARTCHAR 3221
ENCODING 12833
SWIDTH 990 0
DWIDTH 11 0
BBX 0 0 0 0
BITMAP
ENDCHAR
STARTCHAR 3222
ENCODING 12834
SWIDTH 990 0
DWIDTH 11 0
BBX 0 0 0 0
BITMAP
ENDCHAR
STARTCHAR 3223
ENCODING 12835
SWIDTH 990 0
DWIDTH 11 0
BBX 0 0 0 0
BITMAP
ENDCHAR
STARTCHAR 3224
ENCODING 12836
SWIDTH 990 0
DWIDTH 11 0
BBX 0 0 0 0
BITMAP
ENDCHAR
STARTCHAR 3225
ENCODING 12837
SWIDTH 990 0
DWIDTH 11 0
BBX 0 0 0 0
BITMAP
ENDCHAR
STARTCHAR 3226
ENCODING 12838
SWIDTH 990 0
DWIDTH 11 0
BBX 0 0 0 0
BITMAP
ENDCHAR
STARTCHAR 3227
ENCODING 12839
SWIDTH 990 0
DWIDTH 11 0
BBX 0 0 0 0
BITMAP
ENDCHAR
STARTCHAR 3228
ENCODING 12840
SWIDTH 990 0
DWIDTH 11 0
BBX 0 0 0 0
BITMAP
ENDCHAR
STARTCHAR 3229
ENCODING 12841
SWIDTH 990 0
DWIDTH 11 0
BBX 0 0 0 0
BITMAP
ENDCHAR
STARTCHAR 322A
ENCODING 12842
SWIDTH 990 0
DWIDTH 11 0
BBX 0 0 0 0
BITMAP
ENDCHAR
STARTCHAR 322B
ENCODING 12843
SWIDTH 990 0
DWIDTH 11 0
BBX 0 0 0 0
BITMAP
ENDCHAR
STARTCHAR 322C
ENCODING 12844
SWIDTH 990 0
DWIDTH 11 0
BBX 0 0 0 0
BITMAP
ENDCHAR
STARTCHAR 322D
ENCODING 12845
SWIDTH 990 0
DWIDTH 11 0
BBX 0 0 0 0
BITMAP
ENDCHAR
STARTCHAR 322E
ENCODING 12846
SWIDTH 990 0
DWIDTH 11 0
BBX 0 0 0 0
BITMAP
ENDCHAR
STARTCHAR 322F
ENCODING 12847
SWIDTH 990 0
DWIDTH 11 0
BBX 0 0 0 0
BITMAP
ENDCHAR
STARTCHAR 3230
ENCODING 12848
SWIDTH 990 0
DWIDTH 11 0
BBX 0 0 0 0
BITMAP
ENDCHAR
STARTCHAR 3231
ENCODING 12849
SWIDTH 990 0
DWIDTH 11 0
BBX 11 10 0 -1
BITMAP
0200
5640
97C0
BA20
9A20
B7A0
BB20
D740
56C0
1280
ENDCHAR
STARTCHAR 3232
ENCODING 12850
SWIDTH 990 0
DWIDTH 11 0
BBX 0 0 0 0
BITMAP
ENDCHAR
STARTCHAR 3233
ENCODING 12851
SWIDTH 990 0
DWIDTH 11 0
BBX 0 0 0 0
BITMAP
ENDCHAR
STARTCHAR 3234
ENCODING 12852
SWIDTH 990 0
DWIDTH 11 0
BBX 0 0 0 0
BITMAP
ENDCHAR
STARTCHAR 3235
ENCODING 12853
SWIDTH 990 0
DWIDTH 11 0
BBX 0 0 0 0
BITMAP
ENDCHAR
STARTCHAR 3236
ENCODING 12854
SWIDTH 990 0
DWIDTH 11 0
BBX 0 0 0 0
BITMAP
ENDCHAR
STARTCHAR 3237
ENCODING 12855
SWIDTH 990 0
DWIDTH 11 0
BBX 0 0 0 0
BITMAP
ENDCHAR
STARTCHAR 3238
ENCODING 12856
SWIDTH 990 0
DWIDTH 11 0
BBX 0 0 0 0
BITMAP
ENDCHAR
STARTCHAR 3239
ENCODING 12857
SWIDTH 990 0
DWIDTH 11 0
BBX 0 0 0 0
BITMAP
ENDCHAR
STARTCHAR 323A
ENCODING 12858
SWIDTH 990 0
DWIDTH 11 0
BBX 0 0 0 0
BITMAP
ENDCHAR
STARTCHAR 323B
ENCODING 12859
SWIDTH 990 0
DWIDTH 11 0
BBX 0 0 0 0
BITMAP
ENDCHAR
STARTCHAR 323C
ENCODING 12860
SWIDTH 990 0
DWIDTH 11 0
BBX 0 0 0 0
BITMAP
ENDCHAR
STARTCHAR 323D
ENCODING 12861
SWIDTH 990 0
DWIDTH 11 0
BBX 0 0 0 0
BITMAP
ENDCHAR
STARTCHAR 323E
ENCODING 12862
SWIDTH 990 0
DWIDTH 11 0
BBX 0 0 0 0
BITMAP
ENDCHAR
STARTCHAR 323F
ENCODING 12863
SWIDTH 990 0
DWIDTH 11 0
BBX 0 0 0 0
BITMAP
ENDCHAR
STARTCHAR 3240
ENCODING 12864
SWIDTH 990 0
DWIDTH 11 0
BBX 0 0 0 0
BITMAP
ENDCHAR
STARTCHAR 3241
ENCODING 12865
SWIDTH 990 0
DWIDTH 11 0
BBX 0 0 0 0
BITMAP
ENDCHAR
STARTCHAR 3242
ENCODING 12866
SWIDTH 990 0
DWIDTH 11 0
BBX 0 0 0 0
BITMAP
ENDCHAR
STARTCHAR 3243
ENCODING 12867
SWIDTH 990 0
DWIDTH 11 0
BBX 0 0 0 0
BITMAP
ENDCHAR
STARTCHAR 3280
ENCODING 12928
SWIDTH 990 0
DWIDTH 11 0
BBX 0 0 0 0
BITMAP
ENDCHAR
STARTCHAR 3281
ENCODING 12929
SWIDTH 990 0
DWIDTH 11 0
BBX 0 0 0 0
BITMAP
ENDCHAR
STARTCHAR 3282
ENCODING 12930
SWIDTH 990 0
DWIDTH 11 0
BBX 0 0 0 0
BITMAP
ENDCHAR
STARTCHAR 3283
ENCODING 12931
SWIDTH 990 0
DWIDTH 11 0
BBX 0 0 0 0
BITMAP
ENDCHAR
STARTCHAR 3284
ENCODING 12932
SWIDTH 990 0
DWIDTH 11 0
BBX 0 0 0 0
BITMAP
ENDCHAR
STARTCHAR 3285
ENCODING 12933
SWIDTH 990 0
DWIDTH 11 0
BBX 0 0 0 0
BITMAP
ENDCHAR
STARTCHAR 3286
ENCODING 12934
SWIDTH 990 0
DWIDTH 11 0
BBX 0 0 0 0
BITMAP
ENDCHAR
STARTCHAR 3287
ENCODING 12935
SWIDTH 990 0
DWIDTH 11 0
BBX 0 0 0 0
BITMAP
ENDCHAR
STARTCHAR 3288
ENCODING 12936
SWIDTH 990 0
DWIDTH 11 0
BBX 0 0 0 0
BITMAP
ENDCHAR
STARTCHAR 3289
ENCODING 12937
SWIDTH 990 0
DWIDTH 11 0
BBX 0 0 0 0
BITMAP
ENDCHAR
STARTCHAR 328A
ENCODING 12938
SWIDTH 990 0
DWIDTH 11 0
BBX 0 0 0 0
BITMAP
ENDCHAR
STARTCHAR 328B
ENCODING 12939
SWIDTH 990 0
DWIDTH 11 0
BBX 0 0 0 0
BITMAP
ENDCHAR
STARTCHAR 328C
ENCODING 12940
SWIDTH 990 0
DWIDTH 11 0
BBX 0 0 0 0
BITMAP
ENDCHAR
STARTCHAR 328D
ENCODING 12941
SWIDTH 990 0
DWIDTH 11 0
BBX 0 0 0 0
BITMAP
ENDCHAR
STARTCHAR 328E
ENCODING 12942
SWIDTH 990 0
DWIDTH 11 0
BBX 0 0 0 0
BITMAP
ENDCHAR
STARTCHAR 328F
ENCODING 12943
SWIDTH 990 0
DWIDTH 11 0
BBX 0 0 0 0
BITMAP
ENDCHAR
STARTCHAR 3290
ENCODING 12944
SWIDTH 990 0
DWIDTH 11 0
BBX 0 0 0 0
BITMAP
ENDCHAR
STARTCHAR 3291
ENCODING 12945
SWIDTH 990 0
DWIDTH 11 0
BBX 0 0 0 0
BITMAP
ENDCHAR
STARTCHAR 3292
ENCODING 12946
SWIDTH 990 0
DWIDTH 11 0
BBX 0 0 0 0
BITMAP
ENDCHAR
STARTCHAR 3293
ENCODING 12947
SWIDTH 990 0
DWIDTH 11 0
BBX 0 0 0 0
BITMAP
ENDCHAR
STARTCHAR 3294
ENCODING 12948
SWIDTH 990 0
DWIDTH 11 0
BBX 0 0 0 0
BITMAP
ENDCHAR
STARTCHAR 3295
ENCODING 12949
SWIDTH 990 0
DWIDTH 11 0
BBX 0 0 0 0
BITMAP
ENDCHAR
STARTCHAR 3296
ENCODING 12950
SWIDTH 990 0
DWIDTH 11 0
BBX 0 0 0 0
BITMAP
ENDCHAR
STARTCHAR 3297
ENCODING 12951
SWIDTH 990 0
DWIDTH 11 0
BBX 0 0 0 0
BITMAP
ENDCHAR
STARTCHAR 3298
ENCODING 12952
SWIDTH 990 0
DWIDTH 11 0
BBX 0 0 0 0
BITMAP
ENDCHAR
STARTCHAR 3299
ENCODING 12953
SWIDTH 990 0
DWIDTH 11 0
BBX 0 0 0 0
BITMAP
ENDCHAR
STARTCHAR 329A
ENCODING 12954
SWIDTH 990 0
DWIDTH 11 0
BBX 0 0 0 0
BITMAP
ENDCHAR
STARTCHAR 329B
ENCODING 12955
SWIDTH 990 0
DWIDTH 11 0
BBX 0 0 0 0
BITMAP
ENDCHAR
STARTCHAR 329C
ENCODING 12956
SWIDTH 990 0
DWIDTH 11 0
BBX 0 0 0 0
BITMAP
ENDCHAR
STARTCHAR 329D
ENCODING 12957
SWIDTH 990 0
DWIDTH 11 0
BBX 0 0 0 0
BITMAP
ENDCHAR
STARTCHAR 329E
ENCODING 12958
SWIDTH 990 0
DWIDTH 11 0
BBX 0 0 0 0
BITMAP
ENDCHAR
STARTCHAR 329F
ENCODING 12959
SWIDTH 990 0
DWIDTH 11 0
BBX 0 0 0 0
BITMAP
ENDCHAR
STARTCHAR 32A0
ENCODING 12960
SWIDTH 990 0
DWIDTH 11 0
BBX 0 0 0 0
BITMAP
ENDCHAR
STARTCHAR 32A1
ENCODING 12961
SWIDTH 990 0
DWIDTH 11 0
BBX 0 0 0 0
BITMAP
ENDCHAR
STARTCHAR 32A2
ENCODING 12962
SWIDTH 990 0
DWIDTH 11 0
BBX 0 0 0 0
BITMAP
ENDCHAR
STARTCHAR 32A3
ENCODING 12963
SWIDTH 990 0
DWIDTH 11 0
BBX 0 0 0 0
BITMAP
ENDCHAR
STARTCHAR 32A4
ENCODING 12964
SWIDTH 990 0
DWIDTH 11 0
BBX 0 0 0 0
BITMAP
ENDCHAR
STARTCHAR 32A5
ENCODING 12965
SWIDTH 990 0
DWIDTH 11 0
BBX 0 0 0 0
BITMAP
ENDCHAR
STARTCHAR 32A6
ENCODING 12966
SWIDTH 990 0
DWIDTH 11 0
BBX 0 0 0 0
BITMAP
ENDCHAR
STARTCHAR 32A7
ENCODING 12967
SWIDTH 990 0
DWIDTH 11 0
BBX 0 0 0 0
BITMAP
ENDCHAR
STARTCHAR 32A8
ENCODING 12968
SWIDTH 990 0
DWIDTH 11 0
BBX 0 0 0 0
BITMAP
ENDCHAR
STARTCHAR 32A9
ENCODING 12969
SWIDTH 990 0
DWIDTH 11 0
BBX 0 0 0 0
BITMAP
ENDCHAR
STARTCHAR 32AA
ENCODING 12970
SWIDTH 990 0
DWIDTH 11 0
BBX 0 0 0 0
BITMAP
ENDCHAR
STARTCHAR 32AB
ENCODING 12971
SWIDTH 990 0
DWIDTH 11 0
BBX 0 0 0 0
BITMAP
ENDCHAR
STARTCHAR 32AC
ENCODING 12972
SWIDTH 990 0
DWIDTH 11 0
BBX 0 0 0 0
BITMAP
ENDCHAR
STARTCHAR 32AD
ENCODING 12973
SWIDTH 990 0
DWIDTH 11 0
BBX 0 0 0 0
BITMAP
ENDCHAR
STARTCHAR 32AE
ENCODING 12974
SWIDTH 990 0
DWIDTH 11 0
BBX 0 0 0 0
BITMAP
ENDCHAR
STARTCHAR 32AF
ENCODING 12975
SWIDTH 990 0
DWIDTH 11 0
BBX 0 0 0 0
BITMAP
ENDCHAR
STARTCHAR 32B0
ENCODING 12976
SWIDTH 990 0
DWIDTH 11 0
BBX 0 0 0 0
BITMAP
ENDCHAR
STARTCHAR 32C0
ENCODING 12992
SWIDTH 990 0
DWIDTH 11 0
BBX 0 0 0 0
BITMAP
ENDCHAR
STARTCHAR 32C1
ENCODING 12993
SWIDTH 990 0
DWIDTH 11 0
BBX 0 0 0 0
BITMAP
ENDCHAR
STARTCHAR 32C2
ENCODING 12994
SWIDTH 990 0
DWIDTH 11 0
BBX 0 0 0 0
BITMAP
ENDCHAR
STARTCHAR 32C3
ENCODING 12995
SWIDTH 990 0
DWIDTH 11 0
BBX 0 0 0 0
BITMAP
ENDCHAR
STARTCHAR 32C4
ENCODING 12996
SWIDTH 990 0
DWIDTH 11 0
BBX 0 0 0 0
BITMAP
ENDCHAR
STARTCHAR 32C5
ENCODING 12997
SWIDTH 990 0
DWIDTH 11 0
BBX 0 0 0 0
BITMAP
ENDCHAR
STARTCHAR 32C6
ENCODING 12998
SWIDTH 990 0
DWIDTH 11 0
BBX 0 0 0 0
BITMAP
ENDCHAR
STARTCHAR 32C7
ENCODING 12999
SWIDTH 990 0
DWIDTH 11 0
BBX 0 0 0 0
BITMAP
ENDCHAR
STARTCHAR 32C8
ENCODING 13000
SWIDTH 990 0
DWIDTH 11 0
BBX 0 0 0 0
BITMAP
ENDCHAR
STARTCHAR 32C9
ENCODING 13001
SWIDTH 990 0
DWIDTH 11 0
BBX 0 0 0 0
BITMAP
ENDCHAR
STARTCHAR 32CA
ENCODING 13002
SWIDTH 990 0
DWIDTH 11 0
BBX 0 0 0 0
BITMAP
ENDCHAR
STARTCHAR 32CB
ENCODING 13003
SWIDTH 990 0
DWIDTH 11 0
BBX 0 0 0 0
BITMAP
ENDCHAR
STARTCHAR 32D0
ENCODING 13008
SWIDTH 990 0
DWIDTH 11 0
BBX 0 0 0 0
BITMAP
ENDCHAR
STARTCHAR 32D1
ENCODING 13009
SWIDTH 990 0
DWIDTH 11 0
BBX 0 0 0 0
BITMAP
ENDCHAR
STARTCHAR 32D2
ENCODING 13010
SWIDTH 990 0
DWIDTH 11 0
BBX 0 0 0 0
BITMAP
ENDCHAR
STARTCHAR 32D3
ENCODING 13011
SWIDTH 990 0
DWIDTH 11 0
BBX 0 0 0 0
BITMAP
ENDCHAR
STARTCHAR 32D4
ENCODING 13012
SWIDTH 990 0
DWIDTH 11 0
BBX 0 0 0 0
BITMAP
ENDCHAR
STARTCHAR 32D5
ENCODING 13013
SWIDTH 990 0
DWIDTH 11 0
BBX 0 0 0 0
BITMAP
ENDCHAR
STARTCHAR 32D6
ENCODING 13014
SWIDTH 990 0
DWIDTH 11 0
BBX 0 0 0 0
BITMAP
ENDCHAR
STARTCHAR 32D7
ENCODING 13015
SWIDTH 990 0
DWIDTH 11 0
BBX 0 0 0 0
BITMAP
ENDCHAR
STARTCHAR 32D8
ENCODING 13016
SWIDTH 990 0
DWIDTH 11 0
BBX 0 0 0 0
BITMAP
ENDCHAR
STARTCHAR 32D9
ENCODING 13017
SWIDTH 990 0
DWIDTH 11 0
BBX 0 0 0 0
BITMAP
ENDCHAR
STARTCHAR 32DA
ENCODING 13018
SWIDTH 990 0
DWIDTH 11 0
BBX 0 0 0 0
BITMAP
ENDCHAR
STARTCHAR 32DB
ENCODING 13019
SWIDTH 990 0
DWIDTH 11 0
BBX 0 0 0 0
BITMAP
ENDCHAR
STARTCHAR 32DC
ENCODING 13020
SWIDTH 990 0
DWIDTH 11 0
BBX 0 0 0 0
BITMAP
ENDCHAR
STARTCHAR 32DD
ENCODING 13021
SWIDTH 990 0
DWIDTH 11 0
BBX 0 0 0 0
BITMAP
ENDCHAR
STARTCHAR 32DE
ENCODING 13022
SWIDTH 990 0
DWIDTH 11 0
BBX 0 0 0 0
BITMAP
ENDCHAR
STARTCHAR 32DF
ENCODING 13023
SWIDTH 990 0
DWIDTH 11 0
BBX 0 0 0 0
BITMAP
ENDCHAR
STARTCHAR 32E0
ENCODING 13024
SWIDTH 990 0
DWIDTH 11 0
BBX 0 0 0 0
BITMAP
ENDCHAR
STARTCHAR 32E1
ENCODING 13025
SWIDTH 990 0
DWIDTH 11 0
BBX 0 0 0 0
BITMAP
ENDCHAR
STARTCHAR 32E2
ENCODING 13026
SWIDTH 990 0
DWIDTH 11 0
BBX 0 0 0 0
BITMAP
ENDCHAR
STARTCHAR 32E3
ENCODING 13027
SWIDTH 990 0
DWIDTH 11 0
BBX 0 0 0 0
BITMAP
ENDCHAR
STARTCHAR 32E4
ENCODING 13028
SWIDTH 990 0
DWIDTH 11 0
BBX 0 0 0 0
BITMAP
ENDCHAR
STARTCHAR 32E5
ENCODING 13029
SWIDTH 990 0
DWIDTH 11 0
BBX 0 0 0 0
BITMAP
ENDCHAR
STARTCHAR 32E6
ENCODING 13030
SWIDTH 990 0
DWIDTH 11 0
BBX 0 0 0 0
BITMAP
ENDCHAR
STARTCHAR 32E7
ENCODING 13031
SWIDTH 990 0
DWIDTH 11 0
BBX 0 0 0 0
BITMAP
ENDCHAR
STARTCHAR 32E8
ENCODING 13032
SWIDTH 990 0
DWIDTH 11 0
BBX 0 0 0 0
BITMAP
ENDCHAR
STARTCHAR 32E9
ENCODING 13033
SWIDTH 990 0
DWIDTH 11 0
BBX 0 0 0 0
BITMAP
ENDCHAR
STARTCHAR 32EA
ENCODING 13034
SWIDTH 990 0
DWIDTH 11 0
BBX 0 0 0 0
BITMAP
ENDCHAR
STARTCHAR 32EB
ENCODING 13035
SWIDTH 990 0
DWIDTH 11 0
BBX 0 0 0 0
BITMAP
ENDCHAR
STARTCHAR 32EC
ENCODING 13036
SWIDTH 990 0
DWIDTH 11 0
BBX 0 0 0 0
BITMAP
ENDCHAR
STARTCHAR 32ED
ENCODING 13037
SWIDTH 990 0
DWIDTH 11 0
BBX 0 0 0 0
BITMAP
ENDCHAR
STARTCHAR 32EE
ENCODING 13038
SWIDTH 990 0
DWIDTH 11 0
BBX 0 0 0 0
BITMAP
ENDCHAR
STARTCHAR 32EF
ENCODING 13039
SWIDTH 990 0
DWIDTH 11 0
BBX 0 0 0 0
BITMAP
ENDCHAR
STARTCHAR 32F0
ENCODING 13040
SWIDTH 990 0
DWIDTH 11 0
BBX 0 0 0 0
BITMAP
ENDCHAR
STARTCHAR 32F1
ENCODING 13041
SWIDTH 990 0
DWIDTH 11 0
BBX 0 0 0 0
BITMAP
ENDCHAR
STARTCHAR 32F2
ENCODING 13042
SWIDTH 990 0
DWIDTH 11 0
BBX 0 0 0 0
BITMAP
ENDCHAR
STARTCHAR 32F3
ENCODING 13043
SWIDTH 990 0
DWIDTH 11 0
BBX 0 0 0 0
BITMAP
ENDCHAR
STARTCHAR 32F4
ENCODING 13044
SWIDTH 990 0
DWIDTH 11 0
BBX 0 0 0 0
BITMAP
ENDCHAR
STARTCHAR 32F5
ENCODING 13045
SWIDTH 990 0
DWIDTH 11 0
BBX 0 0 0 0
BITMAP
ENDCHAR
STARTCHAR 32F6
ENCODING 13046
SWIDTH 990 0
DWIDTH 11 0
BBX 0 0 0 0
BITMAP
ENDCHAR
STARTCHAR 32F7
ENCODING 13047
SWIDTH 990 0
DWIDTH 11 0
BBX 0 0 0 0
BITMAP
ENDCHAR
STARTCHAR 32F8
ENCODING 13048
SWIDTH 990 0
DWIDTH 11 0
BBX 0 0 0 0
BITMAP
ENDCHAR
STARTCHAR 32F9
ENCODING 13049
SWIDTH 990 0
DWIDTH 11 0
BBX 0 0 0 0
BITMAP
ENDCHAR
STARTCHAR 32FA
ENCODING 13050
SWIDTH 990 0
DWIDTH 11 0
BBX 0 0 0 0
BITMAP
ENDCHAR
STARTCHAR 32FB
ENCODING 13051
SWIDTH 990 0
DWIDTH 11 0
BBX 0 0 0 0
BITMAP
ENDCHAR
STARTCHAR 32FC
ENCODING 13052
SWIDTH 990 0
DWIDTH 11 0
BBX 0 0 0 0
BITMAP
ENDCHAR
STARTCHAR 32FD
ENCODING 13053
SWIDTH 990 0
DWIDTH 11 0
BBX 0 0 0 0
BITMAP
ENDCHAR
STARTCHAR 32FE
ENCODING 13054
SWIDTH 990 0
DWIDTH 11 0
BBX 0 0 0 0
BITMAP
ENDCHAR
STARTCHAR 3300
ENCODING 13056
SWIDTH 990 0
DWIDTH 11 0
BBX 0 0 0 0
BITMAP
ENDCHAR
STARTCHAR 3301
ENCODING 13057
SWIDTH 990 0
DWIDTH 11 0
BBX 0 0 0 0
BITMAP
ENDCHAR
STARTCHAR 3302
ENCODING 13058
SWIDTH 990 0
DWIDTH 11 0
BBX 0 0 0 0
BITMAP
ENDCHAR
STARTCHAR 3303
ENCODING 13059
SWIDTH 990 0
DWIDTH 11 0
BBX 0 0 0 0
BITMAP
ENDCHAR
STARTCHAR 3304
ENCODING 13060
SWIDTH 990 0
DWIDTH 11 0
BBX 0 0 0 0
BITMAP
ENDCHAR
STARTCHAR 3305
ENCODING 13061
SWIDTH 990 0
DWIDTH 11 0
BBX 0 0 0 0
BITMAP
ENDCHAR
STARTCHAR 3306
ENCODING 13062
SWIDTH 990 0
DWIDTH 11 0
BBX 0 0 0 0
BITMAP
ENDCHAR
STARTCHAR 3307
ENCODING 13063
SWIDTH 990 0
DWIDTH 11 0
BBX 0 0 0 0
BITMAP
ENDCHAR
STARTCHAR 3308
ENCODING 13064
SWIDTH 990 0
DWIDTH 11 0
BBX 0 0 0 0
BITMAP
ENDCHAR
STARTCHAR 3309
ENCODING 13065
SWIDTH 990 0
DWIDTH 11 0
BBX 0 0 0 0
BITMAP
ENDCHAR
STARTCHAR 330A
ENCODING 13066
SWIDTH 990 0
DWIDTH 11 0
BBX 0 0 0 0
BITMAP
ENDCHAR
STARTCHAR 330B
ENCODING 13067
SWIDTH 990 0
DWIDTH 11 0
BBX 0 0 0 0
BITMAP
ENDCHAR
STARTCHAR 330C
ENCODING 13068
SWIDTH 990 0
DWIDTH 11 0
BBX 0 0 0 0
BITMAP
ENDCHAR
STARTCHAR 330D
ENCODING 13069
SWIDTH 990 0
DWIDTH 11 0
BBX 0 0 0 0
BITMAP
ENDCHAR
STARTCHAR 330E
ENCODING 13070
SWIDTH 990 0
DWIDTH 11 0
BBX 0 0 0 0
BITMAP
ENDCHAR
STARTCHAR 330F
ENCODING 13071
SWIDTH 990 0
DWIDTH 11 0
BBX 0 0 0 0
BITMAP
ENDCHAR
STARTCHAR 3310
ENCODING 13072
SWIDTH 990 0
DWIDTH 11 0
BBX 0 0 0 0
BITMAP
ENDCHAR
STARTCHAR 3311
ENCODING 13073
SWIDTH 990 0
DWIDTH 11 0
BBX 0 0 0 0
BITMAP
ENDCHAR
STARTCHAR 3312
ENCODING 13074
SWIDTH 990 0
DWIDTH 11 0
BBX 0 0 0 0
BITMAP
ENDCHAR
STARTCHAR 3313
ENCODING 13075
SWIDTH 990 0
DWIDTH 11 0
BBX 0 0 0 0
BITMAP
ENDCHAR
STARTCHAR 3314
ENCODING 13076
SWIDTH 990 0
DWIDTH 11 0
BBX 0 0 0 0
BITMAP
ENDCHAR
STARTCHAR 3315
ENCODING 13077
SWIDTH 990 0
DWIDTH 11 0
BBX 0 0 0 0
BITMAP
ENDCHAR
STARTCHAR 3316
ENCODING 13078
SWIDTH 990 0
DWIDTH 11 0
BBX 0 0 0 0
BITMAP
ENDCHAR
STARTCHAR 3317
ENCODING 13079
SWIDTH 990 0
DWIDTH 11 0
BBX 0 0 0 0
BITMAP
ENDCHAR
STARTCHAR 3318
ENCODING 13080
SWIDTH 990 0
DWIDTH 11 0
BBX 0 0 0 0
BITMAP
ENDCHAR
STARTCHAR 3319
ENCODING 13081
SWIDTH 990 0
DWIDTH 11 0
BBX 0 0 0 0
BITMAP
ENDCHAR
STARTCHAR 331A
ENCODING 13082
SWIDTH 990 0
DWIDTH 11 0
BBX 0 0 0 0
BITMAP
ENDCHAR
STARTCHAR 331B
ENCODING 13083
SWIDTH 990 0
DWIDTH 11 0
BBX 0 0 0 0
BITMAP
ENDCHAR
STARTCHAR 331C
ENCODING 13084
SWIDTH 990 0
DWIDTH 11 0
BBX 0 0 0 0
BITMAP
ENDCHAR
STARTCHAR 331D
ENCODING 13085
SWIDTH 990 0
DWIDTH 11 0
BBX 0 0 0 0
BITMAP
ENDCHAR
STARTCHAR 331E
ENCODING 13086
SWIDTH 990 0
DWIDTH 11 0
BBX 0 0 0 0
BITMAP
ENDCHAR
STARTCHAR 331F
ENCODING 13087
SWIDTH 990 0
DWIDTH 11 0
BBX 0 0 0 0
BITMAP
ENDCHAR
STARTCHAR 3320
ENCODING 13088
SWIDTH 990 0
DWIDTH 11 0
BBX 0 0 0 0
BITMAP
ENDCHAR
STARTCHAR 3321
ENCODING 13089
SWIDTH 990 0
DWIDTH 11 0
BBX 0 0 0 0
BITMAP
ENDCHAR
STARTCHAR 3322
ENCODING 13090
SWIDTH 990 0
DWIDTH 11 0
BBX 0 0 0 0
BITMAP
ENDCHAR
STARTCHAR 3323
ENCODING 13091
SWIDTH 990 0
DWIDTH 11 0
BBX 0 0 0 0
BITMAP
ENDCHAR
STARTCHAR 3324
ENCODING 13092
SWIDTH 990 0
DWIDTH 11 0
BBX 0 0 0 0
BITMAP
ENDCHAR
STARTCHAR 3325
ENCODING 13093
SWIDTH 990 0
DWIDTH 11 0
BBX 0 0 0 0
BITMAP
ENDCHAR
STARTCHAR 3326
ENCODING 13094
SWIDTH 990 0
DWIDTH 11 0
BBX 0 0 0 0
BITMAP
ENDCHAR
STARTCHAR 3327
ENCODING 13095
SWIDTH 990 0
DWIDTH 11 0
BBX 0 0 0 0
BITMAP
ENDCHAR
STARTCHAR 3328
ENCODING 13096
SWIDTH 990 0
DWIDTH 11 0
BBX 0 0 0 0
BITMAP
ENDCHAR
STARTCHAR 3329
ENCODING 13097
SWIDTH 990 0
DWIDTH 11 0
BBX 0 0 0 0
BITMAP
ENDCHAR
STARTCHAR 332A
ENCODING 13098
SWIDTH 990 0
DWIDTH 11 0
BBX 0 0 0 0
BITMAP
ENDCHAR
STARTCHAR 332B
ENCODING 13099
SWIDTH 990 0
DWIDTH 11 0
BBX 0 0 0 0
BITMAP
ENDCHAR
STARTCHAR 332C
ENCODING 13100
SWIDTH 990 0
DWIDTH 11 0
BBX 0 0 0 0
BITMAP
ENDCHAR
STARTCHAR 332D
ENCODING 13101
SWIDTH 990 0
DWIDTH 11 0
BBX 0 0 0 0
BITMAP
ENDCHAR
STARTCHAR 332E
ENCODING 13102
SWIDTH 990 0
DWIDTH 11 0
BBX 0 0 0 0
BITMAP
ENDCHAR
STARTCHAR 332F
ENCODING 13103
SWIDTH 990 0
DWIDTH 11 0
BBX 0 0 0 0
BITMAP
ENDCHAR
STARTCHAR 3330
ENCODING 13104
SWIDTH 990 0
DWIDTH 11 0
BBX 0 0 0 0
BITMAP
ENDCHAR
STARTCHAR 3331
ENCODING 13105
SWIDTH 990 0
DWIDTH 11 0
BBX 0 0 0 0
BITMAP
ENDCHAR
STARTCHAR 3332
ENCODING 13106
SWIDTH 990 0
DWIDTH 11 0
BBX 0 0 0 0
BITMAP
ENDCHAR
STARTCHAR 3333
ENCODING 13107
SWIDTH 990 0
DWIDTH 11 0
BBX 0 0 0 0
BITMAP
ENDCHAR
STARTCHAR 3334
ENCODING 13108
SWIDTH 990 0
DWIDTH 11 0
BBX 0 0 0 0
BITMAP
ENDCHAR
STARTCHAR 3335
ENCODING 13109
SWIDTH 990 0
DWIDTH 11 0
BBX 0 0 0 0
BITMAP
ENDCHAR
STARTCHAR 3336
ENCODING 13110
SWIDTH 990 0
DWIDTH 11 0
BBX 0 0 0 0
BITMAP
ENDCHAR
STARTCHAR 3337
ENCODING 13111
SWIDTH 990 0
DWIDTH 11 0
BBX 0 0 0 0
BITMAP
ENDCHAR
STARTCHAR 3338
ENCODING 13112
SWIDTH 990 0
DWIDTH 11 0
BBX 0 0 0 0
BITMAP
ENDCHAR
STARTCHAR 3339
ENCODING 13113
SWIDTH 990 0
DWIDTH 11 0
BBX 0 0 0 0
BITMAP
ENDCHAR
STARTCHAR 333A
ENCODING 13114
SWIDTH 990 0
DWIDTH 11 0
BBX 0 0 0 0
BITMAP
ENDCHAR
STARTCHAR 333B
ENCODING 13115
SWIDTH 990 0
DWIDTH 11 0
BBX 0 0 0 0
BITMAP
ENDCHAR
STARTCHAR 333C
ENCODING 13116
SWIDTH 990 0
DWIDTH 11 0
BBX 0 0 0 0
BITMAP
ENDCHAR
STARTCHAR 333D
ENCODING 13117
SWIDTH 990 0
DWIDTH 11 0
BBX 0 0 0 0
BITMAP
ENDCHAR
STARTCHAR 333E
ENCODING 13118
SWIDTH 990 0
DWIDTH 11 0
BBX 0 0 0 0
BITMAP
ENDCHAR
STARTCHAR 333F
ENCODING 13119
SWIDTH 990 0
DWIDTH 11 0
BBX 0 0 0 0
BITMAP
ENDCHAR
STARTCHAR 3340
ENCODING 13120
SWIDTH 990 0
DWIDTH 11 0
BBX 0 0 0 0
BITMAP
ENDCHAR
STARTCHAR 3341
ENCODING 13121
SWIDTH 990 0
DWIDTH 11 0
BBX 0 0 0 0
BITMAP
ENDCHAR
STARTCHAR 3342
ENCODING 13122
SWIDTH 990 0
DWIDTH 11 0
BBX 0 0 0 0
BITMAP
ENDCHAR
STARTCHAR 3343
ENCODING 13123
SWIDTH 990 0
DWIDTH 11 0
BBX 0 0 0 0
BITMAP
ENDCHAR
STARTCHAR 3344
ENCODING 13124
SWIDTH 990 0
DWIDTH 11 0
BBX 0 0 0 0
BITMAP
ENDCHAR
STARTCHAR 3345
ENCODING 13125
SWIDTH 990 0
DWIDTH 11 0
BBX 0 0 0 0
BITMAP
ENDCHAR
STARTCHAR 3346
ENCODING 13126
SWIDTH 990 0
DWIDTH 11 0
BBX 0 0 0 0
BITMAP
ENDCHAR
STARTCHAR 3347
ENCODING 13127
SWIDTH 990 0
DWIDTH 11 0
BBX 0 0 0 0
BITMAP
ENDCHAR
STARTCHAR 3348
ENCODING 13128
SWIDTH 990 0
DWIDTH 11 0
BBX 0 0 0 0
BITMAP
ENDCHAR
STARTCHAR 3349
ENCODING 13129
SWIDTH 990 0
DWIDTH 11 0
BBX 0 0 0 0
BITMAP
ENDCHAR
STARTCHAR 334A
ENCODING 13130
SWIDTH 990 0
DWIDTH 11 0
BBX 0 0 0 0
BITMAP
ENDCHAR
STARTCHAR 334B
ENCODING 13131
SWIDTH 990 0
DWIDTH 11 0
BBX 0 0 0 0
BITMAP
ENDCHAR
STARTCHAR 334C
ENCODING 13132
SWIDTH 990 0
DWIDTH 11 0
BBX 0 0 0 0
BITMAP
ENDCHAR
STARTCHAR 334D
ENCODING 13133
SWIDTH 990 0
DWIDTH 11 0
BBX 0 0 0 0
BITMAP
ENDCHAR
STARTCHAR 334E
ENCODING 13134
SWIDTH 990 0
DWIDTH 11 0
BBX 0 0 0 0
BITMAP
ENDCHAR
STARTCHAR 334F
ENCODING 13135
SWIDTH 990 0
DWIDTH 11 0
BBX 0 0 0 0
BITMAP
ENDCHAR
STARTCHAR 3350
ENCODING 13136
SWIDTH 990 0
DWIDTH 11 0
BBX 0 0 0 0
BITMAP
ENDCHAR
STARTCHAR 3351
ENCODING 13137
SWIDTH 990 0
DWIDTH 11 0
BBX 0 0 0 0
BITMAP
ENDCHAR
STARTCHAR 3352
ENCODING 13138
SWIDTH 990 0
DWIDTH 11 0
BBX 0 0 0 0
BITMAP
ENDCHAR
STARTCHAR 3353
ENCODING 13139
SWIDTH 990 0
DWIDTH 11 0
BBX 0 0 0 0
BITMAP
ENDCHAR
STARTCHAR 3354
ENCODING 13140
SWIDTH 990 0
DWIDTH 11 0
BBX 0 0 0 0
BITMAP
ENDCHAR
STARTCHAR 3355
ENCODING 13141
SWIDTH 990 0
DWIDTH 11 0
BBX 0 0 0 0
BITMAP
ENDCHAR
STARTCHAR 3356
ENCODING 13142
SWIDTH 990 0
DWIDTH 11 0
BBX 0 0 0 0
BITMAP
ENDCHAR
STARTCHAR 3357
ENCODING 13143
SWIDTH 990 0
DWIDTH 11 0
BBX 0 0 0 0
BITMAP
ENDCHAR
STARTCHAR 3358
ENCODING 13144
SWIDTH 990 0
DWIDTH 11 0
BBX 0 0 0 0
BITMAP
ENDCHAR
STARTCHAR 3359
ENCODING 13145
SWIDTH 990 0
DWIDTH 11 0
BBX 0 0 0 0
BITMAP
ENDCHAR
STARTCHAR 335A
ENCODING 13146
SWIDTH 990 0
DWIDTH 11 0
BBX 0 0 0 0
BITMAP
ENDCHAR
STARTCHAR 335B
ENCODING 13147
SWIDTH 990 0
DWIDTH 11 0
BBX 0 0 0 0
BITMAP
ENDCHAR
STARTCHAR 335C
ENCODING 13148
SWIDTH 990 0
DWIDTH 11 0
BBX 0 0 0 0
BITMAP
ENDCHAR
STARTCHAR 335D
ENCODING 13149
SWIDTH 990 0
DWIDTH 11 0
BBX 0 0 0 0
BITMAP
ENDCHAR
STARTCHAR 335E
ENCODING 13150
SWIDTH 990 0
DWIDTH 11 0
BBX 0 0 0 0
BITMAP
ENDCHAR
STARTCHAR 335F
ENCODING 13151
SWIDTH 990 0
DWIDTH 11 0
BBX 0 0 0 0
BITMAP
ENDCHAR
STARTCHAR 3360
ENCODING 13152
SWIDTH 990 0
DWIDTH 11 0
BBX 0 0 0 0
BITMAP
ENDCHAR
STARTCHAR 3361
ENCODING 13153
SWIDTH 990 0
DWIDTH 11 0
BBX 0 0 0 0
BITMAP
ENDCHAR
STARTCHAR 3362
ENCODING 13154
SWIDTH 990 0
DWIDTH 11 0
BBX 0 0 0 0
BITMAP
ENDCHAR
STARTCHAR 3363
ENCODING 13155
SWIDTH 990 0
DWIDTH 11 0
BBX 0 0 0 0
BITMAP
ENDCHAR
STARTCHAR 3364
ENCODING 13156
SWIDTH 990 0
DWIDTH 11 0
BBX 0 0 0 0
BITMAP
ENDCHAR
STARTCHAR 3365
ENCODING 13157
SWIDTH 990 0
DWIDTH 11 0
BBX 0 0 0 0
BITMAP
ENDCHAR
STARTCHAR 3366
ENCODING 13158
SWIDTH 990 0
DWIDTH 11 0
BBX 0 0 0 0
BITMAP
ENDCHAR
STARTCHAR 3367
ENCODING 13159
SWIDTH 990 0
DWIDTH 11 0
BBX 0 0 0 0
BITMAP
ENDCHAR
STARTCHAR 3368
ENCODING 13160
SWIDTH 990 0
DWIDTH 11 0
BBX 0 0 0 0
BITMAP
ENDCHAR
STARTCHAR 3369
ENCODING 13161
SWIDTH 990 0
DWIDTH 11 0
BBX 0 0 0 0
BITMAP
ENDCHAR
STARTCHAR 336A
ENCODING 13162
SWIDTH 990 0
DWIDTH 11 0
BBX 0 0 0 0
BITMAP
ENDCHAR
STARTCHAR 336B
ENCODING 13163
SWIDTH 990 0
DWIDTH 11 0
BBX 0 0 0 0
BITMAP
ENDCHAR
STARTCHAR 336C
ENCODING 13164
SWIDTH 990 0
DWIDTH 11 0
BBX 0 0 0 0
BITMAP
ENDCHAR
STARTCHAR 336D
ENCODING 13165
SWIDTH 990 0
DWIDTH 11 0
BBX 0 0 0 0
BITMAP
ENDCHAR
STARTCHAR 336E
ENCODING 13166
SWIDTH 990 0
DWIDTH 11 0
BBX 0 0 0 0
BITMAP
ENDCHAR
STARTCHAR 336F
ENCODING 13167
SWIDTH 990 0
DWIDTH 11 0
BBX 0 0 0 0
BITMAP
ENDCHAR
STARTCHAR 3370
ENCODING 13168
SWIDTH 990 0
DWIDTH 11 0
BBX 0 0 0 0
BITMAP
ENDCHAR
STARTCHAR 3371
ENCODING 13169
SWIDTH 990 0
DWIDTH 11 0
BBX 0 0 0 0
BITMAP
ENDCHAR
STARTCHAR 3372
ENCODING 13170
SWIDTH 990 0
DWIDTH 11 0
BBX 0 0 0 0
BITMAP
ENDCHAR
STARTCHAR 3373
ENCODING 13171
SWIDTH 990 0
DWIDTH 11 0
BBX 0 0 0 0
BITMAP
ENDCHAR
STARTCHAR 3374
ENCODING 13172
SWIDTH 990 0
DWIDTH 11 0
BBX 0 0 0 0
BITMAP
ENDCHAR
STARTCHAR 3375
ENCODING 13173
SWIDTH 990 0
DWIDTH 11 0
BBX 0 0 0 0
BITMAP
ENDCHAR
STARTCHAR 3376
ENCODING 13174
SWIDTH 990 0
DWIDTH 11 0
BBX 0 0 0 0
BITMAP
ENDCHAR
STARTCHAR 337B
ENCODING 13179
SWIDTH 990 0
DWIDTH 11 0
BBX 0 0 0 0
BITMAP
ENDCHAR
STARTCHAR 337C
ENCODING 13180
SWIDTH 990 0
DWIDTH 11 0
BBX 0 0 0 0
BITMAP
ENDCHAR
STARTCHAR 337D
ENCODING 13181
SWIDTH 990 0
DWIDTH 11 0
BBX 0 0 0 0
BITMAP
ENDCHAR
STARTCHAR 337E
ENCODING 13182
SWIDTH 990 0
DWIDTH 11 0
BBX 0 0 0 0
BITMAP
ENDCHAR
STARTCHAR 337F
ENCODING 13183
SWIDTH 990 0
DWIDTH 11 0
BBX 0 0 0 0
BITMAP
ENDCHAR
STARTCHAR 3380
ENCODING 13184
SWIDTH 990 0
DWIDTH 11 0
BBX 0 0 0 0
BITMAP
ENDCHAR
STARTCHAR 3381
ENCODING 13185
SWIDTH 990 0
DWIDTH 11 0
BBX 0 0 0 0
BITMAP
ENDCHAR
STARTCHAR 3382
ENCODING 13186
SWIDTH 990 0
DWIDTH 11 0
BBX 0 0 0 0
BITMAP
ENDCHAR
STARTCHAR 3383
ENCODING 13187
SWIDTH 990 0
DWIDTH 11 0
BBX 0 0 0 0
BITMAP
ENDCHAR
STARTCHAR 3384
ENCODING 13188
SWIDTH 990 0
DWIDTH 11 0
BBX 0 0 0 0
BITMAP
ENDCHAR
STARTCHAR 3385
ENCODING 13189
SWIDTH 990 0
DWIDTH 11 0
BBX 0 0 0 0
BITMAP
ENDCHAR
STARTCHAR 3386
ENCODING 13190
SWIDTH 990 0
DWIDTH 11 0
BBX 0 0 0 0
BITMAP
ENDCHAR
STARTCHAR 3387
ENCODING 13191
SWIDTH 990 0
DWIDTH 11 0
BBX 0 0 0 0
BITMAP
ENDCHAR
STARTCHAR 3388
ENCODING 13192
SWIDTH 990 0
DWIDTH 11 0
BBX 0 0 0 0
BITMAP
ENDCHAR
STARTCHAR 3389
ENCODING 13193
SWIDTH 990 0
DWIDTH 11 0
BBX 0 0 0 0
BITMAP
ENDCHAR
STARTCHAR 338A
ENCODING 13194
SWIDTH 990 0
DWIDTH 11 0
BBX 0 0 0 0
BITMAP
ENDCHAR
STARTCHAR 338B
ENCODING 13195
SWIDTH 990 0
DWIDTH 11 0
BBX 0 0 0 0
BITMAP
ENDCHAR
STARTCHAR 338C
ENCODING 13196
SWIDTH 990 0
DWIDTH 11 0
BBX 0 0 0 0
BITMAP
ENDCHAR
STARTCHAR 338D
ENCODING 13197
SWIDTH 990 0
DWIDTH 11 0
BBX 0 0 0 0
BITMAP
ENDCHAR
STARTCHAR 338E
ENCODING 13198
SWIDTH 990 0
DWIDTH 11 0
BBX 0 0 0 0
BITMAP
ENDCHAR
STARTCHAR 338F
ENCODING 13199
SWIDTH 990 0
DWIDTH 11 0
BBX 0 0 0 0
BITMAP
ENDCHAR
STARTCHAR 3390
ENCODING 13200
SWIDTH 990 0
DWIDTH 11 0
BBX 0 0 0 0
BITMAP
ENDCHAR
STARTCHAR 3391
ENCODING 13201
SWIDTH 990 0
DWIDTH 11 0
BBX 0 0 0 0
BITMAP
ENDCHAR
STARTCHAR 3392
ENCODING 13202
SWIDTH 990 0
DWIDTH 11 0
BBX 0 0 0 0
BITMAP
ENDCHAR
STARTCHAR 3393
ENCODING 13203
SWIDTH 990 0
DWIDTH 11 0
BBX 0 0 0 0
BITMAP
ENDCHAR
STARTCHAR 3394
ENCODING 13204
SWIDTH 990 0
DWIDTH 11 0
BBX 0 0 0 0
BITMAP
ENDCHAR
STARTCHAR 3395
ENCODING 13205
SWIDTH 990 0
DWIDTH 11 0
BBX 0 0 0 0
BITMAP
ENDCHAR
STARTCHAR 3396
ENCODING 13206
SWIDTH 990 0
DWIDTH 11 0
BBX 0 0 0 0
BITMAP
ENDCHAR
STARTCHAR 3397
ENCODING 13207
SWIDTH 990 0
DWIDTH 11 0
BBX 0 0 0 0
BITMAP
ENDCHAR
STARTCHAR 3398
ENCODING 13208
SWIDTH 990 0
DWIDTH 11 0
BBX 0 0 0 0
BITMAP
ENDCHAR
STARTCHAR 3399
ENCODING 13209
SWIDTH 990 0
DWIDTH 11 0
BBX 0 0 0 0
BITMAP
ENDCHAR
STARTCHAR 339A
ENCODING 13210
SWIDTH 990 0
DWIDTH 11 0
BBX 0 0 0 0
BITMAP
ENDCHAR
STARTCHAR 339B
ENCODING 13211
SWIDTH 990 0
DWIDTH 11 0
BBX 0 0 0 0
BITMAP
ENDCHAR
STARTCHAR 339C
ENCODING 13212
SWIDTH 990 0
DWIDTH 11 0
BBX 0 0 0 0
BITMAP
ENDCHAR
STARTCHAR 339D
ENCODING 13213
SWIDTH 990 0
DWIDTH 11 0
BBX 0 0 0 0
BITMAP
ENDCHAR
STARTCHAR 339E
ENCODING 13214
SWIDTH 990 0
DWIDTH 11 0
BBX 0 0 0 0
BITMAP
ENDCHAR
STARTCHAR 339F
ENCODING 13215
SWIDTH 990 0
DWIDTH 11 0
BBX 0 0 0 0
BITMAP
ENDCHAR
STARTCHAR 33A0
ENCODING 13216
SWIDTH 990 0
DWIDTH 11 0
BBX 0 0 0 0
BITMAP
ENDCHAR
STARTCHAR 33A1
ENCODING 13217
SWIDTH 990 0
DWIDTH 11 0
BBX 0 0 0 0
BITMAP
ENDCHAR
STARTCHAR 33A2
ENCODING 13218
SWIDTH 990 0
DWIDTH 11 0
BBX 0 0 0 0
BITMAP
ENDCHAR
STARTCHAR 33A3
ENCODING 13219
SWIDTH 990 0
DWIDTH 11 0
BBX 0 0 0 0
BITMAP
ENDCHAR
STARTCHAR 33A4
ENCODING 13220
SWIDTH 990 0
DWIDTH 11 0
BBX 0 0 0 0
BITMAP
ENDCHAR
STARTCHAR 33A5
ENCODING 13221
SWIDTH 990 0
DWIDTH 11 0
BBX 0 0 0 0
BITMAP
ENDCHAR
STARTCHAR 33A6
ENCODING 13222
SWIDTH 990 0
DWIDTH 11 0
BBX 0 0 0 0
BITMAP
ENDCHAR
STARTCHAR 33A7
ENCODING 13223
SWIDTH 990 0
DWIDTH 11 0
BBX 0 0 0 0
BITMAP
ENDCHAR
STARTCHAR 33A8
ENCODING 13224
SWIDTH 990 0
DWIDTH 11 0
BBX 0 0 0 0
BITMAP
ENDCHAR
STARTCHAR 33A9
ENCODING 13225
SWIDTH 990 0
DWIDTH 11 0
BBX 0 0 0 0
BITMAP
ENDCHAR
STARTCHAR 33AA
ENCODING 13226
SWIDTH 990 0
DWIDTH 11 0
BBX 0 0 0 0
BITMAP
ENDCHAR
STARTCHAR 33AB
ENCODING 13227
SWIDTH 990 0
DWIDTH 11 0
BBX 0 0 0 0
BITMAP
ENDCHAR
STARTCHAR 33AC
ENCODING 13228
SWIDTH 990 0
DWIDTH 11 0
BBX 0 0 0 0
BITMAP
ENDCHAR
STARTCHAR 33AD
ENCODING 13229
SWIDTH 990 0
DWIDTH 11 0
BBX 0 0 0 0
BITMAP
ENDCHAR
STARTCHAR 33AE
ENCODING 13230
SWIDTH 990 0
DWIDTH 11 0
BBX 0 0 0 0
BITMAP
ENDCHAR
STARTCHAR 33AF
ENCODING 13231
SWIDTH 990 0
DWIDTH 11 0
BBX 0 0 0 0
BITMAP
ENDCHAR
STARTCHAR 33B0
ENCODING 13232
SWIDTH 990 0
DWIDTH 11 0
BBX 0 0 0 0
BITMAP
ENDCHAR
STARTCHAR 33B1
ENCODING 13233
SWIDTH 990 0
DWIDTH 11 0
BBX 0 0 0 0
BITMAP
ENDCHAR
STARTCHAR 33B2
ENCODING 13234
SWIDTH 990 0
DWIDTH 11 0
BBX 0 0 0 0
BITMAP
ENDCHAR
STARTCHAR 33B3
ENCODING 13235
SWIDTH 990 0
DWIDTH 11 0
BBX 0 0 0 0
BITMAP
ENDCHAR
STARTCHAR 33B4
ENCODING 13236
SWIDTH 990 0
DWIDTH 11 0
BBX 0 0 0 0
BITMAP
ENDCHAR
STARTCHAR 33B5
ENCODING 13237
SWIDTH 990 0
DWIDTH 11 0
BBX 0 0 0 0
BITMAP
ENDCHAR
STARTCHAR 33B6
ENCODING 13238
SWIDTH 990 0
DWIDTH 11 0
BBX 0 0 0 0
BITMAP
ENDCHAR
STARTCHAR 33B7
ENCODING 13239
SWIDTH 990 0
DWIDTH 11 0
BBX 0 0 0 0
BITMAP
ENDCHAR
STARTCHAR 33B8
ENCODING 13240
SWIDTH 990 0
DWIDTH 11 0
BBX 0 0 0 0
BITMAP
ENDCHAR
STARTCHAR 33B9
ENCODING 13241
SWIDTH 990 0
DWIDTH 11 0
BBX 0 0 0 0
BITMAP
ENDCHAR
STARTCHAR 33BA
ENCODING 13242
SWIDTH 990 0
DWIDTH 11 0
BBX 0 0 0 0
BITMAP
ENDCHAR
STARTCHAR 33BB
ENCODING 13243
SWIDTH 990 0
DWIDTH 11 0
BBX 0 0 0 0
BITMAP
ENDCHAR
STARTCHAR 33BC
ENCODING 13244
SWIDTH 990 0
DWIDTH 11 0
BBX 0 0 0 0
BITMAP
ENDCHAR
STARTCHAR 33BD
ENCODING 13245
SWIDTH 990 0
DWIDTH 11 0
BBX 0 0 0 0
BITMAP
ENDCHAR
STARTCHAR 33BE
ENCODING 13246
SWIDTH 990 0
DWIDTH 11 0
BBX 0 0 0 0
BITMAP
ENDCHAR
STARTCHAR 33BF
ENCODING 13247
SWIDTH 990 0
DWIDTH 11 0
BBX 0 0 0 0
BITMAP
ENDCHAR
STARTCHAR 33C0
ENCODING 13248
SWIDTH 990 0
DWIDTH 11 0
BBX 0 0 0 0
BITMAP
ENDCHAR
STARTCHAR 33C1
ENCODING 13249
SWIDTH 990 0
DWIDTH 11 0
BBX 0 0 0 0
BITMAP
ENDCHAR
STARTCHAR 33C2
ENCODING 13250
SWIDTH 990 0
DWIDTH 11 0
BBX 0 0 0 0
BITMAP
ENDCHAR
STARTCHAR 33C3
ENCODING 13251
SWIDTH 990 0
DWIDTH 11 0
BBX 0 0 0 0
BITMAP
ENDCHAR
STARTCHAR 33C4
ENCODING 13252
SWIDTH 990 0
DWIDTH 11 0
BBX 0 0 0 0
BITMAP
ENDCHAR
STARTCHAR 33C5
ENCODING 13253
SWIDTH 990 0
DWIDTH 11 0
BBX 0 0 0 0
BITMAP
ENDCHAR
STARTCHAR 33C6
ENCODING 13254
SWIDTH 990 0
DWIDTH 11 0
BBX 0 0 0 0
BITMAP
ENDCHAR
STARTCHAR 33C7
ENCODING 13255
SWIDTH 990 0
DWIDTH 11 0
BBX 0 0 0 0
BITMAP
ENDCHAR
STARTCHAR 33C8
ENCODING 13256
SWIDTH 990 0
DWIDTH 11 0
BBX 0 0 0 0
BITMAP
ENDCHAR
STARTCHAR 33C9
ENCODING 13257
SWIDTH 990 0
DWIDTH 11 0
BBX 0 0 0 0
BITMAP
ENDCHAR
STARTCHAR 33CA
ENCODING 13258
SWIDTH 990 0
DWIDTH 11 0
BBX 0 0 0 0
BITMAP
ENDCHAR
STARTCHAR 33CB
ENCODING 13259
SWIDTH 990 0
DWIDTH 11 0
BBX 0 0 0 0
BITMAP
ENDCHAR
STARTCHAR 33CC
ENCODING 13260
SWIDTH 990 0
DWIDTH 11 0
BBX 0 0 0 0
BITMAP
ENDCHAR
STARTCHAR 33CD
ENCODING 13261
SWIDTH 990 0
DWIDTH 11 0
BBX 0 0 0 0
BITMAP
ENDCHAR
STARTCHAR 33CE
ENCODING 13262
SWIDTH 990 0
DWIDTH 11 0
BBX 0 0 0 0
BITMAP
ENDCHAR
STARTCHAR 33CF
ENCODING 13263
SWIDTH 990 0
DWIDTH 11 0
BBX 0 0 0 0
BITMAP
ENDCHAR
STARTCHAR 33D0
ENCODING 13264
SWIDTH 990 0
DWIDTH 11 0
BBX 0 0 0 0
BITMAP
ENDCHAR
STARTCHAR 33D1
ENCODING 13265
SWIDTH 990 0
DWIDTH 11 0
BBX 0 0 0 0
BITMAP
ENDCHAR
STARTCHAR 33D2
ENCODING 13266
SWIDTH 990 0
DWIDTH 11 0
BBX 0 0 0 0
BITMAP
ENDCHAR
STARTCHAR 33D3
ENCODING 13267
SWIDTH 990 0
DWIDTH 11 0
BBX 0 0 0 0
BITMAP
ENDCHAR
STARTCHAR 33D4
ENCODING 13268
SWIDTH 990 0
DWIDTH 11 0
BBX 0 0 0 0
BITMAP
ENDCHAR
STARTCHAR 33D5
ENCODING 13269
SWIDTH 990 0
DWIDTH 11 0
BBX 0 0 0 0
BITMAP
ENDCHAR
STARTCHAR 33D6
ENCODING 13270
SWIDTH 990 0
DWIDTH 11 0
BBX 0 0 0 0
BITMAP
ENDCHAR
STARTCHAR 33D7
ENCODING 13271
SWIDTH 990 0
DWIDTH 11 0
BBX 0 0 0 0
BITMAP
ENDCHAR
STARTCHAR 33D8
ENCODING 13272
SWIDTH 990 0
DWIDTH 11 0
BBX 0 0 0 0
BITMAP
ENDCHAR
STARTCHAR 33D9
ENCODING 13273
SWIDTH 990 0
DWIDTH 11 0
BBX 0 0 0 0
BITMAP
ENDCHAR
STARTCHAR 33DA
ENCODING 13274
SWIDTH 990 0
DWIDTH 11 0
BBX 0 0 0 0
BITMAP
ENDCHAR
STARTCHAR 33DB
ENCODING 13275
SWIDTH 990 0
DWIDTH 11 0
BBX 0 0 0 0
BITMAP
ENDCHAR
STARTCHAR 33DC
ENCODING 13276
SWIDTH 990 0
DWIDTH 11 0
BBX 0 0 0 0
BITMAP
ENDCHAR
STARTCHAR 33DD
ENCODING 13277
SWIDTH 990 0
DWIDTH 11 0
BBX 0 0 0 0
BITMAP
ENDCHAR
STARTCHAR 33E0
ENCODING 13280
SWIDTH 990 0
DWIDTH 11 0
BBX 0 0 0 0
BITMAP
ENDCHAR
STARTCHAR 33E1
ENCODING 13281
SWIDTH 990 0
DWIDTH 11 0
BBX 0 0 0 0
BITMAP
ENDCHAR
STARTCHAR 33E2
ENCODING 13282
SWIDTH 990 0
DWIDTH 11 0
BBX 0 0 0 0
BITMAP
ENDCHAR
STARTCHAR 33E3
ENCODING 13283
SWIDTH 990 0
DWIDTH 11 0
BBX 0 0 0 0
BITMAP
ENDCHAR
STARTCHAR 33E4
ENCODING 13284
SWIDTH 990 0
DWIDTH 11 0
BBX 0 0 0 0
BITMAP
ENDCHAR
STARTCHAR 33E5
ENCODING 13285
SWIDTH 990 0
DWIDTH 11 0
BBX 0 0 0 0
BITMAP
ENDCHAR
STARTCHAR 33E6
ENCODING 13286
SWIDTH 990 0
DWIDTH 11 0
BBX 0 0 0 0
BITMAP
ENDCHAR
STARTCHAR 33E7
ENCODING 13287
SWIDTH 990 0
DWIDTH 11 0
BBX 0 0 0 0
BITMAP
ENDCHAR
STARTCHAR 33E8
ENCODING 13288
SWIDTH 990 0
DWIDTH 11 0
BBX 0 0 0 0
BITMAP
ENDCHAR
STARTCHAR 33E9
ENCODING 13289
SWIDTH 990 0
DWIDTH 11 0
BBX 0 0 0 0
BITMAP
ENDCHAR
STARTCHAR 33EA
ENCODING 13290
SWIDTH 990 0
DWIDTH 11 0
BBX 0 0 0 0
BITMAP
ENDCHAR
STARTCHAR 33EB
ENCODING 13291
SWIDTH 990 0
DWIDTH 11 0
BBX 0 0 0 0
BITMAP
ENDCHAR
STARTCHAR 33EC
ENCODING 13292
SWIDTH 990 0
DWIDTH 11 0
BBX 0 0 0 0
BITMAP
ENDCHAR
STARTCHAR 33ED
ENCODING 13293
SWIDTH 990 0
DWIDTH 11 0
BBX 0 0 0 0
BITMAP
ENDCHAR
STARTCHAR 33EE
ENCODING 13294
SWIDTH 990 0
DWIDTH 11 0
BBX 0 0 0 0
BITMAP
ENDCHAR
STARTCHAR 33EF
ENCODING 13295
SWIDTH 990 0
DWIDTH 11 0
BBX 0 0 0 0
BITMAP
ENDCHAR
STARTCHAR 33F0
ENCODING 13296
SWIDTH 990 0
DWIDTH 11 0
BBX 0 0 0 0
BITMAP
ENDCHAR
STARTCHAR 33F1
ENCODING 13297
SWIDTH 990 0
DWIDTH 11 0
BBX 0 0 0 0
BITMAP
ENDCHAR
STARTCHAR 33F2
ENCODING 13298
SWIDTH 990 0
DWIDTH 11 0
BBX 0 0 0 0
BITMAP
ENDCHAR
STARTCHAR 33F3
ENCODING 13299
SWIDTH 990 0
DWIDTH 11 0
BBX 0 0 0 0
BITMAP
ENDCHAR
STARTCHAR 33F4
ENCODING 13300
SWIDTH 990 0
DWIDTH 11 0
BBX 0 0 0 0
BITMAP
ENDCHAR
STARTCHAR 33F5
ENCODING 13301
SWIDTH 990 0
DWIDTH 11 0
BBX 0 0 0 0
BITMAP
ENDCHAR
STARTCHAR 33F6
ENCODING 13302
SWIDTH 990 0
DWIDTH 11 0
BBX 0 0 0 0
BITMAP
ENDCHAR
STARTCHAR 33F7
ENCODING 13303
SWIDTH 990 0
DWIDTH 11 0
BBX 0 0 0 0
BITMAP
ENDCHAR
STARTCHAR 33F8
ENCODING 13304
SWIDTH 990 0
DWIDTH 11 0
BBX 0 0 0 0
BITMAP
ENDCHAR
STARTCHAR 33F9
ENCODING 13305
SWIDTH 990 0
DWIDTH 11 0
BBX 0 0 0 0
BITMAP
ENDCHAR
STARTCHAR 33FA
ENCODING 13306
SWIDTH 990 0
DWIDTH 11 0
BBX 0 0 0 0
BITMAP
ENDCHAR
STARTCHAR 33FB
ENCODING 13307
SWIDTH 990 0
DWIDTH 11 0
BBX 0 0 0 0
BITMAP
ENDCHAR
STARTCHAR 33FC
ENCODING 13308
SWIDTH 990 0
DWIDTH 11 0
BBX 0 0 0 0
BITMAP
ENDCHAR
STARTCHAR 33FD
ENCODING 13309
SWIDTH 990 0
DWIDTH 11 0
BBX 0 0 0 0
BITMAP
ENDCHAR
STARTCHAR 33FE
ENCODING 13310
SWIDTH 990 0
DWIDTH 11 0
BBX 0 0 0 0
BITMAP
ENDCHAR
STARTCHAR 4E00
ENCODING 19968
SWIDTH 900 0
DWIDTH 10 0
BBX 9 2 1 3
BITMAP
0100
FF80
ENDCHAR
STARTCHAR 4E01
ENCODING 19969
SWIDTH 900 0
DWIDTH 10 0
BBX 9 8 1 -1
BITMAP
FF80
0800
0800
0800
0800
0800
0800
1800
ENDCHAR
STARTCHAR 4E02
ENCODING 19970
SWIDTH 990 0
DWIDTH 11 0
BBX 9 10 1 -1
BITMAP
FF80
2000
4000
3E00
4200
0200
0200
0200
0200
0400
ENDCHAR
STARTCHAR 4E03
ENCODING 19971
SWIDTH 900 0
DWIDTH 10 0
BBX 9 9 1 -1
BITMAP
1000
1000
1380
1C00
F000
1000
1000
1080
1F80
ENDCHAR
STARTCHAR 4E04
ENCODING 19972
SWIDTH 990 0
DWIDTH 11 0
BBX 10 10 1 -1
BITMAP
0800
0800
0800
0800
0800
0800
0800
0800
0800
FFC0
ENDCHAR
STARTCHAR 4E05
ENCODING 19973
SWIDTH 990 0
DWIDTH 11 0
BBX 9 10 1 -1
BITMAP
FF80
0800
0800
0800
0800
0800
0800
0800
0800
0800
ENDCHAR
STARTCHAR 4E07
ENCODING 19975
SWIDTH 900 0
DWIDTH 10 0
BBX 9 8 1 -1
BITMAP
FF80
1000
1000
1F00
1100
2100
4100
8600
ENDCHAR
STARTCHAR 4E08
ENCODING 19976
SWIDTH 900 0
DWIDTH 10 0
BBX 9 9 1 -1
BITMAP
0400
0400
FF80
0400
2400
2800
1000
2C00
C380
ENDCHAR
STARTCHAR 4E09
ENCODING 19977
SWIDTH 900 0
DWIDTH 10 0
BBX 9 8 1 -1
BITMAP
7F00
0000
0000
3E00
0000
0000
0000
FF80
ENDCHAR
STARTCHAR 4E0A
ENCODING 19978
SWIDTH 900 0
DWIDTH 10 0
BBX 9 9 1 -1
BITMAP
0800
0800
0800
0F00
0800
0800
0800
0800
FF80
ENDCHAR
STARTCHAR 4E0B
ENCODING 19979
SWIDTH 900 0
DWIDTH 10 0
BBX 9 9 1 -1
BITMAP
FF80
0800
0800
0E00
0900
0800
0800
0800
0800
ENDCHAR
STARTCHAR 4E0C
ENCODING 19980
SWIDTH 990 0
DWIDTH 11 0
BBX 9 9 1 -1
BITMAP
FF80
2400
2400
2400
2400
2400
4400
4400
8400
ENDCHAR
STARTCHAR 4E0D
ENCODING 19981
SWIDTH 900 0
DWIDTH 10 0
BBX 9 9 1 -1
BITMAP
FF80
0400
0800
1A00
2900
C880
0800
0800
0800
ENDCHAR
STARTCHAR 4E0E
ENCODING 19982
SWIDTH 900 0
DWIDTH 10 0
BBX 9 9 1 -1
BITMAP
2000
3E00
2000
7E00
4200
0200
FF80
0200
0C00
ENDCHAR
STARTCHAR 4E10
ENCODING 19984
SWIDTH 900 0
DWIDTH 10 0
BBX 9 9 1 -1
BITMAP
FF80
0800
4F00
4800
4800
FF80
8080
0180
0600
ENDCHAR
STARTCHAR 4E11
ENCODING 19985
SWIDTH 900 0
DWIDTH 10 0
BBX 9 9 1 -1
BITMAP
7E00
1200
1200
1200
FF80
2200
2200
2200
FF80
ENDCHAR
STARTCHAR 4E12
ENCODING 19986
SWIDTH 990 0
DWIDTH 11 0
BBX 9 10 0 -1
BITMAP
7E00
0100
0500
2900
1900
1900
2500
4200
0000
FF80
ENDCHAR
STARTCHAR 4E14
ENCODING 19988
SWIDTH 900 0
DWIDTH 10 0
BBX 9 8 1 -1
BITMAP
3E00
2200
3E00
2200
3E00
2200
2200
FF80
ENDCHAR
STARTCHAR 4E15
ENCODING 19989
SWIDTH 900 0
DWIDTH 10 0
BBX 9 9 1 -1
BITMAP
FF80
0800
1A00
2900
C880
0800
0800
0000
FF80
ENDCHAR
STARTCHAR 4E16
ENCODING 19990
SWIDTH 900 0
DWIDTH 10 0
BBX 9 9 1 -1
BITMAP
4A00
4A00
FF80
4A00
4A00
4E00
4000
4000
7F00
ENDCHAR
STARTCHAR 4E17
ENCODING 19991
SWIDTH 900 0
DWIDTH 10 0
BBX 9 9 1 -1
BITMAP
2A00
2A00
2A00
FF80
2A00
2A00
2A00
2A00
3E00
ENDCHAR
STARTCHAR 4E18
ENCODING 19992
SWIDTH 900 0
DWIDTH 10 0
BBX 9 8 1 -1
BITMAP
0600
3800
2000
3F00
2400
2400
2400
FF80
ENDCHAR
STARTCHAR 4E19
ENCODING 19993
SWIDTH 900 0
DWIDTH 10 0
BBX 9 9 1 -1
BITMAP
FF80
0800
FF80
8880
9480
A280
C180
8080
8180
ENDCHAR
STARTCHAR 4E1E
ENCODING 19998
SWIDTH 900 0
DWIDTH 10 0
BBX 9 9 1 -1
BITMAP
7E00
0400
E980
2E00
2A00
4900
9880
0000
FF80
ENDCHAR
STARTCHAR 4E1F
ENCODING 19999
SWIDTH 990 0
DWIDTH 11 0
BBX 9 10 1 -1
BITMAP
FF80
0800
0800
7F00
0800
0800
F780
2000
2200
7D00
ENDCHAR
STARTCHAR 4E21
ENCODING 20001
SWIDTH 900 0
DWIDTH 10 0
BBX 9 9 1 -1
BITMAP
FF80
0800
FF80
8880
AA80
AA80
AA80
BE80
8180
ENDCHAR
STARTCHAR 4E23
ENCODING 20003
SWIDTH 990 0
DWIDTH 11 0
BBX 9 10 1 -1
BITMAP
FF80
2400
2400
2700
E480
A480
6700
2400
4400
8400
ENDCHAR
STARTCHAR 4E24
ENCODING 20004
SWIDTH 990 0
DWIDTH 11 0
BBX 9 10 1 -1
BITMAP
FF80
2400
2400
BF80
9480
AA80
8180
8080
8080
0100
ENDCHAR
STARTCHAR 4E26
ENCODING 20006
SWIDTH 900 0
DWIDTH 10 0
BBX 9 9 1 -1
BITMAP
4100
2200
FF80
1400
9480
5480
5500
1400
FF80
ENDCHAR
STARTCHAR 4E28
ENCODING 20008
SWIDTH 990 0
DWIDTH 11 0
BBX 1 10 5 -1
BITMAP
80
80
80
80
80
80
80
80
80
80
ENDCHAR
STARTCHAR 4E2A
ENCODING 20010
SWIDTH 900 0
DWIDTH 10 0
BBX 9 9 1 -1
BITMAP
0800
1400
2200
4900
8880
0800
0800
0800
0800
ENDCHAR
STARTCHAR 4E2B
ENCODING 20011
SWIDTH 990 0
DWIDTH 11 0
BBX 7 10 2 -1
BITMAP
82
44
28
10
10
10
10
10
10
10
ENDCHAR
STARTCHAR 4E2D
ENCODING 20013
SWIDTH 900 0
DWIDTH 10 0
BBX 9 9 1 -1
BITMAP
0800
0800
FF80
8880
8880
FF80
0800
0800
0800
ENDCHAR
STARTCHAR 4E2E
ENCODING 20014
SWIDTH 990 0
DWIDTH 11 0
BBX 10 10 1 -1
BITMAP
FC00
0200
2200
7E00
2100
2100
7D40
20C0
20C0
0040
ENDCHAR
STARTCHAR 4E2F
ENCODING 20015
SWIDTH 990 0
DWIDTH 11 0
BBX 10 9 1 0
BITMAP
0A00
1C00
6880
0B00
1C00
E840
0980
0E00
F000
ENDCHAR
STARTCHAR 4E30
ENCODING 20016
SWIDTH 990 0
DWIDTH 11 0
BBX 9 10 1 -1
BITMAP
0800
0800
FF80
0800
0800
3F00
0800
7F80
0800
0800
ENDCHAR
STARTCHAR 4E31
ENCODING 20017
SWIDTH 900 0
DWIDTH 10 0
BBX 8 9 1 -1
BITMAP
24
24
A5
A5
A5
A5
E7
44
84
ENDCHAR
STARTCHAR 4E32
ENCODING 20018
SWIDTH 900 0
DWIDTH 10 0
BBX 9 9 1 -1
BITMAP
0800
7F00
4900
7F00
0800
FF80
8880
FF80
0800
ENDCHAR
STARTCHAR 4E35
ENCODING 20021
SWIDTH 990 0
DWIDTH 11 0
BBX 10 10 1 -1
BITMAP
1400
5500
5500
EA80
2400
FFC0
0800
FF80
0800
0800
ENDCHAR
STARTCHAR 4E36
ENCODING 20022
SWIDTH 900 0
DWIDTH 10 0
BBX 2 3 4 2
BITMAP
80
40
40
ENDCHAR
STARTCHAR 4E38
ENCODING 20024
SWIDTH 900 0
DWIDTH 10 0
BBX 9 9 1 -1
BITMAP
1000
1000
7E00
1200
7200
1A00
1200
2280
C380
ENDCHAR
STARTCHAR 4E39
ENCODING 20025
SWIDTH 900 0
DWIDTH 10 0
BBX 9 9 1 -1
BITMAP
7F00
4100
4900
4500
FF80
4100
4100
4100
8300
ENDCHAR
STARTCHAR 4E3B
ENCODING 20027
SWIDTH 900 0
DWIDTH 10 0
BBX 9 9 1 -1
BITMAP
1000
0800
FF80
0800
0800
7F00
0800
0800
FF80
ENDCHAR
STARTCHAR 4E3C
ENCODING 20028
SWIDTH 900 0
DWIDTH 10 0
BBX 9 9 1 -1
BITMAP
2200
2200
FF80
2A00
2600
FF80
2200
4200
8200
ENDCHAR
STARTCHAR 4E3F
ENCODING 20031
SWIDTH 900 0
DWIDTH 10 0
BBX 4 9 3 -1
BITMAP
10
10
10
10
10
20
20
40
80
ENDCHAR
STARTCHAR 4E40
ENCODING 20032
SWIDTH 990 0
DWIDTH 11 0
BBX 10 10 0 -1
BITMAP
4000
6000
A000
2000
1000
0800
0400
0200
0100
00C0
ENDCHAR
STARTCHAR 4E41
ENCODING 20033
SWIDTH 990 0
DWIDTH 11 0
BBX 9 10 1 -1
BITMAP
F800
0800
0800
0800
0400
0400
0400
0200
0100
0080
ENDCHAR
STARTCHAR 4E42
ENCODING 20034
SWIDTH 900 0
DWIDTH 10 0
BBX 9 9 1 -1
BITMAP
0200
4200
2200
2400
1400
0800
1400
2200
C180
ENDCHAR
STARTCHAR 4E43
ENCODING 20035
SWIDTH 900 0
DWIDTH 10 0
BBX 9 8 1 -1
BITMAP
FE00
1200
1200
1780
2080
2080
4080
8300
ENDCHAR
STARTCHAR 4E44
ENCODING 20036
SWIDTH 990 0
DWIDTH 11 0
BBX 9 10 0 -1
BITMAP
0100
0100
0200
0200
1C00
0700
0880
0800
B000
4000
ENDCHAR
STARTCHAR 4E45
ENCODING 20037
SWIDTH 900 0
DWIDTH 10 0
BBX 9 9 1 -1
BITMAP
2000
3C00
2400
4400
8400
0800
1400
2200
C180
ENDCHAR
STARTCHAR 4E47
ENCODING 20039
SWIDTH 990 0
DWIDTH 11 0
BBX 11 10 0 -1
BITMAP
0200
1C00
2800
0800
FFE0
0800
0840
0880
0880
0F80
ENDCHAR
STARTCHAR 4E4B
ENCODING 20043
SWIDTH 900 0
DWIDTH 10 0
BBX 9 9 1 -1
BITMAP
0800
0800
7F00
0100
0200
0400
4800
7000
8F80
ENDCHAR
STARTCHAR 4E4D
ENCODING 20045
SWIDTH 900 0
DWIDTH 10 0
BBX 9 9 1 -1
BITMAP
2000
2000
7F80
4800
8F00
0800
0F00
0800
0800
ENDCHAR
STARTCHAR 4E4E
ENCODING 20046
SWIDTH 900 0
DWIDTH 10 0
BBX 9 9 1 -1
BITMAP
0600
7800
4900
2A00
0800
FF80
0800
0800
1800
ENDCHAR
STARTCHAR 4E4F
ENCODING 20047
SWIDTH 900 0
DWIDTH 10 0
BBX 9 9 1 -1
BITMAP
0600
7800
0800
FF00
0200
0400
4800
7000
8F80
ENDCHAR
STARTCHAR 4E51
ENCODING 20049
SWIDTH 990 0
DWIDTH 11 0
BBX 10 10 1 -1
BITMAP
0200
FC00
0800
4980
4E00
8C00
2A00
4900
88C0
0800
ENDCHAR
STARTCHAR 4E55
ENCODING 20053
SWIDTH 900 0
DWIDTH 10 0
BBX 9 9 1 -1
BITMAP
0700
7C00
5F00
4400
7F80
4400
5F00
9500
9500
ENDCHAR
STARTCHAR 4E56
ENCODING 20054
SWIDTH 900 0
DWIDTH 10 0
BBX 9 9 1 -1
BITMAP
0600
7800
0800
FF80
2A80
EB00
2A00
EB80
0800
ENDCHAR
STARTCHAR 4E57
ENCODING 20055
SWIDTH 900 0
DWIDTH 10 0
BBX 9 9 1 -1
BITMAP
3E00
0800
7F00
2A00
FF80
2A00
7F00
2A00
C980
ENDCHAR
STARTCHAR 4E58
ENCODING 20056
SWIDTH 900 0
DWIDTH 10 0
BBX 9 9 1 -1
BITMAP
3E00
0800
FF80
2A80
EB00
2A00
EB80
1C00
EB80
ENDCHAR
STARTCHAR 4E59
ENCODING 20057
SWIDTH 900 0
DWIDTH 10 0
BBX 9 8 1 -1
BITMAP
7E00
0400
0800
1000
2000
4000
8080
7F80
ENDCHAR
STARTCHAR 4E5A
ENCODING 20058
SWIDTH 990 0
DWIDTH 11 0
BBX 8 10 3 -1
BITMAP
80
80
80
80
80
80
80
81
81
FE
ENDCHAR
STARTCHAR 4E5C
ENCODING 20060
SWIDTH 990 0
DWIDTH 11 0
BBX 9 9 1 0
BITMAP
4300
5D00
E100
4100
4100
4000
4080
4080
3F80
ENDCHAR
STARTCHAR 4E5D
ENCODING 20061
SWIDTH 900 0
DWIDTH 10 0
BBX 9 9 1 -1
BITMAP
1000
1000
FC00
1400
1400
2400
2400
4480
8780
ENDCHAR
STARTCHAR 4E5E
ENCODING 20062
SWIDTH 900 0
DWIDTH 10 0
BBX 9 9 1 -1
BITMAP
4000
7F00
8000
7C00
0800
3000
4000
8080
7F80
ENDCHAR
STARTCHAR 4E5F
ENCODING 20063
SWIDTH 900 0
DWIDTH 10 0
BBX 9 9 1 -1
BITMAP
0800
4800
4F00
7900
C900
4B00
4800
4080
7F80
ENDCHAR
STARTCHAR 4E62
ENCODING 20066
SWIDTH 900 0
DWIDTH 10 0
BBX 9 9 1 -1
BITMAP
2200
2200
AA00
AA00
AA00
AA00
AA00
FA80
0380
ENDCHAR
STARTCHAR 4E63
ENCODING 20067
SWIDTH 990 0
DWIDTH 11 0
BBX 11 9 0 0
BITMAP
2200
2A00
5200
5200
3200
2A00
2A20
5E20
E5C0
ENDCHAR
STARTCHAR 4E68
ENCODING 20072
SWIDTH 990 0
DWIDTH 11 0
BBX 10 10 1 -1
BITMAP
0200
4200
9200
EA00
0200
7200
9200
9240
9240
7380
ENDCHAR
STARTCHAR 4E69
ENCODING 20073
SWIDTH 990 0
DWIDTH 11 0
BBX 10 9 1 0
BITMAP
2200
1E00
2200
2200
7A00
8A00
8A40
8A40
F180
ENDCHAR
STARTCHAR 4E71
ENCODING 20081
SWIDTH 900 0
DWIDTH 10 0
BBX 9 9 1 -1
BITMAP
1A00
E200
2200
FA00
2200
2200
FA00
8A80
FB80
ENDCHAR
STARTCHAR 4E73
ENCODING 20083
SWIDTH 900 0
DWIDTH 10 0
BBX 9 9 1 -1
BITMAP
3400
D400
A400
F400
2400
2400
F400
2480
6780
ENDCHAR
STARTCHAR 4E74
ENCODING 20084
SWIDTH 990 0
DWIDTH 11 0
BBX 11 10 0 -1
BITMAP
2700
2800
7FC0
3900
3100
3100
4100
F820
1020
1FC0
ENDCHAR
STARTCHAR 4E75
ENCODING 20085
SWIDTH 990 0
DWIDTH 11 0
BBX 11 10 0 -1
BITMAP
0800
7F00
2500
0900
FF00
0900
0900
3F20
0920
08C0
ENDCHAR
STARTCHAR 4E79
ENCODING 20089
SWIDTH 990 0
DWIDTH 11 0
BBX 10 10 1 -1
BITMAP
2200
FE00
7200
8A00
FA00
8A00
7200
2240
FA40
2180
ENDCHAR
STARTCHAR 4E7E
ENCODING 20094
SWIDTH 900 0
DWIDTH 10 0
BBX 9 9 1 -1
BITMAP
4400
E780
4800
E700
A100
E200
4400
E880
4780
ENDCHAR
STARTCHAR 4E7F
ENCODING 20095
SWIDTH 990 0
DWIDTH 11 0
BBX 11 10 0 -1
BITMAP
1100
E500
9100
8100
3100
2900
3D00
1120
5520
90C0
ENDCHAR
STARTCHAR 4E80
ENCODING 20096
SWIDTH 900 0
DWIDTH 10 0
BBX 8 9 2 -1
BITMAP
78
88
7C
54
FE
92
FE
11
1F
ENDCHAR
STARTCHAR 4E82
ENCODING 20098
SWIDTH 900 0
DWIDTH 10 0
BBX 9 9 1 -1
BITMAP
7A00
AA00
7A00
1200
FA00
DA00
AA00
DA80
8B80
ENDCHAR
STARTCHAR 4E85
ENCODING 20101
SWIDTH 900 0
DWIDTH 10 0
BBX 3 9 3 -1
BITMAP
20
20
20
20
20
20
20
20
E0
ENDCHAR
STARTCHAR 4E86
ENCODING 20102
SWIDTH 900 0
DWIDTH 10 0
BBX 7 9 2 -1
BITMAP
FE
04
18
10
10
10
10
10
30
ENDCHAR
STARTCHAR 4E88
ENCODING 20104
SWIDTH 900 0
DWIDTH 10 0
BBX 9 9 1 -1
BITMAP
7F00
0200
1400
FF80
0900
0A00
0800
0800
3800
ENDCHAR
STARTCHAR 4E89
ENCODING 20105
SWIDTH 900 0
DWIDTH 10 0
BBX 9 9 1 -1
BITMAP
1C00
2400
7F00
0900
FF80
0900
7F00
0800
1800
ENDCHAR
STARTCHAR 4E8A
ENCODING 20106
SWIDTH 900 0
DWIDTH 10 0
BBX 9 9 1 -1
BITMAP
0800
FF80
2A00
7F00
0900
FF80
0900
7F00
1800
ENDCHAR
STARTCHAR 4E8B
ENCODING 20107
SWIDTH 900 0
DWIDTH 10 0
BBX 9 9 1 -1
BITMAP
0800
FF80
2A00
7F00
0900
FF80
0900
7F00
1800
ENDCHAR
STARTCHAR 4E8C
ENCODING 20108
SWIDTH 900 0
DWIDTH 10 0
BBX 9 7 1 0
BITMAP
0200
7F00
0000
0000
0000
0100
FF80
ENDCHAR
STARTCHAR 4E8D
ENCODING 20109
SWIDTH 990 0
DWIDTH 11 0
BBX 9 9 1 -1
BITMAP
FF80
0000
0000
FF80
0800
0800
0800
0800
0800
ENDCHAR
STARTCHAR 4E8E
ENCODING 20110
SWIDTH 900 0
DWIDTH 10 0
BBX 9 9 1 -1
BITMAP
7F00
0800
0800
FF80
0800
0800
0800
0800
1800
ENDCHAR
STARTCHAR 4E91
ENCODING 20113
SWIDTH 900 0
DWIDTH 10 0
BBX 9 8 1 -1
BITMAP
7F00
0000
0000
FF80
1000
1200
2700
7900
ENDCHAR
STARTCHAR 4E92
ENCODING 20114
SWIDTH 900 0
DWIDTH 10 0
BBX 9 9 1 -1
BITMAP
FF80
1000
1000
3E00
2200
7E00
4400
0400
FF80
ENDCHAR
STARTCHAR 4E94
ENCODING 20116
SWIDTH 900 0
DWIDTH 10 0
BBX 9 8 1 -1
BITMAP
FF00
1000
1000
7E00
2200
2200
2200
FF80
ENDCHAR
STARTCHAR 4E95
ENCODING 20117
SWIDTH 900 0
DWIDTH 10 0
BBX 8 9 1 -1
BITMAP
24
24
FF
24
24
FF
24
44
84
ENDCHAR
STARTCHAR 4E96
ENCODING 20118
SWIDTH 990 0
DWIDTH 11 0
BBX 11 10 0 -1
BITMAP
3F80
0000
0000
0000
7FC0
0000
3F80
0000
0000
FFE0
ENDCHAR
STARTCHAR 4E97
ENCODING 20119
SWIDTH 990 0
DWIDTH 11 0
BBX 11 10 0 -1
BITMAP
0400
0400
4480
4480
4480
1B00
0000
1F00
0000
FFE0
ENDCHAR
STARTCHAR 4E98
ENCODING 20120
SWIDTH 900 0
DWIDTH 10 0
BBX 9 9 1 -1
BITMAP
FF80
0000
3E00
2200
3E00
2200
3E00
0000
FF80
ENDCHAR
STARTCHAR 4E99
ENCODING 20121
SWIDTH 900 0
DWIDTH 10 0
BBX 9 9 1 -1
BITMAP
FF80
1000
1E00
2200
2A00
2600
5400
4C00
FF80
ENDCHAR
STARTCHAR 4E9B
ENCODING 20123
SWIDTH 900 0
DWIDTH 10 0
BBX 9 9 1 -1
BITMAP
2400
2580
B600
A480
F780
0000
7F00
0000
FF80
ENDCHAR
STARTCHAR 4E9C
ENCODING 20124
SWIDTH 900 0
DWIDTH 10 0
BBX 9 9 1 -1
BITMAP
FF80
1400
1400
7F00
5500
7F00
1400
1400
FF80
ENDCHAR
STARTCHAR 4E9D
ENCODING 20125
SWIDTH 990 0
DWIDTH 11 0
BBX 11 10 0 -1
BITMAP
0800
1100
2F80
3100
4140
5AC0
2100
3F80
0000
FFE0
ENDCHAR
STARTCHAR 4E9E
ENCODING 20126
SWIDTH 900 0
DWIDTH 10 0
BBX 9 9 1 -1
BITMAP
FF80
1400
1400
F780
8080
F780
1400
1400
FF80
ENDCHAR
STARTCHAR 4E9F
ENCODING 20127
SWIDTH 900 0
DWIDTH 10 0
BBX 9 9 1 -1
BITMAP
7F00
1000
1800
EB80
AA80
A900
EA80
1000
FF80
ENDCHAR
STARTCHAR 4EA0
ENCODING 20128
SWIDTH 900 0
DWIDTH 10 0
BBX 9 3 1 3
BITMAP
0800
0800
FF80
ENDCHAR
STARTCHAR 4EA1
ENCODING 20129
SWIDTH 900 0
DWIDTH 10 0
BBX 9 9 1 -1
BITMAP
0800
0800
FF80
4000
4000
4000
4000
4000
3F00
ENDCHAR
STARTCHAR 4EA2
ENCODING 20130
SWIDTH 900 0
DWIDTH 10 0
BBX 9 9 1 -1
BITMAP
0800
FF80
0000
3C00
2400
2400
2400
4480
8780
ENDCHAR
STARTCHAR 4EA4
ENCODING 20132
SWIDTH 900 0
DWIDTH 10 0
BBX 9 9 1 -1
BITMAP
0800
FF80
2200
4100
A280
1400
0800
3600
C180
ENDCHAR
STARTCHAR 4EA5
ENCODING 20133
SWIDTH 900 0
DWIDTH 10 0
BBX 9 9 1 -1
BITMAP
0800
FF80
0800
3200
1500
1A00
6400
1B00
E080
ENDCHAR
STARTCHAR 4EA6
ENCODING 20134
SWIDTH 900 0
DWIDTH 10 0
BBX 9 9 1 -1
BITMAP
0800
0800
FF80
1400
5500
5480
9480
2400
4C00
ENDCHAR
STARTCHAR 4EA8
ENCODING 20136
SWIDTH 900 0
DWIDTH 10 0
BBX 9 9 1 -1
BITMAP
0800
FF80
2200
3E00
0000
7F00
0400
0800
1800
ENDCHAR
STARTCHAR 4EAB
ENCODING 20139
SWIDTH 900 0
DWIDTH 10 0
BBX 9 9 1 -1
BITMAP
0800
FF80
2200
3E00
0000
7F00
0400
FF80
1800
ENDCHAR
STARTCHAR 4EAC
ENCODING 20140
SWIDTH 900 0
DWIDTH 10 0
BBX 9 9 1 -1
BITMAP
0800
FF80
0000
3E00
2200
3E00
0800
4900
9880
ENDCHAR
STARTCHAR 4EAD
ENCODING 20141
SWIDTH 900 0
DWIDTH 10 0
BBX 9 9 1 -1
BITMAP
0800
FF80
3E00
2200
FF80
8080
7F00
0800
1800
ENDCHAR
STARTCHAR 4EAE
ENCODING 20142
SWIDTH 900 0
DWIDTH 10 0
BBX 9 9 1 -1
BITMAP
0800
FF80
2200
3E00
0000
FF80
9480
2400
C780
ENDCHAR
STARTCHAR 4EAF
ENCODING 20143
SWIDTH 990 0
DWIDTH 11 0
BBX 10 10 0 -1
BITMAP
0400
FFC0
0000
3F80
1F00
0000
7F80
3F80
4080
3F80
ENDCHAR
STARTCHAR 4EB0
ENCODING 20144
SWIDTH 900 0
DWIDTH 10 0
BBX 9 9 1 -1
BITMAP
0800
FF80
2200
3E00
2200
3E00
0800
4900
9880
ENDCHAR
STARTCHAR 4EB3
ENCODING 20147
SWIDTH 900 0
DWIDTH 10 0
BBX 9 9 1 -1
BITMAP
0800
FF80
2200
FF80
8680
3800
0E00
F880
0F80
ENDCHAR
STARTCHAR 4EB6
ENCODING 20150
SWIDTH 900 0
DWIDTH 10 0
BBX 9 9 1 -1
BITMAP
0800
FF80
5D00
4100
7F00
2200
3E00
2200
FF80
ENDCHAR
STARTCHAR 4EB9
ENCODING 20153
SWIDTH 990 0
DWIDTH 11 0
BBX 10 10 1 -1
BITMAP
0800
FF80
FD00
FD00
ED00
FF80
2200
5E00
7E00
FFC0
ENDCHAR
STARTCHAR 4EBA
ENCODING 20154
SWIDTH 900 0
DWIDTH 10 0
BBX 9 9 1 -1
BITMAP
0800
0800
0800
1400
1400
2200
2200
4100
8080
ENDCHAR
STARTCHAR 4EC0
ENCODING 20160
SWIDTH 900 0
DWIDTH 10 0
BBX 9 9 1 -1
BITMAP
2400
2400
4400
5F80
C400
4400
4400
4400
4400
ENDCHAR
STARTCHAR 4EC1
ENCODING 20161
SWIDTH 900 0
DWIDTH 10 0
BBX 9 9 1 -1
BITMAP
2000
2000
4F00
4000
C000
4000
4000
5F80
4000
ENDCHAR
STARTCHAR 4EC2
ENCODING 20162
SWIDTH 900 0
DWIDTH 10 0
BBX 9 9 1 -1
BITMAP
2400
2400
5F80
4480
C480
4480
4480
4880
5300
ENDCHAR
STARTCHAR 4EC3
ENCODING 20163
SWIDTH 990 0
DWIDTH 11 0
BBX 9 9 1 0
BITMAP
3F80
4400
4400
C400
4400
4400
4400
4400
0400
ENDCHAR
STARTCHAR 4EC4
ENCODING 20164
SWIDTH 900 0
DWIDTH 10 0
BBX 9 9 1 -1
BITMAP
7F80
4000
4400
4400
4400
4A00
4A00
9100
A080
ENDCHAR
STARTCHAR 4EC6
ENCODING 20166
SWIDTH 900 0
DWIDTH 10 0
BBX 9 9 1 -1
BITMAP
2400
2400
4400
4600
C500
4480
4400
4400
4400
ENDCHAR
STARTCHAR 4EC7
ENCODING 20167
SWIDTH 900 0
DWIDTH 10 0
BBX 9 9 1 -1
BITMAP
2800
2800
5E00
4A00
CA00
4A00
4A00
5280
6380
ENDCHAR
STARTCHAR 4ECA
ENCODING 20170
SWIDTH 900 0
DWIDTH 10 0
BBX 9 9 1 -1
BITMAP
0800
1400
2200
DD80
0000
7E00
0200
0400
0800
ENDCHAR
STARTCHAR 4ECB
ENCODING 20171
SWIDTH 900 0
DWIDTH 10 0
BBX 9 9 1 -1
BITMAP
0800
1400
2200
6300
A280
2200
2200
4200
8200
ENDCHAR
STARTCHAR 4ECD
ENCODING 20173
SWIDTH 900 0
DWIDTH 10 0
BBX 9 9 1 -1
BITMAP
2000
2F00
4500
4500
C580
4480
4880
4880
5380
ENDCHAR
STARTCHAR 4ECE
ENCODING 20174
SWIDTH 900 0
DWIDTH 10 0
BBX 9 9 1 -1
BITMAP
2200
2200
2200
2200
5200
5500
4500
8880
8880
ENDCHAR
STARTCHAR 4ECF
ENCODING 20175
SWIDTH 900 0
DWIDTH 10 0
BBX 9 9 1 -1
BITMAP
2400
2400
4400
4400
C400
4800
4900
4980
5E80
ENDCHAR
STARTCHAR 4ED0
ENCODING 20176
SWIDTH 990 0
DWIDTH 11 0
BBX 11 10 0 -1
BITMAP
0400
0C00
0A00
1100
2480
4440
FFE0
0400
0400
0400
ENDCHAR
STARTCHAR 4ED4
ENCODING 20180
SWIDTH 900 0
DWIDTH 10 0
BBX 9 9 1 -1
BITMAP
2000
2F00
4200
4400
DF80
4400
4400
4400
4C00
ENDCHAR
STARTCHAR 4ED5
ENCODING 20181
SWIDTH 900 0
DWIDTH 10 0
BBX 9 9 1 -1
BITMAP
2400
2400
4400
5F80
C400
4400
4400
4400
4F00
ENDCHAR
STARTCHAR 4ED6
ENCODING 20182
SWIDTH 900 0
DWIDTH 10 0
BBX 9 9 1 -1
BITMAP
2200
2A00
4B80
4E80
DA80
4A80
4800
4880
4F80
ENDCHAR
STARTCHAR 4ED7
ENCODING 20183
SWIDTH 900 0
DWIDTH 10 0
BBX 9 9 1 -1
BITMAP
2200
2200
5F80
4200
CA00
4A00
4400
4A00
5180
ENDCHAR
STARTCHAR 4ED8
ENCODING 20184
SWIDTH 900 0
DWIDTH 10 0
BBX 9 9 1 -1
BITMAP
2100
2100
5F80
4100
C900
4500
4100
4100
4300
ENDCHAR
STARTCHAR 4ED9
ENCODING 20185
SWIDTH 900 0
DWIDTH 10 0
BBX 9 9 1 -1
BITMAP
2200
2200
4A80
4A80
CA80
4A80
4A80
4A80
4F80
ENDCHAR
STARTCHAR 4EDA
ENCODING 20186
SWIDTH 990 0
DWIDTH 11 0
BBX 10 10 0 -1
BITMAP
0400
0C00
0A00
1100
2480
4440
C400
4480
4480
3F80
ENDCHAR
STARTCHAR 4EDB
ENCODING 20187
SWIDTH 990 0
DWIDTH 11 0
BBX 10 10 1 -1
BITMAP
0200
2C00
4400
4400
FFC0
4400
4400
4480
4480
4780
ENDCHAR
STARTCHAR 4EDD
ENCODING 20189
SWIDTH 900 0
DWIDTH 10 0
BBX 9 9 1 -1
BITMAP
0800
1400
2200
4100
BE80
0800
0800
0800
7F00
ENDCHAR
STARTCHAR 4EDE
ENCODING 20190
SWIDTH 900 0
DWIDTH 10 0
BBX 9 9 1 -1
BITMAP
2000
2F80
4480
4480
D480
4C80
4480
4880
5180
ENDCHAR
STARTCHAR 4EDF
ENCODING 20191
SWIDTH 900 0
DWIDTH 10 0
BBX 9 9 1 -1
BITMAP
2180
2E00
4200
4200
CF80
4200
4200
4200
4200
ENDCHAR
STARTCHAR 4EE0
ENCODING 20192
SWIDTH 990 0
DWIDTH 11 0
BBX 9 9 1 -1
BITMAP
1F80
2400
4400
4400
DC00
4780
4400
4400
4400
ENDCHAR
STARTCHAR 4EE1
ENCODING 20193
SWIDTH 990 0
DWIDTH 11 0
BBX 10 9 1 0
BITMAP
17C0
2800
3000
FE00
2200
2400
2400
2880
2F00
ENDCHAR
STARTCHAR 4EE2
ENCODING 20194
SWIDTH 990 0
DWIDTH 11 0
BBX 8 10 1 -1
BITMAP
04
1B
29
29
E5
25
23
23
23
21
ENDCHAR
STARTCHAR 4EE3
ENCODING 20195
SWIDTH 900 0
DWIDTH 10 0
BBX 9 9 1 -1
BITMAP
2500
2480
4400
5F80
C400
4400
4200
4280
4180
ENDCHAR
STARTCHAR 4EE4
ENCODING 20196
SWIDTH 900 0
DWIDTH 10 0
BBX 9 9 1 -1
BITMAP
0800
1400
2200
DD80
0000
7F00
0900
0B00
0800
ENDCHAR
STARTCHAR 4EE5
ENCODING 20197
SWIDTH 900 0
DWIDTH 10 0
BBX 9 9 1 -1
BITMAP
4100
5100
4900
4100
4100
5200
6200
C500
1880
ENDCHAR
STARTCHAR 4EE8
ENCODING 20200
SWIDTH 990 0
DWIDTH 11 0
BBX 11 10 0 -1
BITMAP
03C0
0400
0800
1000
7000
9180
1000
1000
1000
03E0
ENDCHAR
STARTCHAR 4EED
ENCODING 20205
SWIDTH 900 0
DWIDTH 10 0
BBX 9 9 1 -1
BITMAP
2000
2F00
4500
4500
D500
4D00
4700
4980
5300
ENDCHAR
STARTCHAR 4EEE
ENCODING 20206
SWIDTH 900 0
DWIDTH 10 0
BBX 9 9 1 -1
BITMAP
2F80
2800
4F00
4900
CD00
4D00
4A00
5300
5480
ENDCHAR
STARTCHAR 4EEF
ENCODING 20207
SWIDTH 990 0
DWIDTH 11 0
BBX 10 10 1 -1
BITMAP
1200
2200
2200
4A80
D240
5200
4100
4200
4400
0800
ENDCHAR
STARTCHAR 4EF0
ENCODING 20208
SWIDTH 900 0
DWIDTH 10 0
BBX 9 9 1 -1
BITMAP
2400
3B80
5280
5280
D280
5280
5E80
5380
4200
ENDCHAR
STARTCHAR 4EF1
ENCODING 20209
SWIDTH 990 0
DWIDTH 11 0
BBX 10 9 1 0
BITMAP
2600
4A00
4900
D080
6640
4000
4F00
4200
4200
ENDCHAR
STARTCHAR 4EF2
ENCODING 20210
SWIDTH 900 0
DWIDTH 10 0
BBX 8 9 1 -1
BITMAP
24
24
5F
55
D5
5F
44
44
44
ENDCHAR
STARTCHAR 4EF3
ENCODING 20211
SWIDTH 990 0
DWIDTH 11 0
BBX 10 10 1 -1
BITMAP
1000
5400
5480
5500
DE00
5400
5400
5440
5C40
5380
ENDCHAR
STARTCHAR 4EF5
ENCODING 20213
SWIDTH 990 0
DWIDTH 11 0
BBX 9 9 1 0
BITMAP
5000
5F00
4400
C400
5F80
4400
4400
4400
4000
ENDCHAR
STARTCHAR 4EF6
ENCODING 20214
SWIDTH 900 0
DWIDTH 10 0
BBX 9 9 1 -1
BITMAP
2200
2A00
4F80
5200
C200
5F80
4200
4200
4200
ENDCHAR
STARTCHAR 4EF7
ENCODING 20215
SWIDTH 900 0
DWIDTH 10 0
BBX 9 9 1 -1
BITMAP
2000
2600
4900
D080
4500
4500
4500
4500
4900
ENDCHAR
STARTCHAR 4EFB
ENCODING 20219
SWIDTH 900 0
DWIDTH 10 0
BBX 9 9 1 -1
BITMAP
2300
2C00
4400
4400
DF80
4400
4400
4400
5F80
ENDCHAR
STARTCHAR 4EFD
ENCODING 20221
SWIDTH 990 0
DWIDTH 11 0
BBX 9 10 1 -1
BITMAP
0200
2200
4900
5100
D680
2500
4500
4900
4900
1100
ENDCHAR
STARTCHAR 4EFE
ENCODING 20222
SWIDTH 990 0
DWIDTH 11 0
BBX 10 10 1 -1
BITMAP
1F80
2800
4800
4F00
C900
4900
4E00
4200
4200
7FC0
ENDCHAR
STARTCHAR 4EFF
ENCODING 20223
SWIDTH 990 0
DWIDTH 11 0
BBX 9 10 1 -1
BITMAP
2400
4400
5B80
4800
C800
4F00
4900
5100
5100
6100
ENDCHAR
STARTCHAR 4F00
ENCODING 20224
SWIDTH 990 0
DWIDTH 11 0
BBX 10 10 1 -1
BITMAP
0200
1500
2500
2900
E880
3440
2500
2500
2880
2E00
ENDCHAR
STARTCHAR 4F01
ENCODING 20225
SWIDTH 900 0
DWIDTH 10 0
BBX 9 9 1 -1
BITMAP
0800
1400
2200
C980
0800
2E00
2800
2800
FF80
ENDCHAR
STARTCHAR 4F02
ENCODING 20226
SWIDTH 990 0
DWIDTH 11 0
BBX 9 9 1 0
BITMAP
4400
4F00
4400
DF80
5480
5480
5480
4400
4000
ENDCHAR
STARTCHAR 4F03
ENCODING 20227
SWIDTH 990 0
DWIDTH 11 0
BBX 10 10 1 -1
BITMAP
1F00
4100
4600
4200
DDC0
4480
4400
4400
4400
4000
ENDCHAR
STARTCHAR 4F08
ENCODING 20232
SWIDTH 990 0
DWIDTH 11 0
BBX 11 10 0 -1
BITMAP
0200
2100
4400
4400
C440
5440
5420
4400
4480
0780
ENDCHAR
STARTCHAR 4F09
ENCODING 20233
SWIDTH 900 0
DWIDTH 10 0
BBX 9 9 1 -1
BITMAP
2200
2F80
4000
C700
4500
4500
4500
4500
4980
ENDCHAR
STARTCHAR 4F0A
ENCODING 20234
SWIDTH 900 0
DWIDTH 10 0
BBX 9 9 1 -1
BITMAP
2F00
2500
5F80
4500
C500
4F00
4400
4400
4800
ENDCHAR
STARTCHAR 4F0B
ENCODING 20235
SWIDTH 990 0
DWIDTH 11 0
BBX 9 10 1 -1
BITMAP
0E00
2900
4900
4A00
CD80
5500
5500
5200
6500
2880
ENDCHAR
STARTCHAR 4F0C
ENCODING 20236
SWIDTH 990 0
DWIDTH 11 0
BBX 9 10 1 -1
BITMAP
2F80
5000
5000
5000
D780
5480
5480
6400
6480
6380
ENDCHAR
STARTCHAR 4F0D
ENCODING 20237
SWIDTH 900 0
DWIDTH 10 0
BBX 9 9 1 -1
BITMAP
2000
3F80
4400
4400
DF00
4900
4900
4900
5F80
ENDCHAR
STARTCHAR 4F0E
ENCODING 20238
SWIDTH 900 0
DWIDTH 10 0
BBX 9 9 1 -1
BITMAP
2200
2200
4F80
4200
C700
4500
4200
4500
4880
ENDCHAR
STARTCHAR 4F0F
ENCODING 20239
SWIDTH 900 0
DWIDTH 10 0
BBX 9 9 1 -1
BITMAP
2500
2400
5F80
4400
C400
4400
4A00
4900
5080
ENDCHAR
STARTCHAR 4F10
ENCODING 20240
SWIDTH 900 0
DWIDTH 10 0
BBX 9 9 1 -1
BITMAP
2500
2400
5F80
4400
C480
4500
4200
4680
4980
ENDCHAR
STARTCHAR 4F11
ENCODING 20241
SWIDTH 900 0
DWIDTH 10 0
BBX 9 9 1 -1
BITMAP
2400
2400
5F80
4400
CE00
4E00
5500
6480
4400
ENDCHAR
STARTCHAR 4F12
ENCODING 20242
SWIDTH 990 0
DWIDTH 11 0
BBX 10 10 1 -1
BITMAP
0200
5C00
5000
5FC0
D200
5200
5200
6200
6200
6200
ENDCHAR
STARTCHAR 4F15
ENCODING 20245
SWIDTH 990 0
DWIDTH 11 0
BBX 9 9 1 0
BITMAP
2400
4F00
4400
C400
5F80
4600
4900
4900
1080
ENDCHAR
STARTCHAR 4F16
ENCODING 20246
SWIDTH 990 0
DWIDTH 11 0
BBX 9 9 1 0
BITMAP
2800
2F80
4800
CF00
4D00
5500
5200
5500
2880
ENDCHAR
STARTCHAR 4F17
ENCODING 20247
SWIDTH 990 0
DWIDTH 11 0
BBX 9 10 1 -1
BITMAP
0800
1800
2400
2200
4100
8280
4600
C500
A900
3880
ENDCHAR
STARTCHAR 4F19
ENCODING 20249
SWIDTH 990 0
DWIDTH 11 0
BBX 11 9 0 0
BITMAP
2100
2540
4B80
CA80
4280
4480
4480
4840
0820
ENDCHAR
STARTCHAR 4F1A
ENCODING 20250
SWIDTH 900 0
DWIDTH 10 0
BBX 9 9 1 -1
BITMAP
0800
1400
2200
DD80
0000
7F00
1000
2200
7D00
ENDCHAR
STARTCHAR 4F1C
ENCODING 20252
SWIDTH 900 0
DWIDTH 10 0
BBX 9 9 1 -1
BITMAP
2400
2F00
4500
4980
C200
4200
4F80
4200
4200
ENDCHAR
STARTCHAR 4F1D
ENCODING 20253
SWIDTH 900 0
DWIDTH 10 0
BBX 9 9 1 -1
BITMAP
2000
2F00
4000
5F80
C400
4400
4900
4980
5E80
ENDCHAR
STARTCHAR 4F2E
ENCODING 20270
SWIDTH 990 0
DWIDTH 11 0
BBX 10 10 1 -1
BITMAP
1700
5480
5300
6B00
E900
6900
6900
5300
5C80
6840
ENDCHAR
STARTCHAR 4F2F
ENCODING 20271
SWIDTH 900 0
DWIDTH 10 0
BBX 9 9 1 -1
BITMAP
2200
2400
4F80
4880
C880
4F80
4880
4880
4F80
ENDCHAR
STARTCHAR 4F30
ENCODING 20272
SWIDTH 900 0
DWIDTH 10 0
BBX 9 9 1 -1
BITMAP
2200
2200
5F80
4200
C200
4F80
4880
4880
4F80
ENDCHAR
STARTCHAR 4F31
ENCODING 20273
SWIDTH 990 0
DWIDTH 11 0
BBX 10 9 1 0
BITMAP
2400
4A00
4A00
C900
5480
6540
6480
6400
4400
ENDCHAR
STARTCHAR 4F33
ENCODING 20275
SWIDTH 990 0
DWIDTH 11 0
BBX 11 10 0 -1
BITMAP
0A80
2A80
4A80
7FE0
CA80
4A80
4900
4800
4800
07C0
ENDCHAR
STARTCHAR 4F34
ENCODING 20276
SWIDTH 900 0
DWIDTH 10 0
BBX 9 9 1 -1
BITMAP
2A80
2A80
4200
4F80
C200
4F80
4200
4200
4200
ENDCHAR
STARTCHAR 4F35
ENCODING 20277
SWIDTH 990 0
DWIDTH 11 0
BBX 10 9 0 0
BITMAP
3FC0
3540
5540
D540
5540
5940
50C0
5040
0FC0
ENDCHAR
STARTCHAR 4F36
ENCODING 20278
SWIDTH 900 0
DWIDTH 10 0
BBX 9 9 1 -1
BITMAP
2600
2900
5680
4000
CF00
4500
4500
4700
4400
ENDCHAR
STARTCHAR 4F37
ENCODING 20279
SWIDTH 990 0
DWIDTH 11 0
BBX 9 9 1 0
BITMAP
4400
4400
5F80
D480
5480
5F80
5480
5480
5B00
ENDCHAR
STARTCHAR 4F38
ENCODING 20280
SWIDTH 900 0
DWIDTH 10 0
BBX 9 9 1 -1
BITMAP
2200
2F80
4A80
4F80
CA80
4F80
4200
4200
4200
ENDCHAR
STARTCHAR 4F39
ENCODING 20281
SWIDTH 990 0
DWIDTH 11 0
BBX 10 10 1 -1
BITMAP
0E00
5100
5100
4F00
D100
5100
4F00
5100
5100
7FC0
ENDCHAR
STARTCHAR 4F3A
ENCODING 20282
SWIDTH 900 0
DWIDTH 10 0
BBX 9 9 1 -1
BITMAP
2000
2F80
4080
4E80
C080
4E80
4A80
4E80
4180
ENDCHAR
STARTCHAR 4F3B
ENCODING 20283
SWIDTH 990 0
DWIDTH 11 0
BBX 9 10 1 -1
BITMAP
1F80
6400
4500
5400
C400
5F80
4400
4400
4400
4400
ENDCHAR
STARTCHAR 4F3C
ENCODING 20284
SWIDTH 900 0
DWIDTH 10 0
BBX 9 9 1 -1
BITMAP
2080
2880
4A80
4A80
C880
4C80
5900
4280
4C80
ENDCHAR
STARTCHAR 4F3D
ENCODING 20285
SWIDTH 900 0
DWIDTH 10 0
BBX 9 9 1 -1
BITMAP
2800
2800
5F80
4A80
CA80
4A80
4A80
5280
5780
ENDCHAR
STARTCHAR 4F3E
ENCODING 20286
SWIDTH 990 0
DWIDTH 11 0
BBX 10 9 0 -1
BITMAP
1FC0
2200
4200
4780
CA40
5200
4200
4200
4DC0
ENDCHAR
STARTCHAR 4F40
ENCODING 20288
SWIDTH 990 0
DWIDTH 11 0
BBX 8 10 1 -1
BITMAP
07
29
29
4F
C8
48
4F
49
49
07
ENDCHAR
STARTCHAR 4F42
ENCODING 20290
SWIDTH 990 0
DWIDTH 11 0
BBX 10 10 1 -1
BITMAP
1F80
2400
4400
4400
D400
5700
5400
5400
5400
5FC0
ENDCHAR
STARTCHAR 4F43
ENCODING 20291
SWIDTH 900 0
DWIDTH 10 0
BBX 9 9 1 -1
BITMAP
2000
2F80
4A80
4A80
CF80
4A80
4A80
4A80
4F80
ENDCHAR
STARTCHAR 4F46
ENCODING 20294
SWIDTH 900 0
DWIDTH 10 0
BBX 9 9 1 -1
BITMAP
2F00
2900
4900
4F00
C900
4900
4F00
4000
5F80
ENDCHAR
STARTCHAR 4F47
ENCODING 20295
SWIDTH 900 0
DWIDTH 10 0
BBX 9 9 1 -1
BITMAP
2200
2F80
4880
4000
CF80
4200
4200
4200
4600
ENDCHAR
STARTCHAR 4F48
ENCODING 20296
SWIDTH 990 0
DWIDTH 11 0
BBX 9 9 1 0
BITMAP
5000
5F00
5400
D780
7480
7480
5480
4480
4000
ENDCHAR
STARTCHAR 4F49
ENCODING 20297
SWIDTH 990 0
DWIDTH 11 0
BBX 9 9 1 0
BITMAP
2400
4F00
4400
C400
5F80
4800
4900
4900
1E80
ENDCHAR
STARTCHAR 4F4B
ENCODING 20299
SWIDTH 990 0
DWIDTH 11 0
BBX 9 10 1 -1
BITMAP
3F00
4480
4880
4880
D000
4F00
5100
5100
5100
4F00
ENDCHAR
STARTCHAR 4F4C
ENCODING 20300
SWIDTH 990 0
DWIDTH 11 0
BBX 11 10 0 -1
BITMAP
0100
2900
4940
5F80
D900
5900
5900
5920
5720
19C0
ENDCHAR
STARTCHAR 4F4D
ENCODING 20301
SWIDTH 900 0
DWIDTH 10 0
BBX 9 9 1 -1
BITMAP
2400
2400
5F80
4900
C900
4900
4900
4900
5F80
ENDCHAR
STARTCHAR 4F4E
ENCODING 20302
SWIDTH 900 0
DWIDTH 10 0
BBX 9 9 1 -1
BITMAP
2180
2E00
4A00
4F80
CA00
4900
5C80
4000
4F80
ENDCHAR
STARTCHAR 4F4F
ENCODING 20303
SWIDTH 900 0
DWIDTH 10 0
BBX 9 9 1 -1
BITMAP
2400
2200
4F80
4200
C200
4F80
4200
4200
4F80
ENDCHAR
STARTCHAR 4F50
ENCODING 20304
SWIDTH 900 0
DWIDTH 10 0
BBX 9 9 1 -1
BITMAP
2400
2400
5F80
4800
C800
4F00
5200
4200
5F80
ENDCHAR
STARTCHAR 4F51
ENCODING 20305
SWIDTH 900 0
DWIDTH 10 0
BBX 9 9 1 -1
BITMAP
2400
2400
5F80
4400
C800
4F80
5480
5480
4780
ENDCHAR
STARTCHAR 4F52
ENCODING 20306
SWIDTH 990 0
DWIDTH 11 0
BBX 10 10 0 -1
BITMAP
0200
2200
2F80
4A80
CA80
4740
4500
4500
4880
1040
ENDCHAR
STARTCHAR 4F53
ENCODING 20307
SWIDTH 900 0
DWIDTH 10 0
BBX 9 9 1 -1
BITMAP
2400
2400
5F80
4400
CE00
5500
6480
4E00
4400
ENDCHAR
STARTCHAR 4F54
ENCODING 20308
SWIDTH 990 0
DWIDTH 11 0
BBX 9 9 1 0
BITMAP
4400
4380
4400
C400
4F00
5080
5080
5080
5F80
ENDCHAR
STARTCHAR 4F55
ENCODING 20309
SWIDTH 900 0
DWIDTH 10 0
BBX 9 9 1 -1
BITMAP
2000
3F80
4100
5D00
D500
5500
5D00
4100
4300
ENDCHAR
STARTCHAR 4F56
ENCODING 20310
SWIDTH 990 0
DWIDTH 11 0
BBX 10 9 1 0
BITMAP
4200
4100
4900
DA80
5A80
4440
4880
5900
4700
ENDCHAR
STARTCHAR 4F57
ENCODING 20311
SWIDTH 900 0
DWIDTH 10 0
BBX 9 9 1 -1
BITMAP
2400
3F80
5080
4800
CB00
4C00
4800
4880
4F80
ENDCHAR
STARTCHAR 4F58
ENCODING 20312
SWIDTH 990 0
DWIDTH 11 0
BBX 10 10 1 -1
BITMAP
0800
1400
2200
4100
FFC0
0000
FF80
0A00
8980
0800
ENDCHAR
STARTCHAR 4F59
ENCODING 20313
SWIDTH 900 0
DWIDTH 10 0
BBX 9 9 1 -1
BITMAP
0800
1400
2200
DD80
0800
7F80
0800
4900
9880
ENDCHAR
STARTCHAR 4F5A
ENCODING 20314
SWIDTH 900 0
DWIDTH 10 0
BBX 9 9 1 -1
BITMAP
2200
2A00
4F80
4200
CF80
4200
4200
4500
4880
ENDCHAR
STARTCHAR 4F5B
ENCODING 20315
SWIDTH 900 0
DWIDTH 10 0
BBX 9 9 1 -1
BITMAP
2600
3F80
4680
5F80
D600
5F80
4680
4B80
5200
ENDCHAR
STARTCHAR 4F5C
ENCODING 20316
SWIDTH 900 0
DWIDTH 10 0
BBX 9 9 1 -1
BITMAP
2400
2400
4F80
5400
C780
4400
4780
4400
4400
ENDCHAR
STARTCHAR 4F5D
ENCODING 20317
SWIDTH 900 0
DWIDTH 10 0
BBX 9 9 1 -1
BITMAP
2400
2F80
5080
4E80
CA80
4A80
4E80
4080
4300
ENDCHAR
STARTCHAR 4F5E
ENCODING 20318
SWIDTH 900 0
DWIDTH 10 0
BBX 9 9 1 -1
BITMAP
2600
2000
5F80
4400
DF80
4900
4E00
4500
5880
ENDCHAR
STARTCHAR 4F5F
ENCODING 20319
SWIDTH 990 0
DWIDTH 11 0
BBX 10 10 1 -1
BITMAP
0800
4E00
4A00
BC00
A400
8A00
9100
AC00
8040
3F80
ENDCHAR
STARTCHAR 4F60
ENCODING 20320
SWIDTH 990 0
DWIDTH 11 0
BBX 10 9 1 0
BITMAP
2800
4FC0
5480
C400
4D00
5480
6400
4400
4000
ENDCHAR
STARTCHAR 4F63
ENCODING 20323
SWIDTH 990 0
DWIDTH 11 0
BBX 9 10 1 -1
BITMAP
0F00
5480
5480
6F80
E480
5F80
6480
6480
6480
6080
ENDCHAR
STARTCHAR 4F69
ENCODING 20329
SWIDTH 900 0
DWIDTH 10 0
BBX 10 9 0 -1
BITMAP
3FC0
3040
5740
5240
DFC0
5AC0
5AC0
5AC0
5240
ENDCHAR
STARTCHAR 4F6A
ENCODING 20330
SWIDTH 990 0
DWIDTH 11 0
BBX 10 10 0 -1
BITMAP
0F80
3040
5040
5340
D540
5540
5340
5040
5040
0F80
ENDCHAR
STARTCHAR 4F6C
ENCODING 20332
SWIDTH 990 0
DWIDTH 11 0
BBX 10 10 0 -1
BITMAP
0200
2F00
4380
5FC0
C400
4800
5040
4F80
5000
0FC0
ENDCHAR
STARTCHAR 4F6E
ENCODING 20334
SWIDTH 990 0
DWIDTH 11 0
BBX 10 9 1 0
BITMAP
2600
4900
5080
FFC0
4000
4F00
5100
5100
4F00
ENDCHAR
STARTCHAR 4F6F
ENCODING 20335
SWIDTH 900 0
DWIDTH 10 0
BBX 9 9 1 -1
BITMAP
2880
2500
4F80
4200
CF80
4200
4F80
4200
4200
ENDCHAR
STARTCHAR 4F70
ENCODING 20336
SWIDTH 900 0
DWIDTH 10 0
BBX 9 9 1 -1
BITMAP
2F80
2200
4400
4F80
C880
4F80
4880
4880
4F80
ENDCHAR
STARTCHAR 4F71
ENCODING 20337
SWIDTH 990 0
DWIDTH 11 0
BBX 11 10 0 -1
BITMAP
0400
0A00
1100
2080
5E60
7FC0
0400
2780
2400
FFC0
ENDCHAR
STARTCHAR 4F73
ENCODING 20339
SWIDTH 900 0
DWIDTH 10 0
BBX 9 9 1 -1
BITMAP
2400
2F00
4400
5F80
C400
4400
4F00
4400
5F80
ENDCHAR
STARTCHAR 4F75
ENCODING 20341
SWIDTH 900 0
DWIDTH 10 0
BBX 9 9 1 -1
BITMAP
2900
2600
5F80
4900
C900
5F80
4900
4900
5100
ENDCHAR
STARTCHAR 4F76
ENCODING 20342
SWIDTH 900 0
DWIDTH 10 0
BBX 9 9 1 -1
BITMAP
2200
2F80
4200
4F80
C000
4000
4F80
4880
4F80
ENDCHAR
STARTCHAR 4F77
ENCODING 20343
SWIDTH 990 0
DWIDTH 11 0
BBX 10 10 1 -1
BITMAP
0F00
3080
5080
5F80
D080
5F40
5280
5200
5500
5880
ENDCHAR
STARTCHAR 4F78
ENCODING 20344
SWIDTH 990 0
DWIDTH 11 0
BBX 10 10 1 -1
BITMAP
0100
2E00
4400
5FC0
C400
4400
5B00
5100
5100
4E00
ENDCHAR
STARTCHAR 4F79
ENCODING 20345
SWIDTH 990 0
DWIDTH 11 0
BBX 10 10 1 -1
BITMAP
0800
5600
6200
5FC0
D000
5300
5480
5580
5400
6380
ENDCHAR
STARTCHAR 4F7A
ENCODING 20346
SWIDTH 990 0
DWIDTH 11 0
BBX 10 10 1 -1
BITMAP
0400
2600
4900
5080
FF80
4400
4400
4F00
4400
7FC0
ENDCHAR
STARTCHAR 4F7B
ENCODING 20347
SWIDTH 900 0
DWIDTH 10 0
BBX 9 9 1 -1
BITMAP
2500
2500
4D80
4500
C500
4D80
4500
4500
4980
ENDCHAR
STARTCHAR 4F7C
ENCODING 20348
SWIDTH 900 0
DWIDTH 10 0
BBX 9 9 1 -1
BITMAP
2200
2F80
4500
4880
C500
4500
4200
4500
4880
ENDCHAR
STARTCHAR 4F7D
ENCODING 20349
SWIDTH 990 0
DWIDTH 11 0
BBX 11 9 0 0
BITMAP
2400
57C0
4940
CB00
4280
4A80
5280
2440
0820
ENDCHAR
STARTCHAR 4F7E
ENCODING 20350
SWIDTH 990 0
DWIDTH 11 0
BBX 10 10 1 -1
BITMAP
0200
2100
5700
69C0
CF00
5100
4F00
5100
5100
2100
ENDCHAR
STARTCHAR 4F7F
ENCODING 20351
SWIDTH 900 0
DWIDTH 10 0
BBX 9 9 1 -1
BITMAP
2400
3F80
4400
5F80
D480
5F80
5400
4C00
5B80
ENDCHAR
STARTCHAR 4F81
ENCODING 20353
SWIDTH 990 0
DWIDTH 11 0
BBX 11 10 0 -1
BITMAP
0200
2A00
2F80
5200
DFE0
4500
4500
4900
4940
10C0
ENDCHAR
STARTCHAR 4F82
ENCODING 20354
SWIDTH 990 0
DWIDTH 11 0
BBX 10 10 1 -1
BITMAP
0200
5FC0
6000
6000
E600
6400
5F80
6400
6480
6380
ENDCHAR
STARTCHAR 4F83
ENCODING 20355
SWIDTH 900 0
DWIDTH 10 0
BBX 9 9 1 -1
BITMAP
3F00
3100
5100
5F00
C000
5500
5500
5500
6580
ENDCHAR
STARTCHAR 4F84
ENCODING 20356
SWIDTH 990 0
DWIDTH 11 0
BBX 10 10 1 -1
BITMAP
1F80
2400
4500
4900
CA80
4480
4400
4F00
4400
5FC0
ENDCHAR
STARTCHAR 4F85
ENCODING 20357
SWIDTH 990 0
DWIDTH 11 0
BBX 9 9 1 0
BITMAP
2400
5F80
5900
CA00
4480
4900
7300
4480
5880
ENDCHAR
STARTCHAR 4F86
ENCODING 20358
SWIDTH 900 0
DWIDTH 10 0
BBX 9 9 1 -1
BITMAP
0800
FF80
2A00
2A00
5D00
8880
1C00
2A00
C980
ENDCHAR
STARTCHAR 4F88
ENCODING 20360
SWIDTH 900 0
DWIDTH 10 0
BBX 9 9 1 -1
BITMAP
2380
2C80
4300
5E00
C000
4380
4C80
4300
5E00
ENDCHAR
STARTCHAR 4F89
ENCODING 20361
SWIDTH 990 0
DWIDTH 11 0
BBX 10 10 1 -1
BITMAP
0400
3B00
4900
5680
BFC0
4800
4700
4100
4100
0200
ENDCHAR
STARTCHAR 4F8A
ENCODING 20362
SWIDTH 990 0
DWIDTH 11 0
BBX 10 10 0 -1
BITMAP
0200
2A00
2280
4200
CDC0
4500
4900
4900
5140
01C0
ENDCHAR
STARTCHAR 4F8B
ENCODING 20363
SWIDTH 900 0
DWIDTH 10 0
BBX 10 9 0 -1
BITMAP
3E40
2940
4D40
5540
DD40
6540
4540
4840
50C0
ENDCHAR
STARTCHAR 4F8C
ENCODING 20364
SWIDTH 990 0
DWIDTH 11 0
BBX 11 10 0 -1
BITMAP
0400
0A00
3180
DE40
1F00
0200
1D00
FFE0
1100
3E80
ENDCHAR
STARTCHAR 4F8D
ENCODING 20365
SWIDTH 900 0
DWIDTH 10 0
BBX 9 9 1 -1
BITMAP
2200
2F00
4200
DF80
4100
5F80
4100
4900
4300
ENDCHAR
STARTCHAR 4F8E
ENCODING 20366
SWIDTH 990 0
DWIDTH 11 0
BBX 9 9 1 0
BITMAP
2400
4D00
4400
CB80
4600
4D00
4D00
5480
4000
ENDCHAR
STARTCHAR 4F8F
ENCODING 20367
SWIDTH 900 0
DWIDTH 10 0
BBX 9 9 1 -1
BITMAP
2200
2A00
4F80
4200
CF80
4200
4700
4A80
4200
ENDCHAR
STARTCHAR 4F90
ENCODING 20368
SWIDTH 990 0
DWIDTH 11 0
BBX 11 10 0 -1
BITMAP
0200
0400
5F80
5680
D680
5680
5680
5680
5680
3FE0
ENDCHAR
STARTCHAR 4F91
ENCODING 20369
SWIDTH 900 0
DWIDTH 10 0
BBX 9 9 1 -1
BITMAP
2200
2F80
4400
4F80
D480
4780
4480
4780
4480
ENDCHAR
STARTCHAR 4F92
ENCODING 20370
SWIDTH 990 0
DWIDTH 11 0
BBX 10 9 0 0
BITMAP
2200
2DC0
5040
D440
4F80
4500
4300
4300
0480
ENDCHAR
STARTCHAR 4F93
ENCODING 20371
SWIDTH 990 0
DWIDTH 11 0
BBX 10 10 0 -1
BITMAP
0200
2F80
4280
5FC0
C280
4700
5FC0
4200
5FC0
0200
ENDCHAR
STARTCHAR 4F94
ENCODING 20372
SWIDTH 990 0
DWIDTH 11 0
BBX 9 9 1 0
BITMAP
4800
5100
4E00
D400
4F00
4400
5F80
4400
4000
ENDCHAR
STARTCHAR 4F96
ENCODING 20374
SWIDTH 900 0
DWIDTH 10 0
BBX 9 9 1 -1
BITMAP
0800
1400
3E00
C180
7F00
5500
7F00
5500
5500
ENDCHAR
STARTCHAR 4F97
ENCODING 20375
SWIDTH 990 0
DWIDTH 11 0
BBX 10 10 0 -1
BITMAP
0F80
3040
5040
5240
D040
5740
5540
5540
5240
1040
ENDCHAR
STARTCHAR 4F98
ENCODING 20376
SWIDTH 900 0
DWIDTH 10 0
BBX 9 9 1 -1
BITMAP
2400
3F80
5080
4F00
C400
4780
5C00
4480
4780
ENDCHAR
STARTCHAR 4F99
ENCODING 20377
SWIDTH 990 0
DWIDTH 11 0
BBX 10 10 0 -1
BITMAP
0180
2100
2100
4FC0
C100
4F00
4480
4480
46C0
0840
ENDCHAR
STARTCHAR 4F9A
ENCODING 20378
SWIDTH 990 0
DWIDTH 11 0
BBX 9 10 1 -1
BITMAP
1000
6F80
6080
4C80
D480
5C80
5480
5480
4880
4100
ENDCHAR
STARTCHAR 4F9B
ENCODING 20379
SWIDTH 900 0
DWIDTH 10 0
BBX 9 9 1 -1
BITMAP
2A00
2A00
5F00
4A00
CA00
5F80
4000
4A00
5100
ENDCHAR
STARTCHAR 4F9D
ENCODING 20381
SWIDTH 900 0
DWIDTH 10 0
BBX 9 9 1 -1
BITMAP
2400
2400
5F80
4800
CC80
5B00
6A00
4D00
5880
ENDCHAR
STARTCHAR 4F9E
ENCODING 20382
SWIDTH 990 0
DWIDTH 11 0
BBX 9 10 1 -1
BITMAP
1000
5000
6780
BC80
AC80
AC80
B480
9480
AB00
2000
ENDCHAR
STARTCHAR 4F9F
ENCODING 20383
SWIDTH 990 0
DWIDTH 11 0
BBX 9 10 1 -1
BITMAP
0800
4800
5780
5000
D300
5200
7F80
5200
5200
5200
ENDCHAR
STARTCHAR 4FA0
ENCODING 20384
SWIDTH 900 0
DWIDTH 10 0
BBX 9 9 1 -1
BITMAP
2400
3F80
4400
5500
CE00
5F80
4400
4A00
5180
ENDCHAR
STARTCHAR 4FA1
ENCODING 20385
SWIDTH 900 0
DWIDTH 10 0
BBX 10 9 0 -1
BITMAP
2000
3FC0
4500
5FC0
D540
5540
5540
5540
5FC0
ENDCHAR
STARTCHAR 4FAB
ENCODING 20395
SWIDTH 900 0
DWIDTH 10 0
BBX 9 9 1 -1
BITMAP
2400
2F80
4800
4700
C400
5F80
4900
4E00
5980
ENDCHAR
STARTCHAR 4FAD
ENCODING 20397
SWIDTH 900 0
DWIDTH 10 0
BBX 9 9 1 -1
BITMAP
2F80
2880
4F80
4900
C900
5680
4000
4600
4100
ENDCHAR
STARTCHAR 4FAE
ENCODING 20398
SWIDTH 900 0
DWIDTH 10 0
BBX 9 9 1 -1
BITMAP
2800
3F80
4000
5F00
D500
7F80
5500
5F80
4300
ENDCHAR
STARTCHAR 4FAF
ENCODING 20399
SWIDTH 900 0
DWIDTH 10 0
BBX 9 9 1 -1
BITMAP
2F00
2100
5F80
4400
CF80
5200
4F80
4500
4880
ENDCHAR
STARTCHAR 4FB2
ENCODING 20402
SWIDTH 990 0
DWIDTH 11 0
BBX 10 10 0 -1
BITMAP
0FC0
3000
5000
5380
D000
5F80
5A80
5900
6980
2E00
ENDCHAR
STARTCHAR 4FB5
ENCODING 20405
SWIDTH 900 0
DWIDTH 10 0
BBX 9 9 1 -1
BITMAP
2F00
2100
4100
DF80
5080
4F00
4900
4600
5980
ENDCHAR
STARTCHAR 4FB6
ENCODING 20406
SWIDTH 900 0
DWIDTH 10 0
BBX 9 9 1 -1
BITMAP
2F00
2900
4900
4F00
C400
5F80
5080
5080
5F80
ENDCHAR
STARTCHAR 4FB7
ENCODING 20407
SWIDTH 990 0
DWIDTH 11 0
BBX 10 10 0 -1
BITMAP
0F80
3080
5080
5F00
DFC0
5040
5740
5540
6240
0040
ENDCHAR
STARTCHAR 4FB9
ENCODING 20409
SWIDTH 990 0
DWIDTH 11 0
BBX 10 10 0 -1
BITMAP
1040
2B80
3100
51C0
C900
4900
5BC0
4800
4C00
13C0
ENDCHAR
STARTCHAR 4FBB
ENCODING 20411
SWIDTH 990 0
DWIDTH 11 0
BBX 10 10 1 -1
BITMAP
0200
2A00
5100
7EC0
D080
5080
4F00
4A40
4A40
7180
ENDCHAR
STARTCHAR 4FBC
ENCODING 20412
SWIDTH 990 0
DWIDTH 11 0
BBX 10 10 1 -1
BITMAP
2000
4FC0
4A00
5580
C780
4100
4200
4780
4200
4200
ENDCHAR
STARTCHAR 4FBD
ENCODING 20413
SWIDTH 990 0
DWIDTH 11 0
BBX 9 10 1 -1
BITMAP
0F00
7500
5F00
A500
9500
8E00
9F80
8880
8880
1080
ENDCHAR
STARTCHAR 4FBE
ENCODING 20414
SWIDTH 990 0
DWIDTH 11 0
BBX 11 10 0 -1
BITMAP
0200
2F80
4300
4EC0
C400
5F80
4100
3FE0
4200
0200
ENDCHAR
STARTCHAR 4FBF
ENCODING 20415
SWIDTH 900 0
DWIDTH 10 0
BBX 9 9 1 -1
BITMAP
2F80
2200
4F80
4A80
CF80
4A80
4F80
4600
5D80
ENDCHAR
STARTCHAR 4FC0
ENCODING 20416
SWIDTH 990 0
DWIDTH 11 0
BBX 9 10 1 -1
BITMAP
0600
5880
4000
4400
C800
4F80
4A00
4600
4600
4900
ENDCHAR
STARTCHAR 4FC1
ENCODING 20417
SWIDTH 990 0
DWIDTH 11 0
BBX 9 10 1 -1
BITMAP
0300
2D00
5900
5900
D600
4700
4500
4E80
4A00
5180
ENDCHAR
STARTCHAR 4FC2
ENCODING 20418
SWIDTH 900 0
DWIDTH 10 0
BBX 9 9 1 -1
BITMAP
2300
2C00
4500
4A00
C480
5F80
4200
4A80
4A80
ENDCHAR
STARTCHAR 4FC3
ENCODING 20419
SWIDTH 900 0
DWIDTH 10 0
BBX 9 9 1 -1
BITMAP
2F80
2880
4F80
4200
C200
4B80
4A00
4E00
5380
ENDCHAR
STARTCHAR 4FC4
ENCODING 20420
SWIDTH 900 0
DWIDTH 10 0
BBX 9 9 1 -1
BITMAP
2600
3A80
4A00
5F80
CA00
4E80
5A80
4900
5A80
ENDCHAR
STARTCHAR 4FC5
ENCODING 20421
SWIDTH 990 0
DWIDTH 11 0
BBX 9 10 1 -1
BITMAP
0100
4400
4F80
4200
CF80
4500
4D00
5480
4400
4400
ENDCHAR
STARTCHAR 4FC6
ENCODING 20422
SWIDTH 990 0
DWIDTH 11 0
BBX 9 9 1 0
BITMAP
2600
4A00
5100
DE80
4400
5F80
4400
6480
6400
ENDCHAR
STARTCHAR 4FC8
ENCODING 20424
SWIDTH 990 0
DWIDTH 11 0
BBX 9 10 1 -1
BITMAP
2000
5400
6F00
6400
DB80
4000
5F00
5100
5100
4F00
ENDCHAR
STARTCHAR 4FC9
ENCODING 20425
SWIDTH 990 0
DWIDTH 11 0
BBX 10 10 1 -1
BITMAP
1F80
4800
4F00
4900
FFC0
4000
5F00
5100
5100
4F00
ENDCHAR
STARTCHAR 4FCA
ENCODING 20426
SWIDTH 900 0
DWIDTH 10 0
BBX 9 9 1 -1
BITMAP
2400
2900
5F80
4A00
D380
4700
5900
4600
5980
ENDCHAR
STARTCHAR 4FCB
ENCODING 20427
SWIDTH 990 0
DWIDTH 11 0
BBX 9 10 1 -1
BITMAP
0F00
5100
5100
4E00
DF80
5480
5F80
5000
5000
5F80
ENDCHAR
STARTCHAR 4FCC
ENCODING 20428
SWIDTH 990 0
DWIDTH 11 0
BBX 9 10 1 -1
BITMAP
0100
4400
5F80
5F00
D480
5F80
5480
5F80
5480
5080
ENDCHAR
STARTCHAR 4FCD
ENCODING 20429
SWIDTH 990 0
DWIDTH 11 0
BBX 9 10 1 -1
BITMAP
0200
2F00
4900
4F00
C900
4F00
4A80
4900
4D00
1080
ENDCHAR
STARTCHAR 4FCE
ENCODING 20430
SWIDTH 900 0
DWIDTH 10 0
BBX 9 9 1 -1
BITMAP
4700
4500
A700
8500
0500
4700
4500
A500
8F80
ENDCHAR
STARTCHAR 4FCF
ENCODING 20431
SWIDTH 990 0
DWIDTH 11 0
BBX 9 10 1 -1
BITMAP
0200
2A80
5280
5F00
C880
4F80
4880
4F80
4880
0800
ENDCHAR
STARTCHAR 4FD0
ENCODING 20432
SWIDTH 900 0
DWIDTH 10 0
BBX 9 9 1 -1
BITMAP
2480
3A80
4A80
5E80
CA80
4E80
5A80
4880
4980
ENDCHAR
STARTCHAR 4FD1
ENCODING 20433
SWIDTH 900 0
DWIDTH 10 0
BBX 9 9 1 -1
BITMAP
2F80
2300
4F80
4A80
CF80
4A80
4F80
4A80
4A80
ENDCHAR
STARTCHAR 4FD2
ENCODING 20434
SWIDTH 990 0
DWIDTH 11 0
BBX 10 10 0 -1
BITMAP
0200
0200
5DC0
5F80
C000
5FC0
4600
4A00
4A40
11C0
ENDCHAR
STARTCHAR 4FD4
ENCODING 20436
SWIDTH 900 0
DWIDTH 10 0
BBX 9 9 1 -1
BITMAP
2F00
2900
4F00
4900
CF00
4900
4F00
4A00
5380
ENDCHAR
STARTCHAR 4FD7
ENCODING 20439
SWIDTH 900 0
DWIDTH 10 0
BBX 9 9 1 -1
BITMAP
2900
3080
4600
4900
D080
4F00
4900
4900
4F00
ENDCHAR
STARTCHAR 4FD8
ENCODING 20440
SWIDTH 900 0
DWIDTH 10 0
BBX 9 9 1 -1
BITMAP
2300
2D00
5480
4000
CF00
4200
5F80
4200
4600
ENDCHAR
STARTCHAR 4FDA
ENCODING 20442
SWIDTH 900 0
DWIDTH 10 0
BBX 9 9 1 -1
BITMAP
2F80
2A80
4F80
4A80
CF80
4200
4F80
4200
5F80
ENDCHAR
STARTCHAR 4FDB
ENCODING 20443
SWIDTH 900 0
DWIDTH 10 0
BBX 9 9 1 -1
BITMAP
2700
2900
5F80
4A80
CA80
4F80
4600
4A80
5380
ENDCHAR
STARTCHAR 4FDC
ENCODING 20444
SWIDTH 990 0
DWIDTH 11 0
BBX 10 9 1 0
BITMAP
5F80
5480
5F80
CB00
7FC0
4800
4700
4100
4200
ENDCHAR
STARTCHAR 4FDD
ENCODING 20445
SWIDTH 900 0
DWIDTH 10 0
BBX 9 9 1 -1
BITMAP
2F80
2880
4880
4F80
C200
4F80
4200
4700
4A80
ENDCHAR
STARTCHAR 4FDF
ENCODING 20447
SWIDTH 900 0
DWIDTH 10 0
BBX 9 9 1 -1
BITMAP
2200
2480
4F80
4400
CF80
4200
4F80
4500
4880
ENDCHAR
STARTCHAR 4FE0
ENCODING 20448
SWIDTH 990 0
DWIDTH 11 0
BBX 10 10 0 -1
BITMAP
0200
2200
5FC0
4A80
DF40
5D00
4500
4900
4880
1040
ENDCHAR
STARTCHAR 4FE1
ENCODING 20449
SWIDTH 900 0
DWIDTH 10 0
BBX 9 9 1 -1
BITMAP
2600
2000
5F80
4000
CF00
4000
4F00
4900
4F00
ENDCHAR
STARTCHAR 4FE2
ENCODING 20450
SWIDTH 990 0
DWIDTH 11 0
BBX 10 10 0 -1
BITMAP
0800
3FC0
4600
4980
D600
4500
4A00
4480
4300
0400
ENDCHAR
STARTCHAR 4FE3
ENCODING 20451
SWIDTH 900 0
DWIDTH 10 0
BBX 9 9 1 -1
BITMAP
2F00
2900
4F00
4000
CF00
4400
5F80
4A00
5180
ENDCHAR
STARTCHAR 4FE4
ENCODING 20452
SWIDTH 900 0
DWIDTH 10 0
BBX 9 9 1 -1
BITMAP
2500
2F80
4280
4F80
CA00
4F80
4680
4A80
5280
ENDCHAR
STARTCHAR 4FE5
ENCODING 20453
SWIDTH 900 0
DWIDTH 10 0
BBX 9 9 1 -1
BITMAP
2200
2F80
4200
4F80
CA80
4F80
4200
4F80
4200
ENDCHAR
STARTCHAR 4FEE
ENCODING 20462
SWIDTH 900 0
DWIDTH 10 0
BBX 9 9 1 -1
BITMAP
2400
2780
4D00
5200
D580
5100
5600
5180
4600
ENDCHAR
STARTCHAR 4FEF
ENCODING 20463
SWIDTH 900 0
DWIDTH 10 0
BBX 9 9 1 -1
BITMAP
2200
3F80
5000
5280
D780
5C80
5580
5480
5580
ENDCHAR
STARTCHAR 4FF0
ENCODING 20464
SWIDTH 990 0
DWIDTH 11 0
BBX 10 9 0 -1
BITMAP
1800
2800
29C0
4D40
CD40
5940
5940
6940
4880
ENDCHAR
STARTCHAR 4FF2
ENCODING 20466
SWIDTH 990 0
DWIDTH 11 0
BBX 9 9 1 0
BITMAP
2200
D780
AA80
C280
F280
9280
9280
AC80
C480
ENDCHAR
STARTCHAR 4FF3
ENCODING 20467
SWIDTH 900 0
DWIDTH 10 0
BBX 9 9 1 -1
BITMAP
2A00
2A00
5B80
4A00
DB80
4A00
5B80
4A00
5200
ENDCHAR
STARTCHAR 4FF5
ENCODING 20469
SWIDTH 900 0
DWIDTH 10 0
BBX 9 9 1 -1
BITMAP
2200
2F80
4200
4F80
C200
5F80
4A80
5900
4C80
ENDCHAR
STARTCHAR 4FF6
ENCODING 20470
SWIDTH 900 0
DWIDTH 10 0
BBX 9 9 1 -1
BITMAP
2800
2C00
4B80
5E80
CA80
4A80
5D00
4A80
5A80
ENDCHAR
STARTCHAR 4FF8
ENCODING 20472
SWIDTH 900 0
DWIDTH 10 0
BBX 10 9 0 -1
BITMAP
2200
2F80
4500
5FC0
CA80
5740
4200
4F80
4200
ENDCHAR
STARTCHAR 4FFA
ENCODING 20474
SWIDTH 900 0
DWIDTH 10 0
BBX 9 9 1 -1
BITMAP
2400
3F80
4A00
5500
FF80
5500
5F00
4480
4780
ENDCHAR
STARTCHAR 4FFC
ENCODING 20476
SWIDTH 990 0
DWIDTH 11 0
BBX 9 9 1 0
BITMAP
2F80
4F80
4000
DF80
4F80
5080
5F80
5080
4080
ENDCHAR
STARTCHAR 4FFD
ENCODING 20477
SWIDTH 990 0
DWIDTH 11 0
BBX 10 10 1 -1
BITMAP
1000
6400
C780
B980
D900
D300
D300
D500
D480
9840
ENDCHAR
STARTCHAR 4FFE
ENCODING 20478
SWIDTH 900 0
DWIDTH 10 0
BBX 9 9 1 -1
BITMAP
2200
2F80
4A80
4F80
CA80
4F80
4500
5F80
4100
ENDCHAR
STARTCHAR 4FFF
ENCODING 20479
SWIDTH 990 0
DWIDTH 11 0
BBX 10 10 1 -1
BITMAP
0400
0700
BB80
BF00
B100
AE00
C000
CA40
CA40
D180
ENDCHAR
STARTCHAR 5000
ENCODING 20480
SWIDTH 990 0
DWIDTH 11 0
BBX 9 10 1 -1
BITMAP
0700
5800
4F00
5000
DE00
5000
5F80
5300
5500
5880
ENDCHAR
STARTCHAR 5001
ENCODING 20481
SWIDTH 990 0
DWIDTH 11 0
BBX 10 10 0 -1
BITMAP
0800
3000
3FC0
4A40
DE40
4A40
4E40
4E40
5580
1200
ENDCHAR
STARTCHAR 5004
ENCODING 20484
SWIDTH 990 0
DWIDTH 11 0
BBX 9 10 1 -1
BITMAP
0D00
2700
4C00
4B80
D780
4F80
5080
5F80
5080
4080
ENDCHAR
STARTCHAR 5005
ENCODING 20485
SWIDTH 900 0
DWIDTH 10 0
BBX 9 9 1 -1
BITMAP
2200
2F80
4500
4500
CA80
4200
4F80
4200
4200
ENDCHAR
STARTCHAR 5006
ENCODING 20486
SWIDTH 900 0
DWIDTH 10 0
BBX 9 9 1 -1
BITMAP
3F80
2400
5F80
5480
DE80
5E80
5580
5480
5580
ENDCHAR
STARTCHAR 5007
ENCODING 20487
SWIDTH 990 0
DWIDTH 11 0
BBX 10 9 0 0
BITMAP
2200
2FC0
5040
C040
4780
4A80
4680
4640
09C0
ENDCHAR
STARTCHAR 5009
ENCODING 20489
SWIDTH 900 0
DWIDTH 10 0
BBX 9 9 1 -1
BITMAP
0800
3600
FF80
2200
3E00
2200
7F00
A100
3F00
ENDCHAR
STARTCHAR 500A
ENCODING 20490
SWIDTH 990 0
DWIDTH 11 0
BBX 10 10 1 -1
BITMAP
0200
2100
5880
4500
C980
4600
4200
5840
4840
4700
ENDCHAR
STARTCHAR 500B
ENCODING 20491
SWIDTH 900 0
DWIDTH 10 0
BBX 9 9 1 -1
BITMAP
3F80
3480
5E80
5480
DE80
5A80
5E80
5080
5F80
ENDCHAR
STARTCHAR 500C
ENCODING 20492
SWIDTH 990 0
DWIDTH 11 0
BBX 9 10 1 -1
BITMAP
2000
4400
5380
4080
CF00
4900
4E00
4F00
4900
4600
ENDCHAR
STARTCHAR 500D
ENCODING 20493
SWIDTH 900 0
DWIDTH 10 0
BBX 9 9 1 -1
BITMAP
2200
2F80
4500
5F80
C000
4F80
4880
4880
4F80
ENDCHAR
STARTCHAR 500E
ENCODING 20494
SWIDTH 990 0
DWIDTH 11 0
BBX 9 10 1 -1
BITMAP
0800
0C00
BF00
AD00
BF00
AD00
AD00
BF80
A200
C100
ENDCHAR
STARTCHAR 500F
ENCODING 20495
SWIDTH 900 0
DWIDTH 10 0
BBX 10 9 0 -1
BITMAP
2380
2680
5100
D6C0
5000
5140
57C0
5280
4440
ENDCHAR
STARTCHAR 5010
ENCODING 20496
SWIDTH 990 0
DWIDTH 11 0
BBX 10 10 0 -1
BITMAP
0200
2580
5700
5900
D100
5680
5940
5280
5280
0440
ENDCHAR
STARTCHAR 5011
ENCODING 20497
SWIDTH 900 0
DWIDTH 10 0
BBX 9 9 1 -1
BITMAP
2D80
2D80
4D80
4880
C880
4880
4880
4880
4980
ENDCHAR
STARTCHAR 5012
ENCODING 20498
SWIDTH 900 0
DWIDTH 10 0
BBX 9 9 1 -1
BITMAP
2080
3E80
4A80
5E80
C280
4A80
5E80
4880
5E80
ENDCHAR
STARTCHAR 5013
ENCODING 20499
SWIDTH 990 0
DWIDTH 11 0
BBX 10 9 0 0
BITMAP
22C0
2200
4440
C100
4740
4B80
4280
4480
0840
ENDCHAR
STARTCHAR 5014
ENCODING 20500
SWIDTH 900 0
DWIDTH 10 0
BBX 9 9 1 -1
BITMAP
2F80
2880
4F80
4A00
CA80
4F80
4A00
5A80
5780
ENDCHAR
STARTCHAR 5016
ENCODING 20502
SWIDTH 900 0
DWIDTH 10 0
BBX 9 9 1 -1
BITMAP
2400
2F00
4400
5F80
C900
5F80
4400
4F00
4400
ENDCHAR
STARTCHAR 5017
ENCODING 20503
SWIDTH 990 0
DWIDTH 11 0
BBX 10 10 0 -1
BITMAP
0C80
3540
3540
5DC0
D540
5540
5DC0
5540
5640
0040
ENDCHAR
STARTCHAR 5018
ENCODING 20504
SWIDTH 990 0
DWIDTH 11 0
BBX 10 10 0 -1
BITMAP
0200
2A40
5200
4FC0
D040
5240
5540
5540
5240
1040
ENDCHAR
STARTCHAR 5019
ENCODING 20505
SWIDTH 900 0
DWIDTH 10 0
BBX 9 9 1 -1
BITMAP
2700
2100
4F80
4200
D780
5200
5780
5300
4480
ENDCHAR
STARTCHAR 501A
ENCODING 20506
SWIDTH 900 0
DWIDTH 10 0
BBX 9 9 1 -1
BITMAP
2200
2F80
4200
4500
DF80
4100
4D00
4D00
4300
ENDCHAR
STARTCHAR 501B
ENCODING 20507
SWIDTH 990 0
DWIDTH 11 0
BBX 9 10 1 -1
BITMAP
0800
4A00
4F00
4A00
CE00
4E00
4A00
4A00
5780
6100
ENDCHAR
STARTCHAR 501C
ENCODING 20508
SWIDTH 990 0
DWIDTH 11 0
BBX 10 10 0 -1
BITMAP
0F80
3240
5740
5240
D740
5740
5940
6940
6640
20C0
ENDCHAR
STARTCHAR 501D
ENCODING 20509
SWIDTH 990 0
DWIDTH 11 0
BBX 10 10 1 -1
BITMAP
2000
FE00
7200
8A00
FB00
8D00
7500
2480
F880
2840
ENDCHAR
STARTCHAR 501E
ENCODING 20510
SWIDTH 990 0
DWIDTH 11 0
BBX 9 9 1 0
BITMAP
2400
5B80
4F00
D100
5100
4E00
4400
5480
4400
ENDCHAR
STARTCHAR 501F
ENCODING 20511
SWIDTH 900 0
DWIDTH 10 0
BBX 9 9 1 -1
BITMAP
2900
3F80
4900
5F80
C000
4F00
4900
4900
4F00
ENDCHAR
STARTCHAR 5021
ENCODING 20513
SWIDTH 900 0
DWIDTH 10 0
BBX 9 9 1 -1
BITMAP
2F00
2900
4F00
4900
DF80
5080
5F80
5080
5F80
ENDCHAR
STARTCHAR 5022
ENCODING 20514
SWIDTH 990 0
DWIDTH 11 0
BBX 9 10 1 -1
BITMAP
0400
5F80
5F00
4500
CF80
4E00
5400
5700
6C00
6300
ENDCHAR
STARTCHAR 5023
ENCODING 20515
SWIDTH 900 0
DWIDTH 10 0
BBX 10 9 0 -1
BITMAP
2500
2500
5FC0
4940
CF40
4B40
4A80
52C0
5740
ENDCHAR
STARTCHAR 5024
ENCODING 20516
SWIDTH 900 0
DWIDTH 10 0
BBX 9 9 1 -1
BITMAP
2200
2F80
4200
5700
D500
5500
5700
5000
5F80
ENDCHAR
STARTCHAR 5025
ENCODING 20517
SWIDTH 900 0
DWIDTH 10 0
BBX 9 9 1 -1
BITMAP
2200
2F80
4880
4500
C980
4000
4700
4200
4F80
ENDCHAR
STARTCHAR 5026
ENCODING 20518
SWIDTH 900 0
DWIDTH 10 0
BBX 10 9 0 -1
BITMAP
2A80
2F80
4500
5FC0
C880
5740
4700
4440
47C0
ENDCHAR
STARTCHAR 5027
ENCODING 20519
SWIDTH 990 0
DWIDTH 11 0
BBX 9 9 1 0
BITMAP
4400
5B80
5080
D680
4000
4F00
4D00
5500
4400
ENDCHAR
STARTCHAR 5028
ENCODING 20520
SWIDTH 900 0
DWIDTH 10 0
BBX 9 9 1 -1
BITMAP
2F80
2880
4F80
4900
CF80
4900
5780
5480
4780
ENDCHAR
STARTCHAR 5029
ENCODING 20521
SWIDTH 900 0
DWIDTH 10 0
BBX 10 9 0 -1
BITMAP
2200
2F80
4200
5FC0
CA80
4F80
4880
4880
4980
ENDCHAR
STARTCHAR 502A
ENCODING 20522
SWIDTH 900 0
DWIDTH 10 0
BBX 9 9 1 -1
BITMAP
2580
2880
4D80
4880
CF80
4500
4500
4500
4980
ENDCHAR
STARTCHAR 502B
ENCODING 20523
SWIDTH 900 0
DWIDTH 10 0
BBX 9 9 1 -1
BITMAP
2200
2500
4880
5700
C000
4F80
4A80
4F80
4A80
ENDCHAR
STARTCHAR 502C
ENCODING 20524
SWIDTH 900 0
DWIDTH 10 0
BBX 9 9 1 -1
BITMAP
2400
2700
4400
5F00
D100
5F00
4400
7F80
4400
ENDCHAR
STARTCHAR 502D
ENCODING 20525
SWIDTH 900 0
DWIDTH 10 0
BBX 9 9 1 -1
BITMAP
2F00
2400
5F80
4D00
D480
5F80
4900
4E00
5980
ENDCHAR
STARTCHAR 502E
ENCODING 20526
SWIDTH 990 0
DWIDTH 11 0
BBX 9 10 1 -1
BITMAP
0F00
3500
4F00
5500
CF00
4400
5F80
4D00
5480
6000
ENDCHAR
STARTCHAR 5030
ENCODING 20528
SWIDTH 990 0
DWIDTH 11 0
BBX 11 10 0 -1
BITMAP
0200
2F80
5DC0
4900
C920
31C0
4700
5D00
4600
19C0
ENDCHAR
STARTCHAR 5032
ENCODING 20530
SWIDTH 990 0
DWIDTH 11 0
BBX 10 9 1 0
BITMAP
3FC0
4F00
5500
CF00
5500
4E00
4E00
5500
6080
ENDCHAR
STARTCHAR 5033
ENCODING 20531
SWIDTH 990 0
DWIDTH 11 0
BBX 11 9 0 0
BITMAP
3FC0
2F80
4A80
C700
4780
5FE0
4280
4700
0200
ENDCHAR
STARTCHAR 5035
ENCODING 20533
SWIDTH 990 0
DWIDTH 11 0
BBX 10 10 0 -1
BITMAP
0080
3D00
4100
4FC0
C900
5700
5900
5880
5AC0
1440
ENDCHAR
STARTCHAR 5036
ENCODING 20534
SWIDTH 900 0
DWIDTH 10 0
BBX 9 9 1 -1
BITMAP
2F00
2900
4F00
4900
CF00
4900
5F80
4900
5080
ENDCHAR
STARTCHAR 5039
ENCODING 20537
SWIDTH 900 0
DWIDTH 10 0
BBX 9 9 1 -1
BITMAP
2400
2A00
5F00
6480
DF00
5500
5F00
4A00
5100
ENDCHAR
STARTCHAR 503B
ENCODING 20539
SWIDTH 990 0
DWIDTH 11 0
BBX 11 10 0 -1
BITMAP
1F40
3340
3340
5F80
D340
5F40
5320
5720
4B40
0200
ENDCHAR
STARTCHAR 5040
ENCODING 20544
SWIDTH 990 0
DWIDTH 11 0
BBX 10 10 0 -1
BITMAP
0400
2500
3EC0
4200
CF80
4A80
5FC0
4600
4500
08C0
ENDCHAR
STARTCHAR 5041
ENCODING 20545
SWIDTH 990 0
DWIDTH 11 0
BBX 10 10 0 -1
BITMAP
0700
3A40
2200
4200
CF80
4A80
4FC0
5FC0
4880
0880
ENDCHAR
STARTCHAR 5042
ENCODING 20546
SWIDTH 990 0
DWIDTH 11 0
BBX 10 10 0 -1
BITMAP
0400
2100
5FC0
4000
DD40
4D40
5540
4D40
5540
0440
ENDCHAR
STARTCHAR 5043
ENCODING 20547
SWIDTH 900 0
DWIDTH 10 0
BBX 9 9 1 -1
BITMAP
5F80
5500
5700
D200
5F80
5500
5300
5480
5F80
ENDCHAR
STARTCHAR 5045
ENCODING 20549
SWIDTH 990 0
DWIDTH 11 0
BBX 11 10 0 -1
BITMAP
0300
2600
3FC0
4F80
D280
5F80
4F00
4200
4F80
1FE0
ENDCHAR
STARTCHAR 5046
ENCODING 20550
SWIDTH 990 0
DWIDTH 11 0
BBX 10 10 1 -1
BITMAP
0400
4F00
4800
4F00
FFC0
5100
7F80
5F00
5100
4F00
ENDCHAR
STARTCHAR 5047
ENCODING 20551
SWIDTH 900 0
DWIDTH 10 0
BBX 10 9 0 -1
BITMAP
2EC0
2A40
4EC0
4800
CDC0
4940
4D40
4880
4940
ENDCHAR
STARTCHAR 5048
ENCODING 20552
SWIDTH 900 0
DWIDTH 10 0
BBX 9 9 1 -1
BITMAP
2F00
2900
4F00
4400
CF80
4A80
5480
4680
4100
ENDCHAR
STARTCHAR 5049
ENCODING 20553
SWIDTH 900 0
DWIDTH 10 0
BBX 9 9 1 -1
BITMAP
2800
3F00
4900
7F80
CA00
5F00
5400
7F80
4400
ENDCHAR
STARTCHAR 504A
ENCODING 20554
SWIDTH 990 0
DWIDTH 11 0
BBX 10 10 0 -1
BITMAP
0300
2600
2F80
4A80
C700
4FC0
5240
53C0
5040
0040
ENDCHAR
STARTCHAR 504C
ENCODING 20556
SWIDTH 990 0
DWIDTH 11 0
BBX 9 10 1 -1
BITMAP
0800
4A00
7D80
4800
D780
6F00
5100
5100
5100
4F00
ENDCHAR
STARTCHAR 504E
ENCODING 20558
SWIDTH 990 0
DWIDTH 11 0
BBX 11 10 0 -1
BITMAP
0F80
3240
5FC0
5240
CD80
5FE0
4A00
4980
4900
1CC0
ENDCHAR
STARTCHAR 504F
ENCODING 20559
SWIDTH 900 0
DWIDTH 10 0
BBX 9 9 1 -1
BITMAP
2F80
2000
4F80
4F80
C800
4F80
5A80
4F80
4A80
ENDCHAR
STARTCHAR 5050
ENCODING 20560
SWIDTH 900 0
DWIDTH 10 0
BBX 10 9 0 -1
BITMAP
2100
2FC0
4280
4FC0
C900
4A40
4980
4840
5380
ENDCHAR
STARTCHAR 5051
ENCODING 20561
SWIDTH 990 0
DWIDTH 11 0
BBX 10 10 1 -1
BITMAP
1E00
6100
C600
CA00
CE00
DD00
DD40
C540
C540
8AC0
ENDCHAR
STARTCHAR 5052
ENCODING 20562
SWIDTH 990 0
DWIDTH 11 0
BBX 10 10 0 -1
BITMAP
0700
2880
2F80
4F80
DFC0
4800
4F80
5680
4A80
1480
ENDCHAR
STARTCHAR 5053
ENCODING 20563
SWIDTH 990 0
DWIDTH 11 0
BBX 9 10 1 -1
BITMAP
0F00
5080
5F00
5000
EF00
6500
6E00
6200
4700
4F80
ENDCHAR
STARTCHAR 5055
ENCODING 20565
SWIDTH 900 0
DWIDTH 10 0
BBX 9 9 1 -1
BITMAP
2900
2D80
4900
5D80
C200
4F80
4880
4880
4F80
ENDCHAR
STARTCHAR 5056
ENCODING 20566
SWIDTH 900 0
DWIDTH 10 0
BBX 9 9 1 -1
BITMAP
2400
2F00
4600
5F80
C480
4F00
5900
4900
4F00
ENDCHAR
STARTCHAR 5057
ENCODING 20567
SWIDTH 990 0
DWIDTH 11 0
BBX 9 9 1 0
BITMAP
5480
6600
4400
FF00
5100
5F00
5F00
5100
4F00
ENDCHAR
STARTCHAR 5059
ENCODING 20569
SWIDTH 990 0
DWIDTH 11 0
BBX 11 10 0 -1
BITMAP
0100
2FC0
2480
4B00
CCE0
4140
4BC0
4940
4140
0100
ENDCHAR
STARTCHAR 505A
ENCODING 20570
SWIDTH 900 0
DWIDTH 10 0
BBX 9 9 1 -1
BITMAP
2A00
2A00
5F80
4A80
CA80
5E80
5500
5D00
4280
ENDCHAR
STARTCHAR 505C
ENCODING 20572
SWIDTH 900 0
DWIDTH 10 0
BBX 9 9 1 -1
BITMAP
2200
3F80
4F00
4900
DF80
5080
4F00
4200
4600
ENDCHAR
STARTCHAR 505F
ENCODING 20575
SWIDTH 990 0
DWIDTH 11 0
BBX 10 10 1 -1
BITMAP
0400
3B80
4F80
5080
CF00
4000
4F00
5F80
4400
5FC0
ENDCHAR
STARTCHAR 5060
ENCODING 20576
SWIDTH 990 0
DWIDTH 11 0
BBX 10 10 0 -1
BITMAP
1FC0
2500
5FC0
5540
D640
4400
4BC0
4900
4700
0C80
ENDCHAR
STARTCHAR 5062
ENCODING 20578
SWIDTH 990 0
DWIDTH 11 0
BBX 11 10 0 -1
BITMAP
1800
2900
4900
4DC0
CD80
5E80
5A80
6A40
4C40
0C20
ENDCHAR
STARTCHAR 5063
ENCODING 20579
SWIDTH 990 0
DWIDTH 11 0
BBX 10 9 1 0
BITMAP
2F00
4900
4200
DFC0
4000
5F00
4F00
5100
4F00
ENDCHAR
STARTCHAR 5065
ENCODING 20581
SWIDTH 900 0
DWIDTH 10 0
BBX 10 9 0 -1
BITMAP
2080
3DC0
44C0
49C0
DC80
45C0
5480
4880
57C0
ENDCHAR
STARTCHAR 5066
ENCODING 20582
SWIDTH 990 0
DWIDTH 11 0
BBX 9 10 1 -1
BITMAP
1F80
4480
4700
5E00
CF80
5080
5F80
5F80
5080
5000
ENDCHAR
STARTCHAR 5067
ENCODING 20583
SWIDTH 990 0
DWIDTH 11 0
BBX 10 9 1 0
BITMAP
2400
3F00
4900
D280
5580
5B00
4FC0
4E80
0F00
ENDCHAR
STARTCHAR 506A
ENCODING 20586
SWIDTH 990 0
DWIDTH 11 0
BBX 9 9 1 0
BITMAP
4F00
4F00
5100
CF00
4000
5F80
5F80
5480
4F00
ENDCHAR
STARTCHAR 506C
ENCODING 20588
SWIDTH 900 0
DWIDTH 10 0
BBX 9 9 1 -1
BITMAP
2800
2F80
5A80
4F80
D280
4580
4000
5480
5680
ENDCHAR
STARTCHAR 506D
ENCODING 20589
SWIDTH 990 0
DWIDTH 11 0
BBX 10 10 0 -1
BITMAP
1FC0
2200
4400
5FC0
D740
5540
5540
5740
5540
1A80
ENDCHAR
STARTCHAR 5070
ENCODING 20592
SWIDTH 990 0
DWIDTH 11 0
BBX 10 10 0 -1
BITMAP
0B80
2D40
4E40
4A40
CE40
4A40
5200
5FC0
4500
18C0
ENDCHAR
STARTCHAR 5071
ENCODING 20593
SWIDTH 990 0
DWIDTH 11 0
BBX 9 10 1 -1
BITMAP
2300
5C00
5780
5200
D380
5480
5780
6780
6480
6300
ENDCHAR
STARTCHAR 5072
ENCODING 20594
SWIDTH 900 0
DWIDTH 10 0
BBX 9 9 1 -1
BITMAP
2F80
2A80
4F80
4A80
CF80
4000
4200
5480
5680
ENDCHAR
STARTCHAR 5074
ENCODING 20596
SWIDTH 900 0
DWIDTH 10 0
BBX 10 9 0 -1
BITMAP
3C40
3540
5D40
5540
DD40
5540
5D40
4040
54C0
ENDCHAR
STARTCHAR 5075
ENCODING 20597
SWIDTH 900 0
DWIDTH 10 0
BBX 9 9 1 -1
BITMAP
2400
2780
4400
4F00
C900
4F00
4900
4F00
5080
ENDCHAR
STARTCHAR 5076
ENCODING 20598
SWIDTH 900 0
DWIDTH 10 0
BBX 9 9 1 -1
BITMAP
2F00
2B00
4D00
4F00
C400
5F80
5480
5680
5180
ENDCHAR
STARTCHAR 5078
ENCODING 20600
SWIDTH 900 0
DWIDTH 10 0
BBX 9 9 1 -1
BITMAP
2E00
2500
4B80
4000
CE80
4A80
4F00
4A80
4A80
ENDCHAR
STARTCHAR 507D
ENCODING 20605
SWIDTH 900 0
DWIDTH 10 0
BBX 9 9 1 -1
BITMAP
2A00
2F00
4500
4700
C900
4F80
5080
6A80
4100
ENDCHAR
STARTCHAR 5080
ENCODING 20608
SWIDTH 900 0
DWIDTH 10 0
BBX 9 9 1 -1
BITMAP
2800
5F00
5500
DF00
5500
5F80
4500
4C80
5780
ENDCHAR
STARTCHAR 5081
ENCODING 20609
SWIDTH 990 0
DWIDTH 11 0
BBX 9 10 1 -1
BITMAP
0700
5C80
5C80
5780
DC80
4300
4F00
4600
4200
5D80
ENDCHAR
STARTCHAR 5083
ENCODING 20611
SWIDTH 990 0
DWIDTH 11 0
BBX 10 9 1 0
BITMAP
3F80
4400
4F00
BFC0
4400
4A00
4580
4F00
1080
ENDCHAR
STARTCHAR 5084
ENCODING 20612
SWIDTH 990 0
DWIDTH 11 0
BBX 9 10 1 -1
BITMAP
0200
4780
4580
4880
DF00
4900
4F00
4F00
4900
4700
ENDCHAR
STARTCHAR 5085
ENCODING 20613
SWIDTH 900 0
DWIDTH 10 0
BBX 9 9 1 -1
BITMAP
2280
2F80
4200
4F80
CA80
4100
4F80
4500
4100
ENDCHAR
STARTCHAR 5086
ENCODING 20614
SWIDTH 990 0
DWIDTH 11 0
BBX 9 10 1 -1
BITMAP
0F80
5000
5780
5480
D780
6480
6300
6680
6A00
6200
ENDCHAR
STARTCHAR 508A
ENCODING 20618
SWIDTH 990 0
DWIDTH 11 0
BBX 9 10 1 -1
BITMAP
0700
3880
4F00
4F00
D080
5F80
4F80
5080
4F00
5080
ENDCHAR
STARTCHAR 508D
ENCODING 20621
SWIDTH 900 0
DWIDTH 10 0
BBX 9 9 1 -1
BITMAP
2400
3F80
4A00
5F80
D480
4F00
4600
4900
5300
ENDCHAR
STARTCHAR 508E
ENCODING 20622
SWIDTH 990 0
DWIDTH 11 0
BBX 9 10 1 -1
BITMAP
1080
5F00
5080
4F00
C480
5780
5780
5300
5000
5F80
ENDCHAR
STARTCHAR 508F
ENCODING 20623
SWIDTH 990 0
DWIDTH 11 0
BBX 11 9 0 0
BITMAP
3FE0
5000
5380
D780
6280
6100
6F80
6880
2780
ENDCHAR
STARTCHAR 5090
ENCODING 20624
SWIDTH 990 0
DWIDTH 11 0
BBX 10 9 0 0
BITMAP
2F80
4780
4880
C700
4FC0
5040
5740
5340
0040
ENDCHAR
STARTCHAR 5091
ENCODING 20625
SWIDTH 900 0
DWIDTH 10 0
BBX 9 9 1 -1
BITMAP
2D00
2B80
5500
C780
4900
4200
5F80
4B00
5280
ENDCHAR
STARTCHAR 5092
ENCODING 20626
SWIDTH 990 0
DWIDTH 11 0
BBX 9 10 1 -1
BITMAP
0F80
2200
4400
4600
C480
4300
4200
4F80
4500
0880
ENDCHAR
STARTCHAR 5093
ENCODING 20627
SWIDTH 990 0
DWIDTH 11 0
BBX 10 10 0 -1
BITMAP
0700
3800
3FC0
4FC0
D000
5F80
5740
5A40
5FC0
0680
ENDCHAR
STARTCHAR 5094
ENCODING 20628
SWIDTH 990 0
DWIDTH 11 0
BBX 11 10 0 -1
BITMAP
0500
2F00
2580
4780
DFE0
4580
4700
4500
5DC0
0500
ENDCHAR
STARTCHAR 5096
ENCODING 20630
SWIDTH 990 0
DWIDTH 11 0
BBX 9 10 1 -1
BITMAP
0400
4A00
5100
6E80
DF00
5F00
5E00
6F00
7100
4F00
ENDCHAR
STARTCHAR 5098
ENCODING 20632
SWIDTH 900 0
DWIDTH 10 0
BBX 9 9 1 -1
BITMAP
0800
3600
C980
4900
AA80
4900
AA80
FF80
0800
ENDCHAR
STARTCHAR 5099
ENCODING 20633
SWIDTH 900 0
DWIDTH 10 0
BBX 10 9 0 -1
BITMAP
2480
2FC0
4480
5FC0
D000
57C0
5540
57C0
5540
ENDCHAR
STARTCHAR 509A
ENCODING 20634
SWIDTH 900 0
DWIDTH 10 0
BBX 9 9 1 -1
BITMAP
2900
3D00
4380
D680
4280
5680
4900
5500
4280
ENDCHAR
STARTCHAR 509B
ENCODING 20635
SWIDTH 990 0
DWIDTH 11 0
BBX 10 9 0 0
BITMAP
2200
3DC0
5B40
C580
4480
4FC0
4880
4880
0700
ENDCHAR
STARTCHAR 509C
ENCODING 20636
SWIDTH 990 0
DWIDTH 11 0
BBX 9 10 1 -1
BITMAP
0800
5780
5100
4E00
D000
5F80
4400
5F80
5480
4F00
ENDCHAR
STARTCHAR 509E
ENCODING 20638
SWIDTH 990 0
DWIDTH 11 0
BBX 10 10 0 -1
BITMAP
0800
2500
2A80
4F80
C200
4DC0
4800
4B80
5100
07C0
ENDCHAR
STARTCHAR 509F
ENCODING 20639
SWIDTH 990 0
DWIDTH 11 0
BBX 9 10 1 -1
BITMAP
0600
4A00
5180
4800
D300
4C00
7B80
5A80
7D80
6F00
ENDCHAR
STARTCHAR 50A0
ENCODING 20640
SWIDTH 990 0
DWIDTH 11 0
BBX 10 10 1 -1
BITMAP
3000
0100
B7C0
8100
8500
B500
8300
F100
D100
B100
ENDCHAR
STARTCHAR 50A1
ENCODING 20641
SWIDTH 990 0
DWIDTH 11 0
BBX 11 10 0 -1
BITMAP
0080
1080
5DC0
4000
D940
5980
5980
5C80
4080
03E0
ENDCHAR
STARTCHAR 50A2
ENCODING 20642
SWIDTH 990 0
DWIDTH 11 0
BBX 10 9 0 0
BITMAP
2FC0
2040
4300
C600
4280
4500
4B80
4640
0800
ENDCHAR
STARTCHAR 50AA
ENCODING 20650
SWIDTH 990 0
DWIDTH 11 0
BBX 9 10 1 -1
BITMAP
0800
3F80
5280
6B00
C600
5980
4E00
4200
5C00
4E00
ENDCHAR
STARTCHAR 50AC
ENCODING 20652
SWIDTH 900 0
DWIDTH 10 0
BBX 9 9 1 -1
BITMAP
2A80
2A80
4F80
4500
CF80
5A00
4F00
4A00
4F80
ENDCHAR
STARTCHAR 50AD
ENCODING 20653
SWIDTH 900 0
DWIDTH 10 0
BBX 9 9 1 -1
BITMAP
2400
3F80
5200
5700
D980
5700
5A80
5F80
4A80
ENDCHAR
STARTCHAR 50AF
ENCODING 20655
SWIDTH 990 0
DWIDTH 11 0
BBX 11 10 0 -1
BITMAP
0200
2FC0
2B40
4D40
C940
4A40
4780
4900
5420
0380
ENDCHAR
STARTCHAR 50B0
ENCODING 20656
SWIDTH 990 0
DWIDTH 11 0
BBX 10 9 0 0
BITMAP
2240
3240
4FC0
C000
5DC0
55C0
5540
55C0
1440
ENDCHAR
STARTCHAR 50B2
ENCODING 20658
SWIDTH 900 0
DWIDTH 10 0
BBX 10 9 0 -1
BITMAP
2880
3E80
49C0
5F40
C940
4F40
4A80
4A80
5740
ENDCHAR
STARTCHAR 50B3
ENCODING 20659
SWIDTH 900 0
DWIDTH 10 0
BBX 9 9 1 -1
BITMAP
2400
3F80
4B00
4D00
DE80
4100
5F80
4900
4300
ENDCHAR
STARTCHAR 50B4
ENCODING 20660
SWIDTH 900 0
DWIDTH 10 0
BBX 9 9 1 -1
BITMAP
3F80
5000
5700
D500
5F80
5A80
5F80
5000
5F80
ENDCHAR
STARTCHAR 50B5
ENCODING 20661
SWIDTH 900 0
DWIDTH 10 0
BBX 9 9 1 -1
BITMAP
2400
2F00
4400
5F80
C900
4F00
4900
4F00
5080
ENDCHAR
STARTCHAR 50B7
ENCODING 20663
SWIDTH 900 0
DWIDTH 10 0
BBX 9 9 1 -1
BITMAP
2800
2F80
5500
4500
DF80
4800
4F80
5280
4580
ENDCHAR
STARTCHAR 50B9
ENCODING 20665
SWIDTH 990 0
DWIDTH 11 0
BBX 11 10 0 -1
BITMAP
0200
2D80
4500
5AC0
DF80
5F80
4F80
4100
4920
31E0
ENDCHAR
STARTCHAR 50BA
ENCODING 20666
SWIDTH 990 0
DWIDTH 11 0
BBX 11 10 0 -1
BITMAP
0580
2D40
3480
4880
D260
4000
4FC0
4A80
5240
0200
ENDCHAR
STARTCHAR 50BD
ENCODING 20669
SWIDTH 990 0
DWIDTH 11 0
BBX 9 9 1 0
BITMAP
2F00
4200
4D80
CF00
4F00
5100
4E00
4F00
4000
ENDCHAR
STARTCHAR 50BE
ENCODING 20670
SWIDTH 900 0
DWIDTH 10 0
BBX 9 9 1 -1
BITMAP
2780
2100
5380
5A80
D380
5280
5B80
4000
4280
ENDCHAR
STARTCHAR 50C0
ENCODING 20672
SWIDTH 990 0
DWIDTH 11 0
BBX 9 10 1 -1
BITMAP
0900
2D00
7F80
AD80
8180
BF80
8400
BF00
A400
8400
ENDCHAR
STARTCHAR 50C2
ENCODING 20674
SWIDTH 900 0
DWIDTH 10 0
BBX 10 9 0 -1
BITMAP
2200
2F80
4A80
5FC0
CA80
5FC0
4500
4300
5CC0
ENDCHAR
STARTCHAR 50C3
ENCODING 20675
SWIDTH 990 0
DWIDTH 11 0
BBX 10 9 0 0
BITMAP
3FC0
4F80
5040
DF40
4F40
5540
5F40
5540
0180
ENDCHAR
STARTCHAR 50C4
ENCODING 20676
SWIDTH 990 0
DWIDTH 11 0
BBX 10 10 0 -1
BITMAP
1FC0
2500
5FC0
5540
CA80
4780
4000
4FC0
52C0
0200
ENDCHAR
STARTCHAR 50C5
ENCODING 20677
SWIDTH 900 0
DWIDTH 10 0
BBX 9 9 1 -1
BITMAP
2A00
3F80
5F00
5500
DF00
4400
5F00
4400
5F80
ENDCHAR
STARTCHAR 50C7
ENCODING 20679
SWIDTH 990 0
DWIDTH 11 0
BBX 9 10 1 -1
BITMAP
1B00
7A80
6D80
7680
CA00
5100
4E80
4200
5D00
4E00
ENDCHAR
STARTCHAR 50C9
ENCODING 20681
SWIDTH 900 0
DWIDTH 10 0
BBX 9 9 1 -1
BITMAP
0800
3600
DD80
0000
F780
9480
F780
4200
9480
ENDCHAR
STARTCHAR 50CA
ENCODING 20682
SWIDTH 900 0
DWIDTH 10 0
BBX 10 9 0 -1
BITMAP
2F80
2500
4F80
4A80
CF80
4700
4980
5640
4780
ENDCHAR
STARTCHAR 50CC
ENCODING 20684
SWIDTH 990 0
DWIDTH 11 0
BBX 10 10 0 -1
BITMAP
0800
1E00
4BC0
7E80
EE80
7E80
5D00
4900
5E80
0A40
ENDCHAR
STARTCHAR 50CD
ENCODING 20685
SWIDTH 900 0
DWIDTH 10 0
BBX 10 9 0 -1
BITMAP
2F00
2500
5FC0
5540
DF40
5540
5F40
4540
5EC0
ENDCHAR
STARTCHAR 50CE
ENCODING 20686
SWIDTH 990 0
DWIDTH 11 0
BBX 10 10 0 -1
BITMAP
0880
3540
4D80
5300
D540
4D80
4F80
4500
4BC0
1880
ENDCHAR
STARTCHAR 50CF
ENCODING 20687
SWIDTH 900 0
DWIDTH 10 0
BBX 9 9 1 -1
BITMAP
2600
2A00
5F80
4A80
CF80
4600
5B80
4500
5A80
ENDCHAR
STARTCHAR 50D0
ENCODING 20688
SWIDTH 990 0
DWIDTH 11 0
BBX 9 10 1 -1
BITMAP
0800
3F80
4400
4F00
DF00
4D00
5280
5F00
5100
4F00
ENDCHAR
STARTCHAR 50D1
ENCODING 20689
SWIDTH 900 0
DWIDTH 10 0
BBX 9 9 1 -1
BITMAP
2F00
2400
5F80
4900
D680
4000
5F80
5680
5180
ENDCHAR
STARTCHAR 50D3
ENCODING 20691
SWIDTH 990 0
DWIDTH 11 0
BBX 11 10 0 -1
BITMAP
0200
2F80
4700
7FE0
C000
5F80
5F80
5F80
4F80
1080
ENDCHAR
STARTCHAR 50D4
ENCODING 20692
SWIDTH 990 0
DWIDTH 11 0
BBX 10 10 0 -1
BITMAP
0100
2880
3FC0
4FC0
D4C0
5B40
4F80
5FC0
4500
0100
ENDCHAR
STARTCHAR 50D5
ENCODING 20693
SWIDTH 900 0
DWIDTH 10 0
BBX 9 9 1 -1
BITMAP
2A80
2200
4F80
4500
CF80
4200
4F80
4500
4880
ENDCHAR
STARTCHAR 50D6
ENCODING 20694
SWIDTH 900 0
DWIDTH 10 0
BBX 9 9 1 -1
BITMAP
2400
3F80
4F00
4900
CF00
4600
5F80
4900
4F00
ENDCHAR
STARTCHAR 50D8
ENCODING 20696
SWIDTH 990 0
DWIDTH 11 0
BBX 9 10 1 -1
BITMAP
1000
1600
D380
BF00
C700
D700
F500
F500
C680
C600
ENDCHAR
STARTCHAR 50DA
ENCODING 20698
SWIDTH 900 0
DWIDTH 10 0
BBX 9 9 1 -1
BITMAP
2400
3F80
5680
4F00
D980
4F00
4400
5500
4C80
ENDCHAR
STARTCHAR 50DC
ENCODING 20700
SWIDTH 990 0
DWIDTH 11 0
BBX 10 10 0 -1
BITMAP
0C00
2380
2500
48C0
C700
4F80
4880
4700
4100
0EC0
ENDCHAR
STARTCHAR 50DD
ENCODING 20701
SWIDTH 990 0
DWIDTH 11 0
BBX 11 10 0 -1
BITMAP
0F80
3040
5F80
5780
DFE0
6000
6FC0
6880
6CC0
2080
ENDCHAR
STARTCHAR 50DE
ENCODING 20702
SWIDTH 900 0
DWIDTH 10 0
BBX 9 9 1 -1
BITMAP
2F00
2500
4E00
4A00
CF00
4900
5F80
5080
4A80
ENDCHAR
STARTCHAR 50DF
ENCODING 20703
SWIDTH 990 0
DWIDTH 11 0
BBX 10 10 1 -1
BITMAP
0500
2680
B500
A580
BA40
8400
BB80
B280
A180
0680
ENDCHAR
STARTCHAR 50E2
ENCODING 20706
SWIDTH 990 0
DWIDTH 11 0
BBX 9 10 1 -1
BITMAP
1E00
0000
9200
BF80
8000
B200
BF00
9A00
A700
C000
ENDCHAR
STARTCHAR 50E3
ENCODING 20707
SWIDTH 900 0
DWIDTH 10 0
BBX 9 9 1 -1
BITMAP
2900
3B80
4900
5B80
C900
5E80
4900
4900
4F00
ENDCHAR
STARTCHAR 50E4
ENCODING 20708
SWIDTH 990 0
DWIDTH 11 0
BBX 10 10 0 -1
BITMAP
0880
3540
3880
4F80
D280
5F80
4F80
4200
4FC0
0200
ENDCHAR
STARTCHAR 50E5
ENCODING 20709
SWIDTH 900 0
DWIDTH 10 0
BBX 9 9 1 -1
BITMAP
2400
2F00
5F80
4900
DF80
4900
5F80
4A00
5380
ENDCHAR
STARTCHAR 50E6
ENCODING 20710
SWIDTH 990 0
DWIDTH 11 0
BBX 9 9 1 0
BITMAP
2280
D200
B380
D200
D200
A600
A600
EE80
8180
ENDCHAR
STARTCHAR 50E7
ENCODING 20711
SWIDTH 900 0
DWIDTH 10 0
BBX 9 9 1 -1
BITMAP
2500
2F80
4A80
4F80
CA80
4F80
4500
4500
4700
ENDCHAR
STARTCHAR 50E8
ENCODING 20712
SWIDTH 990 0
DWIDTH 11 0
BBX 11 9 0 0
BITMAP
3FC0
3FE0
4800
CF80
4F80
4880
4F80
4780
0880
ENDCHAR
STARTCHAR 50E9
ENCODING 20713
SWIDTH 990 0
DWIDTH 11 0
BBX 10 10 0 -1
BITMAP
0C80
3540
5DC0
5CC0
D340
5540
5740
5740
5140
1040
ENDCHAR
STARTCHAR 50ED
ENCODING 20717
SWIDTH 900 0
DWIDTH 10 0
BBX 9 9 1 -1
BITMAP
2900
3B00
5F80
4900
D280
4F00
4900
4900
4F00
ENDCHAR
STARTCHAR 50EE
ENCODING 20718
SWIDTH 900 0
DWIDTH 10 0
BBX 9 9 1 -1
BITMAP
2400
3F80
4900
5F80
CD00
4F00
4F00
4400
5F80
ENDCHAR
STARTCHAR 50EF
ENCODING 20719
SWIDTH 990 0
DWIDTH 11 0
BBX 10 10 0 -1
BITMAP
1200
0380
7FC0
4A80
B200
6BC0
3D00
5500
53C0
2000
ENDCHAR
STARTCHAR 50F1
ENCODING 20721
SWIDTH 990 0
DWIDTH 11 0
BBX 10 10 0 -1
BITMAP
0700
3F80
5040
5F80
D500
5F80
5780
5500
6700
0280
ENDCHAR
STARTCHAR 50F2
ENCODING 20722
SWIDTH 990 0
DWIDTH 11 0
BBX 9 10 1 -1
BITMAP
7F80
8A00
BF80
AA80
9F00
A000
D780
FA00
A780
C000
ENDCHAR
STARTCHAR 50F5
ENCODING 20725
SWIDTH 900 0
DWIDTH 10 0
BBX 9 9 1 -1
BITMAP
2F80
2D00
4F00
4000
DF80
4D00
4F00
4000
5F80
ENDCHAR
STARTCHAR 50F6
ENCODING 20726
SWIDTH 990 0
DWIDTH 11 0
BBX 11 10 0 -1
BITMAP
0780
2B80
2B80
4700
CFC0
5340
5FC0
5360
4EA0
03C0
ENDCHAR
STARTCHAR 50F9
ENCODING 20729
SWIDTH 900 0
DWIDTH 10 0
BBX 9 9 1 -1
BITMAP
2F80
2500
4F80
4F80
C500
4700
4500
4700
4880
ENDCHAR
STARTCHAR 50FA
ENCODING 20730
SWIDTH 990 0
DWIDTH 11 0
BBX 10 9 0 -1
BITMAP
0700
2880
4700
4CC0
D540
4880
4FC0
4700
4AC0
ENDCHAR
STARTCHAR 50FB
ENCODING 20731
SWIDTH 900 0
DWIDTH 10 0
BBX 9 9 1 -1
BITMAP
2100
3D00
5780
5E80
D380
7D00
5500
5F80
4100
ENDCHAR
STARTCHAR 50FE
ENCODING 20734
SWIDTH 990 0
DWIDTH 11 0
BBX 10 10 0 -1
BITMAP
0F00
2280
5F40
4C80
C400
4300
4700
4D00
5200
0D80
ENDCHAR
STARTCHAR 5100
ENCODING 20736
SWIDTH 900 0
DWIDTH 10 0
BBX 9 9 1 -1
BITMAP
2500
2F80
4200
4F80
C200
5F80
4A80
5D00
4A80
ENDCHAR
STARTCHAR 5101
ENCODING 20737
SWIDTH 900 0
DWIDTH 10 0
BBX 9 9 1 -1
BITMAP
2500
2F80
5A00
4F80
C000
4D80
4F80
4880
4980
ENDCHAR
STARTCHAR 5102
ENCODING 20738
SWIDTH 900 0
DWIDTH 10 0
BBX 9 9 1 -1
BITMAP
2500
2F80
4A80
4F80
C800
4F80
4A80
4B00
5280
ENDCHAR
STARTCHAR 5103
ENCODING 20739
SWIDTH 990 0
DWIDTH 11 0
BBX 10 9 0 0
BITMAP
2F80
5FC0
5740
D240
4F80
4F80
4F80
4700
1FC0
ENDCHAR
STARTCHAR 5104
ENCODING 20740
SWIDTH 900 0
DWIDTH 10 0
BBX 9 9 1 -1
BITMAP
2200
2F80
4500
5F80
C900
4F00
4200
5480
5680
ENDCHAR
STARTCHAR 5106
ENCODING 20742
SWIDTH 990 0
DWIDTH 11 0
BBX 9 10 1 -1
BITMAP
2200
3200
ED80
8500
FD00
8B00
F900
D900
AB00
8C80
ENDCHAR
STARTCHAR 5107
ENCODING 20743
SWIDTH 990 0
DWIDTH 11 0
BBX 10 10 0 -1
BITMAP
0F80
3540
5A80
5FC0
C700
4880
4F80
4A40
5980
1EC0
ENDCHAR
STARTCHAR 5108
ENCODING 20744
SWIDTH 990 0
DWIDTH 11 0
BBX 10 10 0 -1
BITMAP
0200
2500
4880
5740
DFC0
4FC0
4780
4880
4F80
0780
ENDCHAR
STARTCHAR 5109
ENCODING 20745
SWIDTH 900 0
DWIDTH 10 0
BBX 9 9 1 -1
BITMAP
2600
2900
5680
4000
CF80
4A80
4F80
4500
4A80
ENDCHAR
STARTCHAR 510B
ENCODING 20747
SWIDTH 990 0
DWIDTH 11 0
BBX 11 10 0 -1
BITMAP
0700
2900
2FE0
5540
C880
5300
5780
5780
5780
1380
ENDCHAR
STARTCHAR 510C
ENCODING 20748
SWIDTH 990 0
DWIDTH 11 0
BBX 9 10 1 -1
BITMAP
1000
6C00
FF80
BD00
9D00
A500
A200
BA00
AB00
CC80
ENDCHAR
STARTCHAR 510D
ENCODING 20749
SWIDTH 990 0
DWIDTH 11 0
BBX 11 10 0 -1
BITMAP
0700
3640
5340
4D80
C920
4920
54C0
4F00
5200
1DC0
ENDCHAR
STARTCHAR 510E
ENCODING 20750
SWIDTH 990 0
DWIDTH 11 0
BBX 11 10 0 -1
BITMAP
0180
2D40
5FE0
5F00
C900
5F40
5F80
4C80
5FC0
0240
ENDCHAR
STARTCHAR 5110
ENCODING 20752
SWIDTH 990 0
DWIDTH 11 0
BBX 9 10 1 -1
BITMAP
0400
3B80
7F80
4C00
F600
5E00
5F00
5F00
5100
5E00
ENDCHAR
STARTCHAR 5112
ENCODING 20754
SWIDTH 900 0
DWIDTH 10 0
BBX 10 9 0 -1
BITMAP
3FC0
2200
5FC0
5240
C000
5FC0
4400
5FC0
5540
ENDCHAR
STARTCHAR 5114
ENCODING 20756
SWIDTH 900 0
DWIDTH 10 0
BBX 9 9 1 -1
BITMAP
2400
2F00
5F80
4080
CF00
4400
5F80
4D00
4300
ENDCHAR
STARTCHAR 5115
ENCODING 20757
SWIDTH 900 0
DWIDTH 10 0
BBX 9 9 1 -1
BITMAP
2400
3F80
4D00
5280
C900
4F00
4900
4F00
5100
ENDCHAR
STARTCHAR 5116
ENCODING 20758
SWIDTH 900 0
DWIDTH 10 0
BBX 9 9 1 -1
BITMAP
2D00
2980
4C00
4980
CC00
4000
4F80
4A80
5F80
ENDCHAR
STARTCHAR 5117
ENCODING 20759
SWIDTH 990 0
DWIDTH 11 0
BBX 10 10 0 -1
BITMAP
0180
1880
6100
5C00
C3C0
5900
4900
4B80
5B00
14C0
ENDCHAR
STARTCHAR 5118
ENCODING 20760
SWIDTH 900 0
DWIDTH 10 0
BBX 10 9 0 -1
BITMAP
2200
2780
5AC0
4780
CA80
5540
4F80
4A80
5FC0
ENDCHAR
STARTCHAR 5119
ENCODING 20761
SWIDTH 990 0
DWIDTH 11 0
BBX 9 10 1 -1
BITMAP
0200
2700
8700
A200
8D80
EF00
AE00
AF00
A700
DF80
ENDCHAR
STARTCHAR 511A
ENCODING 20762
SWIDTH 900 0
DWIDTH 10 0
BBX 10 9 0 -1
BITMAP
2500
2FC0
4A80
5FC0
D440
4780
4C80
4380
4E00
ENDCHAR
STARTCHAR 511B
ENCODING 20763
SWIDTH 990 0
DWIDTH 11 0
BBX 10 10 1 -1
BITMAP
2000
3F80
ED00
FF80
AD00
FF80
A000
DF00
9FC0
E000
ENDCHAR
STARTCHAR 511C
ENCODING 20764
SWIDTH 990 0
DWIDTH 11 0
BBX 9 9 1 0
BITMAP
1F00
8500
B000
8600
BF00
BF80
FF80
8800
8800
ENDCHAR
STARTCHAR 511D
ENCODING 20765
SWIDTH 990 0
DWIDTH 11 0
BBX 10 9 0 -1
BITMAP
0080
2880
4140
56C0
C200
4780
4700
4680
4A40
ENDCHAR
STARTCHAR 511E
ENCODING 20766
SWIDTH 990 0
DWIDTH 11 0
BBX 10 10 0 -1
BITMAP
1FC0
2280
3240
57C0
D6C0
51C0
5240
56C0
51C0
0040
ENDCHAR
STARTCHAR 511F
ENCODING 20767
SWIDTH 900 0
DWIDTH 10 0
BBX 9 9 1 -1
BITMAP
2900
3F80
5680
4000
CF00
4900
4900
4F00
5080
ENDCHAR
STARTCHAR 5121
ENCODING 20769
SWIDTH 900 0
DWIDTH 10 0
BBX 9 9 1 -1
BITMAP
2F00
2D00
4B00
4F00
C000
5F80
5680
5D80
5F80
ENDCHAR
STARTCHAR 5123
ENCODING 20771
SWIDTH 990 0
DWIDTH 11 0
BBX 11 9 0 0
BITMAP
3FE0
5FC0
5280
D100
5380
57C0
67C0
6540
2680
ENDCHAR
STARTCHAR 5127
ENCODING 20775
SWIDTH 990 0
DWIDTH 11 0
BBX 11 10 0 -1
BITMAP
0880
3080
3FE0
5180
E140
5E80
5F80
4F80
4880
1780
ENDCHAR
STARTCHAR 5128
ENCODING 20776
SWIDTH 990 0
DWIDTH 11 0
BBX 10 10 0 -1
BITMAP
1980
2EC0
6A80
6F80
D080
5F80
4F80
5080
4F80
1080
ENDCHAR
STARTCHAR 512A
ENCODING 20778
SWIDTH 900 0
DWIDTH 10 0
BBX 9 9 1 -1
BITMAP
2F00
2400
4F00
4900
DF80
5680
4900
4600
5980
ENDCHAR
STARTCHAR 512C
ENCODING 20780
SWIDTH 990 0
DWIDTH 11 0
BBX 10 10 1 -1
BITMAP
1100
1680
9380
BC80
9780
A380
B900
DB40
ED40
8880
ENDCHAR
STARTCHAR 512D
ENCODING 20781
SWIDTH 990 0
DWIDTH 11 0
BBX 11 10 0 -1
BITMAP
0180
7A40
53C0
5A40
BFC0
5380
5880
5AA0
34A0
00C0
ENDCHAR
STARTCHAR 512F
ENCODING 20783
SWIDTH 990 0
DWIDTH 11 0
BBX 11 10 0 -1
BITMAP
0280
2FC0
5FE0
4480
DFC0
4F80
4F80
4FC0
4140
1040
ENDCHAR
STARTCHAR 5131
ENCODING 20785
SWIDTH 990 0
DWIDTH 11 0
BBX 10 10 0 -1
BITMAP
0100
1D80
44C0
5EC0
C100
7D80
7D80
5DC0
6500
00C0
ENDCHAR
STARTCHAR 5132
ENCODING 20786
SWIDTH 900 0
DWIDTH 10 0
BBX 10 9 0 -1
BITMAP
2C80
21C0
5C80
43C0
DD00
41C0
5F40
5540
5DC0
ENDCHAR
STARTCHAR 5133
ENCODING 20787
SWIDTH 990 0
DWIDTH 11 0
BBX 10 10 1 -1
BITMAP
0600
5F00
4F00
5580
DE40
5B80
5E00
5D80
4F00
7380
ENDCHAR
STARTCHAR 5134
ENCODING 20788
SWIDTH 990 0
DWIDTH 11 0
BBX 11 10 0 -1
BITMAP
0200
3DC0
5DC0
4D80
C700
4780
5FE0
4900
4880
0C40
ENDCHAR
STARTCHAR 5135
ENCODING 20789
SWIDTH 990 0
DWIDTH 11 0
BBX 10 10 1 -1
BITMAP
0F80
1A00
C600
CD00
D700
CF00
CF80
C400
9B80
8540
ENDCHAR
STARTCHAR 5137
ENCODING 20791
SWIDTH 900 0
DWIDTH 10 0
BBX 10 9 0 -1
BITMAP
2EC0
2000
4EC0
4100
CFC0
4A80
4FC0
4C80
56C0
ENDCHAR
STARTCHAR 5138
ENCODING 20792
SWIDTH 990 0
DWIDTH 11 0
BBX 11 10 0 -1
BITMAP
1F80
2940
5FC0
5280
DB80
5280
3F80
53C0
3680
01E0
ENDCHAR
STARTCHAR 5139
ENCODING 20793
SWIDTH 990 0
DWIDTH 11 0
BBX 10 10 1 -1
BITMAP
0100
7300
B380
D340
D480
BF00
BF00
BF00
A100
BF00
ENDCHAR
STARTCHAR 513A
ENCODING 20794
SWIDTH 900 0
DWIDTH 10 0
BBX 9 9 1 -1
BITMAP
2A80
5D00
DF80
5500
5F80
4500
5F80
4D00
5780
ENDCHAR
STARTCHAR 513B
ENCODING 20795
SWIDTH 900 0
DWIDTH 10 0
BBX 10 9 0 -1
BITMAP
2A80
3FC0
5540
4F80
CA80
4F80
4200
5FC0
5540
ENDCHAR
STARTCHAR 513C
ENCODING 20796
SWIDTH 900 0
DWIDTH 10 0
BBX 10 9 0 -1
BITMAP
2EC0
2AC0
4EC0
4100
CFC0
48C0
4F40
4A80
5540
ENDCHAR
STARTCHAR 513F
ENCODING 20799
SWIDTH 900 0
DWIDTH 10 0
BBX 9 9 1 -1
BITMAP
2400
2400
2400
2400
2400
2400
4400
4480
8780
ENDCHAR
STARTCHAR 5140
ENCODING 20800
SWIDTH 900 0
DWIDTH 10 0
BBX 9 8 1 -1
BITMAP
FF80
2400
2400
2400
2400
4400
4480
8780
ENDCHAR
STARTCHAR 5141
ENCODING 20801
SWIDTH 900 0
DWIDTH 10 0
BBX 9 9 1 -1
BITMAP
1000
1000
2200
FF00
2500
2400
2400
4480
8780
ENDCHAR
STARTCHAR 5142
ENCODING 20802
SWIDTH 990 0
DWIDTH 11 0
BBX 10 10 1 -1
BITMAP
0800
0800
7F00
4800
4800
3F80
0800
1840
2840
C780
ENDCHAR
STARTCHAR 5143
ENCODING 20803
SWIDTH 900 0
DWIDTH 10 0
BBX 9 9 1 -1
BITMAP
7F00
0000
0000
FF80
1400
1400
2400
4480
8780
ENDCHAR
STARTCHAR 5144
ENCODING 20804
SWIDTH 900 0
DWIDTH 10 0
BBX 9 9 1 -1
BITMAP
7F00
4100
4100
4100
7F00
1400
1400
2480
C780
ENDCHAR
STARTCHAR 5145
ENCODING 20805
SWIDTH 900 0
DWIDTH 10 0
BBX 9 9 1 -1
BITMAP
0800
FF80
1000
2200
FF00
1480
1400
2480
C780
ENDCHAR
STARTCHAR 5146
ENCODING 20806
SWIDTH 900 0
DWIDTH 10 0
BBX 9 9 1 -1
BITMAP
1400
5500
3600
1400
3600
5500
1400
2480
C780
ENDCHAR
STARTCHAR 5147
ENCODING 20807
SWIDTH 900 0
DWIDTH 10 0
BBX 9 9 1 -1
BITMAP
4100
5500
4900
5500
4100
7F00
1400
2480
C780
ENDCHAR
STARTCHAR 5148
ENCODING 20808
SWIDTH 900 0
DWIDTH 10 0
BBX 9 9 1 -1
BITMAP
0800
2800
7F00
0800
FF80
1400
1400
2480
C780
ENDCHAR
STARTCHAR 5149
ENCODING 20809
SWIDTH 900 0
DWIDTH 10 0
BBX 9 9 1 -1
BITMAP
0800
4900
2A00
FF80
1400
1400
2400
4480
8780
ENDCHAR
STARTCHAR 514A
ENCODING 20810
SWIDTH 990 0
DWIDTH 11 0
BBX 11 10 0 -1
BITMAP
0600
1200
2180
5800
1180
2E00
1200
1220
2220
C3C0
ENDCHAR
STARTCHAR 514B
ENCODING 20811
SWIDTH 900 0
DWIDTH 10 0
BBX 9 9 1 -1
BITMAP
0800
FF80
0800
3E00
2200
3E00
1400
2480
C780
ENDCHAR
STARTCHAR 514C
ENCODING 20812
SWIDTH 900 0
DWIDTH 10 0
BBX 9 9 1 -1
BITMAP
2200
4100
BE80
2200
2200
3E00
1400
2480
C780
ENDCHAR
STARTCHAR 514D
ENCODING 20813
SWIDTH 900 0
DWIDTH 10 0
BBX 9 9 1 -1
BITMAP
3C00
4400
8800
7F00
4900
7F00
1400
2480
C780
ENDCHAR
STARTCHAR 514E
ENCODING 20814
SWIDTH 900 0
DWIDTH 10 0
BBX 9 9 1 -1
BITMAP
0600
7800
0800
7F00
4900
7F00
1400
2500
C780
ENDCHAR
STARTCHAR 514F
ENCODING 20815
SWIDTH 990 0
DWIDTH 11 0
BBX 11 10 0 -1
BITMAP
0380
3E00
4200
4380
4200
4DC0
4900
4920
4920
B1C0
ENDCHAR
STARTCHAR 5150
ENCODING 20816
SWIDTH 900 0
DWIDTH 10 0
BBX 9 9 1 -1
BITMAP
5E00
5200
5E00
5200
5E00
2400
2400
4480
8780
ENDCHAR
STARTCHAR 5152
ENCODING 20818
SWIDTH 900 0
DWIDTH 10 0
BBX 9 9 1 -1
BITMAP
1000
6700
4100
7700
4100
7F00
1400
2480
C780
ENDCHAR
STARTCHAR 5153
ENCODING 20819
SWIDTH 990 0
DWIDTH 11 0
BBX 11 9 0 0
BITMAP
2100
7380
6300
6300
39C0
2100
2520
6720
9CC0
ENDCHAR
STARTCHAR 5154
ENCODING 20820
SWIDTH 900 0
DWIDTH 10 0
BBX 9 9 1 -1
BITMAP
3C00
4400
FF00
4900
7F00
1600
1500
2480
C780
ENDCHAR
STARTCHAR 5155
ENCODING 20821
SWIDTH 990 0
DWIDTH 11 0
BBX 11 10 0 -1
BITMAP
3180
4A40
4A40
4440
3F80
1200
1200
1220
2220
C3C0
ENDCHAR
STARTCHAR 5157
ENCODING 20823
SWIDTH 990 0
DWIDTH 11 0
BBX 10 10 0 -1
BITMAP
0400
7FC0
0600
1100
7FC0
2080
2080
1F00
1200
E3C0
ENDCHAR
STARTCHAR 5158
ENCODING 20824
SWIDTH 990 0
DWIDTH 11 0
BBX 11 10 0 -1
BITMAP
3800
0000
0100
3900
2BC0
2980
2A60
4A60
49A0
8FC0
ENDCHAR
STARTCHAR 515A
ENCODING 20826
SWIDTH 900 0
DWIDTH 10 0
BBX 9 9 1 -1
BITMAP
4900
2A00
FF80
8080
3E00
2200
3E00
1480
E780
ENDCHAR
STARTCHAR 515C
ENCODING 20828
SWIDTH 900 0
DWIDTH 10 0
BBX 9 9 1 -1
BITMAP
0800
5D80
9480
9C80
9480
DD80
0000
2480
C780
ENDCHAR
STARTCHAR 515F
ENCODING 20831
SWIDTH 990 0
DWIDTH 11 0
BBX 11 9 0 0
BITMAP
6300
7380
2100
23E0
7180
5280
52A0
52C0
9C40
ENDCHAR
STARTCHAR 5162
ENCODING 20834
SWIDTH 900 0
DWIDTH 10 0
BBX 9 9 1 -1
BITMAP
4200
E780
4200
E780
A480
E780
4300
A500
8980
ENDCHAR
STARTCHAR 5164
ENCODING 20836
SWIDTH 990 0
DWIDTH 11 0
BBX 11 10 0 -1
BITMAP
2100
37C0
67C0
2980
7BC0
6B80
6BC0
ABE0
A060
9FC0
ENDCHAR
STARTCHAR 5165
ENCODING 20837
SWIDTH 900 0
DWIDTH 10 0
BBX 9 9 1 -1
BITMAP
7800
0800
0800
1400
1400
2200
2200
4100
8080
ENDCHAR
STARTCHAR 5166
ENCODING 20838
SWIDTH 990 0
DWIDTH 11 0
BBX 9 9 2 0
BITMAP
8800
8800
8C00
9400
A200
C000
8000
8000
FF80
ENDCHAR
STARTCHAR 5168
ENCODING 20840
SWIDTH 900 0
DWIDTH 10 0
BBX 9 9 1 -1
BITMAP
0800
1400
2200
C180
3E00
0800
3E00
0800
7F00
ENDCHAR
STARTCHAR 5169
ENCODING 20841
SWIDTH 900 0
DWIDTH 10 0
BBX 9 9 1 -1
BITMAP
FF80
0800
FF80
8880
EE80
AA80
DD80
8880
8980
ENDCHAR
STARTCHAR 516A
ENCODING 20842
SWIDTH 900 0
DWIDTH 10 0
BBX 9 9 1 -1
BITMAP
7C00
2200
DD80
0000
F280
B280
D500
B280
9280
ENDCHAR
STARTCHAR 516B
ENCODING 20843
SWIDTH 900 0
DWIDTH 10 0
BBX 9 9 1 -1
BITMAP
0400
2400
2400
2200
2200
4200
4100
4100
8080
ENDCHAR
STARTCHAR 516C
ENCODING 20844
SWIDTH 900 0
DWIDTH 10 0
BBX 9 9 1 -1
BITMAP
0C00
2200
2200
4900
8880
1000
1200
2700
7900
ENDCHAR
STARTCHAR 516D
ENCODING 20845
SWIDTH 900 0
DWIDTH 10 0
BBX 9 9 1 -1
BITMAP
0800
0800
FF80
0000
2200
2200
4100
4100
8080
ENDCHAR
STARTCHAR 516E
ENCODING 20846
SWIDTH 900 0
DWIDTH 10 0
BBX 9 9 1 -1
BITMAP
2600
2200
4100
BE80
1000
1E00
2200
0200
0C00
ENDCHAR
STARTCHAR 5171
ENCODING 20849
SWIDTH 900 0
DWIDTH 10 0
BBX 9 9 1 -1
BITMAP
2200
2200
7F00
2200
2200
FF80
0000
2200
C180
ENDCHAR
STARTCHAR 5175
ENCODING 20853
SWIDTH 900 0
DWIDTH 10 0
BBX 9 9 1 -1
BITMAP
0600
3800
2000
3F00
2400
2400
FF80
2200
4100
ENDCHAR
STARTCHAR 5176
ENCODING 20854
SWIDTH 900 0
DWIDTH 10 0
BBX 9 9 1 -1
BITMAP
2200
7F00
2200
3E00
2200
2200
FF80
4100
8080
ENDCHAR
STARTCHAR 5177
ENCODING 20855
SWIDTH 900 0
DWIDTH 10 0
BBX 8 9 1 -1
BITMAP
7E
42
7E
42
7E
42
FF
42
81
ENDCHAR
STARTCHAR 5178
ENCODING 20856
SWIDTH 900 0
DWIDTH 10 0
BBX 9 9 1 -1
BITMAP
1400
1400
7F00
5500
7F00
5500
FF80
2200
C180
ENDCHAR
STARTCHAR 517C
ENCODING 20860
SWIDTH 900 0
DWIDTH 10 0
BBX 9 9 1 -1
BITMAP
2200
FF80
1400
7F00
9580
7F00
1400
3600
D580
ENDCHAR
STARTCHAR 517E
ENCODING 20862
SWIDTH 990 0
DWIDTH 11 0
BBX 9 10 1 -1
BITMAP
0C00
2200
FF80
FF00
8900
7600
FF80
2400
FF80
C300
ENDCHAR
STARTCHAR 5180
ENCODING 20864
SWIDTH 900 0
DWIDTH 10 0
BBX 9 9 1 -1
BITMAP
1480
F700
1400
FF80
2A00
7F00
1400
FF80
4100
ENDCHAR
STARTCHAR 5182
ENCODING 20866
SWIDTH 900 0
DWIDTH 10 0
BBX 9 9 1 -1
BITMAP
FF80
8080
8080
8080
8080
8080
8080
8080
8180
ENDCHAR
STARTCHAR 5183
ENCODING 20867
SWIDTH 990 0
DWIDTH 11 0
BBX 7 10 2 -1
BITMAP
7C
82
82
BA
82
82
BA
82
82
80
ENDCHAR
STARTCHAR 5184
ENCODING 20868
SWIDTH 990 0
DWIDTH 11 0
BBX 9 10 1 -1
BITMAP
3E00
4100
4100
FF80
4100
4100
7F00
4100
4100
4200
ENDCHAR
STARTCHAR 5185
ENCODING 20869
SWIDTH 900 0
DWIDTH 10 0
BBX 9 9 1 -1
BITMAP
0800
0800
FF80
8880
9480
A280
C180
8080
8180
ENDCHAR
STARTCHAR 5186
ENCODING 20870
SWIDTH 900 0
DWIDTH 10 0
BBX 9 9 1 -1
BITMAP
FF80
8880
8880
8880
FF80
8080
8080
8080
8180
ENDCHAR
STARTCHAR 5189
ENCODING 20873
SWIDTH 900 0
DWIDTH 10 0
BBX 9 9 1 -1
BITMAP
0800
7F00
4900
7F00
4900
FF80
4100
4100
4300
ENDCHAR
STARTCHAR 518A
ENCODING 20874
SWIDTH 900 0
DWIDTH 10 0
BBX 9 9 1 -1
BITMAP
7F00
5500
5500
5500
FF80
5500
5500
5500
4300
ENDCHAR
STARTCHAR 518B
ENCODING 20875
SWIDTH 990 0
DWIDTH 11 0
BBX 9 10 1 -1
BITMAP
7F00
8080
8080
8080
BC80
A480
A480
9880
8080
8080
ENDCHAR
STARTCHAR 518C
ENCODING 20876
SWIDTH 900 0
DWIDTH 10 0
BBX 9 9 1 -1
BITMAP
7700
5500
5500
5500
FF80
5500
5500
5500
AB00
ENDCHAR
STARTCHAR 518D
ENCODING 20877
SWIDTH 900 0
DWIDTH 10 0
BBX 9 9 1 -1
BITMAP
FF80
0800
7F00
4900
7F00
4900
FF80
4100
4300
ENDCHAR
STARTCHAR 518E
ENCODING 20878
SWIDTH 990 0
DWIDTH 11 0
BBX 7 10 2 -1
BITMAP
38
44
5C
54
FE
82
82
82
82
02
ENDCHAR
STARTCHAR 518F
ENCODING 20879
SWIDTH 900 0
DWIDTH 10 0
BBX 9 9 1 -1
BITMAP
FF80
9480
A480
C680
8080
BE80
A280
BE80
8180
ENDCHAR
STARTCHAR 5190
ENCODING 20880
SWIDTH 900 0
DWIDTH 10 0
BBX 8 9 1 -1
BITMAP
FF
81
BD
00
7E
42
7E
42
46
ENDCHAR
STARTCHAR 5191
ENCODING 20881
SWIDTH 900 0
DWIDTH 10 0
BBX 9 9 1 -1
BITMAP
0800
FF80
8880
FF80
0000
7F00
4100
5D00
4300
ENDCHAR
STARTCHAR 5192
ENCODING 20882
SWIDTH 900 0
DWIDTH 10 0
BBX 9 9 1 -1
BITMAP
FF80
8080
FF80
0000
7F00
4100
7F00
4100
7F00
ENDCHAR
STARTCHAR 5193
ENCODING 20883
SWIDTH 900 0
DWIDTH 10 0
BBX 9 9 1 -1
BITMAP
2200
7F00
2200
FF80
0800
3E00
2A00
FF80
2200
ENDCHAR
STARTCHAR 5195
ENCODING 20885
SWIDTH 900 0
DWIDTH 10 0
BBX 9 9 1 -1
BITMAP
FF80
8080
3E00
4800
FF00
4900
7F00
1480
E780
ENDCHAR
STARTCHAR 5196
ENCODING 20886
SWIDTH 900 0
DWIDTH 10 0
BBX 9 3 1 2
BITMAP
FF80
8080
8080
ENDCHAR
STARTCHAR 5197
ENCODING 20887
SWIDTH 900 0
DWIDTH 10 0
BBX 9 9 1 -1
BITMAP
FF80
8080
3C00
2400
2400
2400
2400
4480
8780
ENDCHAR
STARTCHAR 5198
ENCODING 20888
SWIDTH 990 0
DWIDTH 11 0
BBX 11 10 0 -1
BITMAP
0400
0400
0800
7FC0
0A80
0A00
1200
1220
2220
C1C0
ENDCHAR
STARTCHAR 5199
ENCODING 20889
SWIDTH 900 0
DWIDTH 10 0
BBX 9 9 1 -1
BITMAP
FF80
9080
1E00
2000
3E00
0200
FF80
0200
0C00
ENDCHAR
STARTCHAR 519D
ENCODING 20893
SWIDTH 990 0
DWIDTH 11 0
BBX 10 10 1 -1
BITMAP
7F80
0000
3E00
4200
3E00
4200
4200
7E00
4200
FFC0
ENDCHAR
STARTCHAR 51A0
ENCODING 20896
SWIDTH 900 0
DWIDTH 10 0
BBX 9 9 1 -1
BITMAP
FF80
8080
7100
0780
F900
5500
5300
5080
9F80
ENDCHAR
STARTCHAR 51A1
ENCODING 20897
SWIDTH 990 0
DWIDTH 11 0
BBX 10 10 0 -1
BITMAP
7FC0
8000
7FC0
7FC0
1800
6580
1A00
ED00
1480
E400
ENDCHAR
STARTCHAR 51A2
ENCODING 20898
SWIDTH 900 0
DWIDTH 10 0
BBX 9 9 1 -1
BITMAP
FF80
8080
7E00
1800
EC80
5500
3600
CD80
1800
ENDCHAR
STARTCHAR 51A3
ENCODING 20899
SWIDTH 990 0
DWIDTH 11 0
BBX 11 10 0 -1
BITMAP
3FC0
C000
7FC0
4940
7980
4880
7880
4980
7A40
0A20
ENDCHAR
STARTCHAR 51A4
ENCODING 20900
SWIDTH 900 0
DWIDTH 10 0
BBX 9 9 1 -1
BITMAP
FF80
BC80
4400
FF00
4900
7F00
0A00
3900
CF80
ENDCHAR
STARTCHAR 51A5
ENCODING 20901
SWIDTH 900 0
DWIDTH 10 0
BBX 9 9 1 -1
BITMAP
FF80
A280
3E00
2200
3E00
0800
FF80
2200
4100
ENDCHAR
STARTCHAR 51A6
ENCODING 20902
SWIDTH 900 0
DWIDTH 10 0
BBX 9 9 1 -1
BITMAP
FF80
8080
7300
0200
FF00
5500
5200
5500
8F80
ENDCHAR
STARTCHAR 51A8
ENCODING 20904
SWIDTH 900 0
DWIDTH 10 0
BBX 9 9 1 -1
BITMAP
FF80
8080
7F00
2200
7F00
4900
7F00
4900
7F00
ENDCHAR
STARTCHAR 51A9
ENCODING 20905
SWIDTH 900 0
DWIDTH 10 0
BBX 9 9 1 -1
BITMAP
FF80
9080
6700
4100
7700
4100
7F80
4080
AA80
ENDCHAR
STARTCHAR 51AA
ENCODING 20906
SWIDTH 900 0
DWIDTH 10 0
BBX 9 9 1 -1
BITMAP
FF80
9480
7F00
2200
FF80
4900
BE80
2A00
2A00
ENDCHAR
STARTCHAR 51AB
ENCODING 20907
SWIDTH 900 0
DWIDTH 10 0
BBX 4 8 3 -1
BITMAP
80
40
00
10
20
20
40
80
ENDCHAR
STARTCHAR 51AC
ENCODING 20908
SWIDTH 900 0
DWIDTH 10 0
BBX 9 9 1 -1
BITMAP
1E00
2200
D400
0800
3600
C980
0400
1800
0400
ENDCHAR
STARTCHAR 51AD
ENCODING 20909
SWIDTH 990 0
DWIDTH 11 0
BBX 9 8 1 0
BITMAP
1000
FF80
2400
2200
4100
8880
0400
0800
ENDCHAR
STARTCHAR 51B0
ENCODING 20912
SWIDTH 900 0
DWIDTH 10 0
BBX 9 9 1 -1
BITMAP
0200
8200
4280
1F00
0600
4B00
4B00
9280
8600
ENDCHAR
STARTCHAR 51B1
ENCODING 20913
SWIDTH 900 0
DWIDTH 10 0
BBX 9 8 1 -1
BITMAP
9F80
4400
0F00
0900
4900
5E00
8200
9F80
ENDCHAR
STARTCHAR 51B2
ENCODING 20914
SWIDTH 900 0
DWIDTH 10 0
BBX 8 9 1 -1
BITMAP
04
84
5F
15
15
5F
44
84
84
ENDCHAR
STARTCHAR 51B3
ENCODING 20915
SWIDTH 900 0
DWIDTH 10 0
BBX 9 9 1 -1
BITMAP
0400
8400
5F00
0500
1F80
4400
4400
8A00
B180
ENDCHAR
STARTCHAR 51B4
ENCODING 20916
SWIDTH 900 0
DWIDTH 10 0
BBX 9 9 1 -1
BITMAP
9F00
4A00
0A00
3F80
0600
0A00
4A00
9200
A600
ENDCHAR
STARTCHAR 51B5
ENCODING 20917
SWIDTH 900 0
DWIDTH 10 0
BBX 9 8 1 -1
BITMAP
9F00
5100
1100
1F00
4A00
4A00
9280
A380
ENDCHAR
STARTCHAR 51B6
ENCODING 20918
SWIDTH 900 0
DWIDTH 10 0
BBX 9 9 1 -1
BITMAP
0400
8800
5100
1E80
0000
5F00
5100
9100
9F00
ENDCHAR
STARTCHAR 51B7
ENCODING 20919
SWIDTH 900 0
DWIDTH 10 0
BBX 9 9 1 -1
BITMAP
0600
8900
5680
0000
1F00
4500
4500
8700
8400
ENDCHAR
STARTCHAR 51B8
ENCODING 20920
SWIDTH 990 0
DWIDTH 11 0
BBX 9 8 1 0
BITMAP
8400
1480
2F80
4400
4400
4F80
8400
8400
ENDCHAR
STARTCHAR 51BA
ENCODING 20922
SWIDTH 990 0
DWIDTH 11 0
BBX 9 10 1 -1
BITMAP
0F00
9100
1100
3E00
3400
5F00
5200
9200
9980
1080
ENDCHAR
STARTCHAR 51BC
ENCODING 20924
SWIDTH 990 0
DWIDTH 11 0
BBX 11 10 0 -1
BITMAP
8200
4A00
5780
3200
3FE0
4500
4500
4900
4940
10C0
ENDCHAR
STARTCHAR 51BD
ENCODING 20925
SWIDTH 900 0
DWIDTH 10 0
BBX 10 9 0 -1
BITMAP
9E40
4940
0F40
0B40
0B40
5740
4540
4840
90C0
ENDCHAR
STARTCHAR 51BE
ENCODING 20926
SWIDTH 990 0
DWIDTH 11 0
BBX 10 9 1 0
BITMAP
8600
0A00
1100
3FC0
4000
5F00
9100
9100
0F00
ENDCHAR
STARTCHAR 51BF
ENCODING 20927
SWIDTH 990 0
DWIDTH 11 0
BBX 10 9 0 -1
BITMAP
8000
5F80
4480
3FC0
2480
4F00
5FC0
4400
BFC0
ENDCHAR
STARTCHAR 51C2
ENCODING 20930
SWIDTH 990 0
DWIDTH 11 0
BBX 11 10 0 -1
BITMAP
8700
4900
1200
1FC0
3240
4F80
4200
4620
4A20
31C0
ENDCHAR
STARTCHAR 51C4
ENCODING 20932
SWIDTH 900 0
DWIDTH 10 0
BBX 9 9 1 -1
BITMAP
0400
9F00
A580
1F00
0400
5F80
4900
8700
9880
ENDCHAR
STARTCHAR 51C5
ENCODING 20933
SWIDTH 900 0
DWIDTH 10 0
BBX 10 9 0 -1
BITMAP
9FC0
5240
1FC0
1240
1740
5540
5740
5040
9FC0
ENDCHAR
STARTCHAR 51C6
ENCODING 20934
SWIDTH 900 0
DWIDTH 10 0
BBX 9 9 1 -1
BITMAP
0500
8A00
5F80
0A00
0F00
4A00
4F00
8A00
8F80
ENDCHAR
STARTCHAR 51C8
ENCODING 20936
SWIDTH 990 0
DWIDTH 11 0
BBX 10 10 0 -1
BITMAP
8700
5A40
4000
2780
2280
5FC0
4F80
4200
8200
0200
ENDCHAR
STARTCHAR 51C9
ENCODING 20937
SWIDTH 900 0
DWIDTH 10 0
BBX 9 9 1 -1
BITMAP
8400
BF80
0000
1F00
1100
5F00
4400
9500
A480
ENDCHAR
STARTCHAR 51CB
ENCODING 20939
SWIDTH 900 0
DWIDTH 10 0
BBX 9 9 1 -1
BITMAP
9F80
5480
1E80
1480
1E80
5080
5E80
9A80
AE80
ENDCHAR
STARTCHAR 51CC
ENCODING 20940
SWIDTH 900 0
DWIDTH 10 0
BBX 9 9 1 -1
BITMAP
0400
8F00
4400
1F80
0A00
5780
4900
8600
9980
ENDCHAR
STARTCHAR 51CD
ENCODING 20941
SWIDTH 900 0
DWIDTH 10 0
BBX 9 9 1 -1
BITMAP
0400
BF80
5500
1F00
1500
5F00
4E00
9500
A480
ENDCHAR
STARTCHAR 51CF
ENCODING 20943
SWIDTH 990 0
DWIDTH 11 0
BBX 10 10 0 -1
BITMAP
8180
8100
7FC0
2100
6500
6180
6E80
6A80
ABC0
0640
ENDCHAR
STARTCHAR 51D1
ENCODING 20945
SWIDTH 990 0
DWIDTH 11 0
BBX 10 10 1 -1
BITMAP
0400
9F80
0800
0F00
7FC0
5100
A180
9E00
9F80
1900
ENDCHAR
STARTCHAR 51D2
ENCODING 20946
SWIDTH 990 0
DWIDTH 11 0
BBX 9 10 1 -1
BITMAP
0400
8480
2480
0B00
3F80
4F00
9100
9E00
8A00
1D00
ENDCHAR
STARTCHAR 51D3
ENCODING 20947
SWIDTH 990 0
DWIDTH 11 0
BBX 10 10 0 -1
BITMAP
BFC0
8500
5FC0
2540
5A80
3FC0
4700
4B00
92C0
0200
ENDCHAR
STARTCHAR 51D5
ENCODING 20949
SWIDTH 990 0
DWIDTH 11 0
BBX 9 10 1 -1
BITMAP
1F00
A080
1E00
1200
5E00
5200
8C00
8400
9F00
2300
ENDCHAR
STARTCHAR 51D6
ENCODING 20950
SWIDTH 900 0
DWIDTH 10 0
BBX 9 9 1 -1
BITMAP
8500
4F80
1A00
4A00
8F80
0000
0800
FF80
0800
ENDCHAR
STARTCHAR 51D8
ENCODING 20952
SWIDTH 990 0
DWIDTH 11 0
BBX 11 10 0 -1
BITMAP
8080
AB00
7E00
29E0
7A80
5A80
6A80
6A80
BC80
2480
ENDCHAR
STARTCHAR 51DB
ENCODING 20955
SWIDTH 900 0
DWIDTH 10 0
BBX 10 9 0 -1
BITMAP
0200
9FC0
4A80
0880
0F80
0000
5FC0
4A80
9640
ENDCHAR
STARTCHAR 51DC
ENCODING 20956
SWIDTH 990 0
DWIDTH 11 0
BBX 10 10 0 -1
BITMAP
8200
5FC0
5FC0
3740
3540
3740
5FC0
5FC0
4700
BAC0
ENDCHAR
STARTCHAR 51DD
ENCODING 20957
SWIDTH 900 0
DWIDTH 10 0
BBX 9 9 1 -1
BITMAP
9380
5C80
1100
0B80
0C80
5900
4D80
8900
9280
ENDCHAR
STARTCHAR 51DE
ENCODING 20958
SWIDTH 990 0
DWIDTH 11 0
BBX 11 10 0 -1
BITMAP
9600
9DC0
6F40
2B80
6F00
6D00
6F40
4A80
AA40
8120
ENDCHAR
STARTCHAR 51E0
ENCODING 20960
SWIDTH 900 0
DWIDTH 10 0
BBX 9 8 1 -1
BITMAP
3C00
2400
2400
2400
2400
2400
4480
8780
ENDCHAR
STARTCHAR 51E1
ENCODING 20961
SWIDTH 900 0
DWIDTH 10 0
BBX 9 9 1 -1
BITMAP
7E00
4200
4200
5200
4A00
4200
4200
8280
8380
ENDCHAR
STARTCHAR 51E2
ENCODING 20962
SWIDTH 990 0
DWIDTH 11 0
BBX 10 10 0 -1
BITMAP
0400
0800
1600
1200
1200
1200
2200
2200
4240
81C0
ENDCHAR
STARTCHAR 51E5
ENCODING 20965
SWIDTH 990 0
DWIDTH 11 0
BBX 11 10 0 -1
BITMAP
3F80
4040
7F80
4000
4700
4900
4900
8900
9120
A0C0
ENDCHAR
STARTCHAR 51E6
ENCODING 20966
SWIDTH 900 0
DWIDTH 10 0
BBX 9 9 1 -1
BITMAP
4000
7700
5500
5500
D500
2500
2980
5000
8F80
ENDCHAR
STARTCHAR 51E7
ENCODING 20967
SWIDTH 900 0
DWIDTH 10 0
BBX 9 9 1 -1
BITMAP
FF80
8080
8880
BE80
AA80
AA80
AA80
AA80
8880
ENDCHAR
STARTCHAR 51E9
ENCODING 20969
SWIDTH 900 0
DWIDTH 10 0
BBX 9 9 1 -1
BITMAP
7F00
4100
4900
7F00
4900
5D00
6B00
8900
8080
ENDCHAR
STARTCHAR 51EA
ENCODING 20970
SWIDTH 900 0
DWIDTH 10 0
BBX 9 9 1 -1
BITMAP
7F00
4100
4500
4500
5700
5500
5500
9E80
8080
ENDCHAR
STARTCHAR 51ED
ENCODING 20973
SWIDTH 900 0
DWIDTH 10 0
BBX 9 9 1 -1
BITMAP
2F00
4400
DF80
4400
4F00
0000
3C00
2480
C780
ENDCHAR
STARTCHAR 51EE
ENCODING 20974
SWIDTH 990 0
DWIDTH 11 0
BBX 11 10 0 -1
BITMAP
1F00
6100
4100
4F00
4900
5700
5320
5EA0
52A0
8C60
ENDCHAR
STARTCHAR 51F0
ENCODING 20976
SWIDTH 900 0
DWIDTH 10 0
BBX 9 9 1 -1
BITMAP
FF00
9100
BD00
A500
BD00
8100
BD00
9100
BC80
ENDCHAR
STARTCHAR 51F1
ENCODING 20977
SWIDTH 900 0
DWIDTH 10 0
BBX 9 9 1 -1
BITMAP
B700
B500
F500
0500
F500
9500
F500
6500
F580
ENDCHAR
STARTCHAR 51F2
ENCODING 20978
SWIDTH 990 0
DWIDTH 11 0
BBX 11 10 0 -1
BITMAP
1F00
7500
5F00
5500
5F00
5F00
5D20
54A0
76A0
A460
ENDCHAR
STARTCHAR 51F3
ENCODING 20979
SWIDTH 990 0
DWIDTH 11 0
BBX 9 10 1 -1
BITMAP
F000
5600
6300
BE00
7F00
3E00
FF80
1C00
2400
C380
ENDCHAR
STARTCHAR 51F4
ENCODING 20980
SWIDTH 990 0
DWIDTH 11 0
BBX 10 10 0 -1
BITMAP
8F80
5200
1F00
3F00
4DC0
4940
2000
1E80
1200
61C0
ENDCHAR
STARTCHAR 51F5
ENCODING 20981
SWIDTH 900 0
DWIDTH 10 0
BBX 8 8 1 -1
BITMAP
81
81
81
81
81
81
81
FF
ENDCHAR
STARTCHAR 51F6
ENCODING 20982
SWIDTH 900 0
DWIDTH 10 0
BBX 9 8 1 -1
BITMAP
8280
A280
9480
8880
9480
A280
8080
FF80
ENDCHAR
STARTCHAR 51F7
ENCODING 20983
SWIDTH 990 0
DWIDTH 11 0
BBX 8 10 2 -1
BITMAP
11
11
7D
11
11
11
ED
01
01
FF
ENDCHAR
STARTCHAR 51F8
ENCODING 20984
SWIDTH 900 0
DWIDTH 10 0
BBX 9 9 1 -1
BITMAP
3E00
2200
2200
E380
8080
8080
8080
8080
FF80
ENDCHAR
STARTCHAR 51F9
ENCODING 20985
SWIDTH 900 0
DWIDTH 10 0
BBX 9 9 1 -1
BITMAP
F780
9480
9480
9480
9C80
8080
8080
8080
FF80
ENDCHAR
STARTCHAR 51FA
ENCODING 20986
SWIDTH 900 0
DWIDTH 10 0
BBX 9 9 1 -1
BITMAP
0800
4900
4900
7F00
0800
0800
8880
8880
FF80
ENDCHAR
STARTCHAR 51FD
ENCODING 20989
SWIDTH 900 0
DWIDTH 10 0
BBX 9 9 1 -1
BITMAP
FF80
1000
9880
AA80
8880
9C80
AA80
9880
FF80
ENDCHAR
STARTCHAR 51FE
ENCODING 20990
SWIDTH 900 0
DWIDTH 10 0
BBX 9 9 1 -1
BITMAP
3E00
0400
8880
EF80
A980
AA80
ED80
9880
FF80
ENDCHAR
STARTCHAR 5200
ENCODING 20992
SWIDTH 900 0
DWIDTH 10 0
BBX 8 8 1 -1
BITMAP
FF
11
11
11
21
21
41
86
ENDCHAR
STARTCHAR 5201
ENCODING 20993
SWIDTH 990 0
DWIDTH 11 0
BBX 7 10 1 -1
BITMAP
FC
02
02
02
0A
32
44
04
04
08
ENDCHAR
STARTCHAR 5202
ENCODING 20994
SWIDTH 990 0
DWIDTH 11 0
BBX 4 10 4 -1
BITMAP
10
10
90
90
90
90
90
10
10
20
ENDCHAR
STARTCHAR 5203
ENCODING 20995
SWIDTH 900 0
DWIDTH 10 0
BBX 8 8 1 -1
BITMAP
FF
11
91
51
21
31
41
86
ENDCHAR
STARTCHAR 5204
ENCODING 20996
SWIDTH 900 0
DWIDTH 10 0
BBX 9 8 1 -1
BITMAP
FE00
1200
9200
5200
3200
2F80
4200
8E00
ENDCHAR
STARTCHAR 5205
ENCODING 20997
SWIDTH 990 0
DWIDTH 11 0
BBX 11 10 0 -1
BITMAP
3E00
0900
0900
0880
4940
5140
9120
1100
2100
4200
ENDCHAR
STARTCHAR 5206
ENCODING 20998
SWIDTH 900 0
DWIDTH 10 0
BBX 9 9 1 -1
BITMAP
1400
2200
4100
8080
7E00
1200
1200
2200
4600
ENDCHAR
STARTCHAR 5207
ENCODING 20999
SWIDTH 900 0
DWIDTH 10 0
BBX 9 8 1 -1
BITMAP
4F80
4480
F480
4480
4480
5480
6480
0980
ENDCHAR
STARTCHAR 5208
ENCODING 21000
SWIDTH 900 0
DWIDTH 10 0
BBX 9 9 1 -1
BITMAP
1080
1480
9480
6480
2480
2480
5080
5080
8180
ENDCHAR
STARTCHAR 520A
ENCODING 21002
SWIDTH 900 0
DWIDTH 10 0
BBX 9 9 1 -1
BITMAP
0080
FA80
2280
2280
FA80
2280
2280
2080
2180
ENDCHAR
STARTCHAR 520B
ENCODING 21003
SWIDTH 900 0
DWIDTH 10 0
BBX 9 9 1 -1
BITMAP
1080
E480
2480
F480
2480
2480
2480
4080
8180
ENDCHAR
STARTCHAR 520E
ENCODING 21006
SWIDTH 900 0
DWIDTH 10 0
BBX 10 9 0 -1
BITMAP
4040
4140
7D40
D540
5540
5540
9540
2440
0CC0
ENDCHAR
STARTCHAR 5211
ENCODING 21009
SWIDTH 900 0
DWIDTH 10 0
BBX 9 9 1 -1
BITMAP
F880
5280
5280
FA80
5280
5280
5080
5080
5180
ENDCHAR
STARTCHAR 5212
ENCODING 21010
SWIDTH 990 0
DWIDTH 11 0
BBX 10 10 0 -1
BITMAP
2840
2440
3A40
2240
1240
1A40
1240
1840
2C40
C480
ENDCHAR
STARTCHAR 5213
ENCODING 21011
SWIDTH 990 0
DWIDTH 11 0
BBX 9 10 1 -1
BITMAP
F880
0080
0480
FC80
5480
5480
5480
9480
9880
8080
ENDCHAR
STARTCHAR 5214
ENCODING 21012
SWIDTH 900 0
DWIDTH 10 0
BBX 9 9 1 -1
BITMAP
2080
2280
FA80
2A80
FE80
2280
3080
4880
8180
ENDCHAR
STARTCHAR 5215
ENCODING 21013
SWIDTH 990 0
DWIDTH 11 0
BBX 10 10 0 -1
BITMAP
3F80
0880
0880
1080
2000
7FC0
2A40
2A40
4A40
8C40
ENDCHAR
STARTCHAR 5216
ENCODING 21014
SWIDTH 990 0
DWIDTH 11 0
BBX 10 10 0 -1
BITMAP
3040
4840
4A40
7A40
4A40
7A40
4A40
4840
8840
8880
ENDCHAR
STARTCHAR 5217
ENCODING 21015
SWIDTH 900 0
DWIDTH 10 0
BBX 9 9 1 -1
BITMAP
F880
4480
7480
5480
7480
9480
1080
2080
4180
ENDCHAR
STARTCHAR 5218
ENCODING 21016
SWIDTH 990 0
DWIDTH 11 0
BBX 9 10 1 -1
BITMAP
0080
4480
FC80
1480
A480
6480
2480
6480
9080
8100
ENDCHAR
STARTCHAR 521D
ENCODING 21021
SWIDTH 900 0
DWIDTH 10 0
BBX 9 9 1 -1
BITMAP
4000
4F80
F280
2280
5280
6280
D480
4480
4980
ENDCHAR
STARTCHAR 5222
ENCODING 21026
SWIDTH 990 0
DWIDTH 11 0
BBX 10 10 0 -1
BITMAP
1040
2D40
C140
1140
0140
1D40
1540
1540
1440
1040
ENDCHAR
STARTCHAR 5224
ENCODING 21028
SWIDTH 900 0
DWIDTH 10 0
BBX 9 9 1 -1
BITMAP
A880
AA80
2280
FA80
2280
FA80
2080
2080
2180
ENDCHAR
STARTCHAR 5225
ENCODING 21029
SWIDTH 900 0
DWIDTH 10 0
BBX 9 9 1 -1
BITMAP
F080
9480
F480
4480
4480
7480
5480
9080
B180
ENDCHAR
STARTCHAR 5227
ENCODING 21031
SWIDTH 900 0
DWIDTH 10 0
BBX 9 9 1 -1
BITMAP
2000
2780
FA80
2280
FA80
2280
5280
F480
0980
ENDCHAR
STARTCHAR 5228
ENCODING 21032
SWIDTH 990 0
DWIDTH 11 0
BBX 10 10 0 -1
BITMAP
0040
3D40
4540
F540
5540
6540
4540
4540
4440
3C40
ENDCHAR
STARTCHAR 5229
ENCODING 21033
SWIDTH 900 0
DWIDTH 10 0
BBX 9 9 1 -1
BITMAP
3880
E280
2280
FA80
2280
7280
6880
A080
2180
ENDCHAR
STARTCHAR 522A
ENCODING 21034
SWIDTH 900 0
DWIDTH 10 0
BBX 10 9 0 -1
BITMAP
7C40
5540
5540
FF40
5540
5540
5540
5440
44C0
ENDCHAR
STARTCHAR 522E
ENCODING 21038
SWIDTH 900 0
DWIDTH 10 0
BBX 9 9 1 -1
BITMAP
1880
E280
2280
FE80
2280
2280
FA80
8880
F980
ENDCHAR
STARTCHAR 5230
ENCODING 21040
SWIDTH 900 0
DWIDTH 10 0
BBX 9 9 1 -1
BITMAP
F880
2280
4A80
FA80
0280
2280
FA80
2080
F980
ENDCHAR
STARTCHAR 5231
ENCODING 21041
SWIDTH 990 0
DWIDTH 11 0
BBX 11 10 0 -1
BITMAP
2980
2940
7D40
2940
2B40
4B60
7F60
4940
4940
8800
ENDCHAR
STARTCHAR 5232
ENCODING 21042
SWIDTH 990 0
DWIDTH 11 0
BBX 9 10 1 -1
BITMAP
2080
FC80
2480
2480
FC80
2480
7C80
2480
2480
F900
ENDCHAR
STARTCHAR 5233
ENCODING 21043
SWIDTH 900 0
DWIDTH 10 0
BBX 9 9 1 -1
BITMAP
2080
FA80
5280
EA80
0280
FE80
4280
7880
1180
ENDCHAR
STARTCHAR 5235
ENCODING 21045
SWIDTH 990 0
DWIDTH 11 0
BBX 9 10 1 -1
BITMAP
F880
9080
9480
F480
9480
F480
9480
8880
F080
0100
ENDCHAR
STARTCHAR 5236
ENCODING 21046
SWIDTH 900 0
DWIDTH 10 0
BBX 9 9 1 -1
BITMAP
A080
FA80
2280
FA80
2280
FA80
AA80
A880
2180
ENDCHAR
STARTCHAR 5237
ENCODING 21047
SWIDTH 900 0
DWIDTH 10 0
BBX 9 9 1 -1
BITMAP
F880
8A80
FA80
A280
FA80
AA80
AA80
A880
2180
ENDCHAR
STARTCHAR 5238
ENCODING 21048
SWIDTH 900 0
DWIDTH 10 0
BBX 9 9 1 -1
BITMAP
4900
2A00
7F00
1400
FF80
4100
BE80
1200
6600
ENDCHAR
STARTCHAR 5239
ENCODING 21049
SWIDTH 900 0
DWIDTH 10 0
BBX 9 9 1 -1
BITMAP
4880
3280
2A80
C280
2280
FA80
7080
A880
2180
ENDCHAR
STARTCHAR 523A
ENCODING 21050
SWIDTH 900 0
DWIDTH 10 0
BBX 9 9 1 -1
BITMAP
2080
FA80
2280
FA80
AA80
AA80
7280
A880
2180
ENDCHAR
STARTCHAR 523B
ENCODING 21051
SWIDTH 900 0
DWIDTH 10 0
BBX 9 9 1 -1
BITMAP
2080
FA80
2280
4A80
3280
2280
CA80
1080
E980
ENDCHAR
STARTCHAR 523C
ENCODING 21052
SWIDTH 990 0
DWIDTH 11 0
BBX 9 10 1 -1
BITMAP
2700
2280
7680
2680
2280
D280
4680
5580
9480
E800
ENDCHAR
STARTCHAR 5243
ENCODING 21059
SWIDTH 900 0
DWIDTH 10 0
BBX 9 9 1 -1
BITMAP
8880
5280
FA80
2A80
FA80
A280
FA80
6880
A980
ENDCHAR
STARTCHAR 5244
ENCODING 21060
SWIDTH 900 0
DWIDTH 10 0
BBX 9 9 1 -1
BITMAP
F880
0280
4A80
9280
4A80
0280
FA80
2080
F980
ENDCHAR
STARTCHAR 5245
ENCODING 21061
SWIDTH 990 0
DWIDTH 11 0
BBX 9 10 1 -1
BITMAP
F080
0480
6480
A480
A480
4480
8480
2480
1080
E100
ENDCHAR
STARTCHAR 5247
ENCODING 21063
SWIDTH 900 0
DWIDTH 10 0
BBX 9 9 1 -1
BITMAP
F080
9480
F480
9480
F480
9480
F480
2080
9180
ENDCHAR
STARTCHAR 5249
ENCODING 21065
SWIDTH 990 0
DWIDTH 11 0
BBX 10 10 0 -1
BITMAP
1040
5040
5A40
5640
BA40
9240
1240
3840
1040
6840
ENDCHAR
STARTCHAR 524A
ENCODING 21066
SWIDTH 900 0
DWIDTH 10 0
BBX 9 9 1 -1
BITMAP
A880
2280
FA80
8A80
FA80
8A80
FA80
8880
9980
ENDCHAR
STARTCHAR 524B
ENCODING 21067
SWIDTH 900 0
DWIDTH 10 0
BBX 9 9 1 -1
BITMAP
2080
FA80
2280
FA80
8A80
F880
5180
5000
8F80
ENDCHAR
STARTCHAR 524C
ENCODING 21068
SWIDTH 900 0
DWIDTH 10 0
BBX 9 9 1 -1
BITMAP
2080
FA80
2280
FA80
AA80
FA80
2280
7080
A980
ENDCHAR
STARTCHAR 524D
ENCODING 21069
SWIDTH 900 0
DWIDTH 10 0
BBX 9 9 1 -1
BITMAP
2200
FF80
0000
7100
5500
7500
5500
7100
5300
ENDCHAR
STARTCHAR 524F
ENCODING 21071
SWIDTH 900 0
DWIDTH 10 0
BBX 10 9 0 -1
BITMAP
8800
5780
FA80
5680
FA80
5380
52C0
5480
5580
ENDCHAR
STARTCHAR 5254
ENCODING 21076
SWIDTH 900 0
DWIDTH 10 0
BBX 10 9 0 -1
BITMAP
7C40
4540
7D40
4540
7D40
2140
7D40
AC40
54C0
ENDCHAR
STARTCHAR 5255
ENCODING 21077
SWIDTH 990 0
DWIDTH 11 0
BBX 10 10 0 -1
BITMAP
0840
2840
EE40
2A40
6E40
2A40
2A40
EC40
4840
48C0
ENDCHAR
STARTCHAR 5256
ENCODING 21078
SWIDTH 900 0
DWIDTH 10 0
BBX 9 9 1 -1
BITMAP
2080
FA80
5280
FE80
0280
7A80
4A80
4880
7980
ENDCHAR
STARTCHAR 5257
ENCODING 21079
SWIDTH 990 0
DWIDTH 11 0
BBX 9 10 1 -1
BITMAP
4080
7080
3480
2480
5480
C480
7480
3080
2080
D900
ENDCHAR
STARTCHAR 5258
ENCODING 21080
SWIDTH 990 0
DWIDTH 11 0
BBX 9 10 1 -1
BITMAP
4080
5080
7C80
5480
7480
7480
5480
5080
7880
8880
ENDCHAR
STARTCHAR 525A
ENCODING 21082
SWIDTH 990 0
DWIDTH 11 0
BBX 10 9 0 0
BITMAP
7D40
7D40
5540
3940
3D40
FF40
1540
3840
1040
ENDCHAR
STARTCHAR 525B
ENCODING 21083
SWIDTH 900 0
DWIDTH 10 0
BBX 9 9 1 -1
BITMAP
F880
8A80
DA80
FA80
AA80
AA80
A880
F880
8980
ENDCHAR
STARTCHAR 525C
ENCODING 21084
SWIDTH 990 0
DWIDTH 11 0
BBX 9 10 1 -1
BITMAP
2000
2080
FA80
8A80
0280
7A80
AA80
6880
6880
9880
ENDCHAR
STARTCHAR 525E
ENCODING 21086
SWIDTH 900 0
DWIDTH 10 0
BBX 9 9 1 -1
BITMAP
2080
FA80
5280
8A80
FA80
1280
D280
D080
3180
ENDCHAR
STARTCHAR 525F
ENCODING 21087
SWIDTH 990 0
DWIDTH 11 0
BBX 10 10 0 -1
BITMAP
6C40
2540
6D40
2540
4940
FD40
2540
6D40
6C40
9040
ENDCHAR
STARTCHAR 5260
ENCODING 21088
SWIDTH 990 0
DWIDTH 11 0
BBX 10 10 0 -1
BITMAP
1040
1040
6A40
3A40
4A40
4A40
3240
1040
9440
1040
ENDCHAR
STARTCHAR 5261
ENCODING 21089
SWIDTH 990 0
DWIDTH 11 0
BBX 9 10 1 -1
BITMAP
2080
4C80
3480
5480
8480
2480
C480
4480
5080
8100
ENDCHAR
STARTCHAR 5263
ENCODING 21091
SWIDTH 900 0
DWIDTH 10 0
BBX 9 9 1 -1
BITMAP
2080
5280
FA80
2280
FA80
AA80
FA80
5080
8980
ENDCHAR
STARTCHAR 5264
ENCODING 21092
SWIDTH 900 0
DWIDTH 10 0
BBX 9 9 1 -1
BITMAP
2080
FA80
5280
2280
DA80
7280
5280
7080
9180
ENDCHAR
STARTCHAR 5265
ENCODING 21093
SWIDTH 900 0
DWIDTH 10 0
BBX 9 9 1 -1
BITMAP
F080
1280
F280
1280
FA80
2280
AA80
7080
A980
ENDCHAR
STARTCHAR 5266
ENCODING 21094
SWIDTH 990 0
DWIDTH 11 0
BBX 9 10 1 -1
BITMAP
2000
FC80
7280
FE80
AA80
FA80
AA80
F080
2480
1C80
ENDCHAR
STARTCHAR 5269
ENCODING 21097
SWIDTH 900 0
DWIDTH 10 0
BBX 9 9 1 -1
BITMAP
7880
2280
FE80
2A80
AA80
AE80
2280
7080
A980
ENDCHAR
STARTCHAR 526A
ENCODING 21098
SWIDTH 900 0
DWIDTH 10 0
BBX 9 9 1 -1
BITMAP
2200
FF80
5500
7500
5100
0000
FF80
3080
C300
ENDCHAR
STARTCHAR 526E
ENCODING 21102
SWIDTH 990 0
DWIDTH 11 0
BBX 9 10 1 -1
BITMAP
3000
5080
5280
7280
FA80
8680
F680
D480
A480
0480
ENDCHAR
STARTCHAR 526F
ENCODING 21103
SWIDTH 900 0
DWIDTH 10 0
BBX 9 9 1 -1
BITMAP
F880
0280
7280
5280
FA80
AA80
F880
A880
F980
ENDCHAR
STARTCHAR 5270
ENCODING 21104
SWIDTH 900 0
DWIDTH 10 0
BBX 9 9 1 -1
BITMAP
F880
2280
FA80
AA80
FA80
AA80
FA80
7080
A980
ENDCHAR
STARTCHAR 5271
ENCODING 21105
SWIDTH 900 0
DWIDTH 10 0
BBX 9 9 1 -1
BITMAP
2000
5780
FA80
2680
FA80
AB80
FA80
5480
8980
ENDCHAR
STARTCHAR 5272
ENCODING 21106
SWIDTH 900 0
DWIDTH 10 0
BBX 9 9 1 -1
BITMAP
2080
FA80
AA80
7280
2280
FA80
0280
7080
7180
ENDCHAR
STARTCHAR 5273
ENCODING 21107
SWIDTH 900 0
DWIDTH 10 0
BBX 9 9 1 -1
BITMAP
5080
FE80
5280
8A80
7280
0280
FA80
8880
F980
ENDCHAR
STARTCHAR 5274
ENCODING 21108
SWIDTH 900 0
DWIDTH 10 0
BBX 9 9 1 -1
BITMAP
A880
FA80
0280
FA80
5280
7280
5280
2080
F980
ENDCHAR
STARTCHAR 5275
ENCODING 21109
SWIDTH 900 0
DWIDTH 10 0
BBX 9 9 1 -1
BITMAP
2080
5280
FA80
5280
7280
5280
7880
C880
7980
ENDCHAR
STARTCHAR 5277
ENCODING 21111
SWIDTH 990 0
DWIDTH 11 0
BBX 10 10 0 -1
BITMAP
0040
FF40
0940
7140
5F40
4940
7F40
5F40
8840
9C40
ENDCHAR
STARTCHAR 5278
ENCODING 21112
SWIDTH 990 0
DWIDTH 11 0
BBX 10 10 0 -1
BITMAP
1040
3940
7D40
7D40
3940
1940
2940
FF40
2840
0840
ENDCHAR
STARTCHAR 5279
ENCODING 21113
SWIDTH 990 0
DWIDTH 11 0
BBX 10 10 0 -1
BITMAP
7840
6D40
B540
7D40
2940
C940
7140
1140
6040
3840
ENDCHAR
STARTCHAR 527D
ENCODING 21117
SWIDTH 900 0
DWIDTH 10 0
BBX 9 9 1 -1
BITMAP
F880
5280
FA80
AA80
FA80
0280
FA80
2080
A980
ENDCHAR
STARTCHAR 527F
ENCODING 21119
SWIDTH 900 0
DWIDTH 10 0
BBX 9 9 1 -1
BITMAP
5080
AA80
FA80
AA80
FA80
2280
FA80
7080
A980
ENDCHAR
STARTCHAR 5280
ENCODING 21120
SWIDTH 990 0
DWIDTH 11 0
BBX 10 10 0 -1
BITMAP
3C00
1840
6FC0
38C0
7FC0
99C0
ABC0
9D40
A540
1900
ENDCHAR
STARTCHAR 5282
ENCODING 21122
SWIDTH 990 0
DWIDTH 11 0
BBX 10 10 0 -1
BITMAP
3F80
40C0
40C0
5BC0
5DC0
59C0
79C0
5B40
54C0
9400
ENDCHAR
STARTCHAR 5283
ENCODING 21123
SWIDTH 900 0
DWIDTH 10 0
BBX 9 9 1 -1
BITMAP
2080
FA80
2A80
FA80
FA80
AA80
FA80
0080
F980
ENDCHAR
STARTCHAR 5285
ENCODING 21125
SWIDTH 990 0
DWIDTH 11 0
BBX 10 10 0 -1
BITMAP
3C00
EA40
7F40
0140
7F40
3B40
5B40
3A40
1A40
7C40
ENDCHAR
STARTCHAR 5287
ENCODING 21127
SWIDTH 900 0
DWIDTH 10 0
BBX 9 9 1 -1
BITMAP
3880
2280
FE80
A280
BA80
D080
B880
D480
B180
ENDCHAR
STARTCHAR 5288
ENCODING 21128
SWIDTH 900 0
DWIDTH 10 0
BBX 9 9 1 -1
BITMAP
7200
4780
7500
D780
7200
0000
FF80
1080
E300
ENDCHAR
STARTCHAR 5289
ENCODING 21129
SWIDTH 900 0
DWIDTH 10 0
BBX 9 9 1 -1
BITMAP
5880
AA80
EA80
2280
5280
BA80
6280
3A80
E180
ENDCHAR
STARTCHAR 528A
ENCODING 21130
SWIDTH 990 0
DWIDTH 11 0
BBX 9 10 1 -1
BITMAP
3000
CC80
3280
FA80
FA80
0280
7A80
8880
F880
7080
ENDCHAR
STARTCHAR 528C
ENCODING 21132
SWIDTH 990 0
DWIDTH 11 0
BBX 10 10 0 -1
BITMAP
0800
0EC0
48C0
37C0
7FC0
44C0
54C0
6AC0
9740
2900
ENDCHAR
STARTCHAR 528D
ENCODING 21133
SWIDTH 900 0
DWIDTH 10 0
BBX 9 9 1 -1
BITMAP
2080
5280
FA80
0280
FA80
AA80
FA80
5080
A980
ENDCHAR
STARTCHAR 5291
ENCODING 21137
SWIDTH 900 0
DWIDTH 10 0
BBX 9 9 1 -1
BITMAP
2080
FA80
5280
AA80
4A80
7A80
4A80
7880
8980
ENDCHAR
STARTCHAR 5292
ENCODING 21138
SWIDTH 900 0
DWIDTH 10 0
BBX 9 9 1 -1
BITMAP
2000
5780
EA80
0280
FE80
AA80
FA80
5480
A580
ENDCHAR
STARTCHAR 5293
ENCODING 21139
SWIDTH 990 0
DWIDTH 11 0
BBX 10 10 0 -1
BITMAP
2000
5D40
7D40
7D40
3940
7D40
7D40
7D40
FE40
4840
ENDCHAR
STARTCHAR 5294
ENCODING 21140
SWIDTH 900 0
DWIDTH 10 0
BBX 9 9 1 -1
BITMAP
2000
5780
FA80
0680
FA80
AB80
FA80
5480
A580
ENDCHAR
STARTCHAR 5295
ENCODING 21141
SWIDTH 990 0
DWIDTH 11 0
BBX 10 10 0 -1
BITMAP
6600
7B40
AB40
9F40
6340
7F40
3F40
4240
3C40
4240
ENDCHAR
STARTCHAR 5296
ENCODING 21142
SWIDTH 990 0
DWIDTH 11 0
BBX 10 10 0 -1
BITMAP
1040
7940
3940
5540
7B40
6D40
7940
7540
3A40
FC40
ENDCHAR
STARTCHAR 5297
ENCODING 21143
SWIDTH 990 0
DWIDTH 11 0
BBX 9 10 1 -1
BITMAP
CC00
4480
CF80
CD80
7380
7D80
7D80
7C80
4480
FC00
ENDCHAR
STARTCHAR 5298
ENCODING 21144
SWIDTH 990 0
DWIDTH 11 0
BBX 10 9 0 0
BITMAP
7FC0
76C0
76C0
76C0
52C0
40C0
B3C0
9C40
9200
ENDCHAR
STARTCHAR 529A
ENCODING 21146
SWIDTH 990 0
DWIDTH 11 0
BBX 10 10 0 -1
BITMAP
3E00
7EC0
40C0
40C0
9EC0
BEC0
9EC0
9EC0
9E40
9E00
ENDCHAR
STARTCHAR 529B
ENCODING 21147
SWIDTH 900 0
DWIDTH 10 0
BBX 8 9 1 -1
BITMAP
10
10
FF
11
11
21
21
41
87
ENDCHAR
STARTCHAR 529C
ENCODING 21148
SWIDTH 990 0
DWIDTH 11 0
BBX 11 9 0 0
BITMAP
2100
FD00
2500
2500
2500
4500
4520
4520
8CC0
ENDCHAR
STARTCHAR 529F
ENCODING 21151
SWIDTH 900 0
DWIDTH 10 0
BBX 9 9 1 -1
BITMAP
0400
0400
EF80
4480
4480
4480
6880
C880
1380
ENDCHAR
STARTCHAR 52A0
ENCODING 21152
SWIDTH 900 0
DWIDTH 10 0
BBX 9 9 1 -1
BITMAP
2000
2000
FB80
2A80
2A80
2A80
4A80
4A80
9B80
ENDCHAR
STARTCHAR 52A3
ENCODING 21155
SWIDTH 900 0
DWIDTH 10 0
BBX 9 9 1 -1
BITMAP
0800
4A00
9980
0600
3800
C800
7F00
1100
6700
ENDCHAR
STARTCHAR 52A4
ENCODING 21156
SWIDTH 990 0
DWIDTH 11 0
BBX 10 10 0 -1
BITMAP
1000
6100
43C0
7D40
5140
5240
9240
9240
9240
9040
ENDCHAR
STARTCHAR 52A5
ENCODING 21157
SWIDTH 990 0
DWIDTH 11 0
BBX 10 9 0 0
BITMAP
0100
7BC0
0140
3140
5140
5240
5240
5640
8E40
ENDCHAR
STARTCHAR 52A6
ENCODING 21158
SWIDTH 990 0
DWIDTH 11 0
BBX 10 10 0 -1
BITMAP
0400
7FC0
0840
1040
2040
2180
7EC0
4A40
4A40
8C40
ENDCHAR
STARTCHAR 52A7
ENCODING 21159
SWIDTH 990 0
DWIDTH 11 0
BBX 9 11 1 -2
BITMAP
2200
4200
4F00
F480
4480
4480
E480
4880
4880
0800
4100
ENDCHAR
STARTCHAR 52A9
ENCODING 21161
SWIDTH 900 0
DWIDTH 10 0
BBX 9 9 1 -1
BITMAP
0200
7200
5780
7280
5280
7280
5A80
E480
0580
ENDCHAR
STARTCHAR 52AA
ENCODING 21162
SWIDTH 900 0
DWIDTH 10 0
BBX 9 9 1 -1
BITMAP
2000
FB80
5280
3100
CA80
0800
7F80
1080
6300
ENDCHAR
STARTCHAR 52AB
ENCODING 21163
SWIDTH 900 0
DWIDTH 10 0
BBX 9 9 1 -1
BITMAP
4200
4200
F780
4280
F280
4280
9280
F480
0580
ENDCHAR
STARTCHAR 52AC
ENCODING 21164
SWIDTH 900 0
DWIDTH 10 0
BBX 10 9 0 -1
BITMAP
4100
7D00
87C0
7540
5540
5540
7540
0A40
32C0
ENDCHAR
STARTCHAR 52AD
ENCODING 21165
SWIDTH 900 0
DWIDTH 10 0
BBX 9 9 1 -1
BITMAP
0200
F200
5780
5280
B280
0280
F280
9480
F580
ENDCHAR
STARTCHAR 52AF
ENCODING 21167
SWIDTH 990 0
DWIDTH 11 0
BBX 10 10 0 -2
BITMAP
7900
4100
4780
4240
7A40
4A40
CA40
4C40
4C40
3400
ENDCHAR
STARTCHAR 52B0
ENCODING 21168
SWIDTH 990 0
DWIDTH 11 0
BBX 9 10 1 -1
BITMAP
4000
4400
BF00
A480
A480
E880
A880
A880
D080
1100
ENDCHAR
STARTCHAR 52B1
ENCODING 21169
SWIDTH 900 0
DWIDTH 10 0
BBX 9 9 1 -1
BITMAP
0200
FA00
8780
FA80
A280
BA80
AA80
AA80
D500
ENDCHAR
STARTCHAR 52B4
ENCODING 21172
SWIDTH 900 0
DWIDTH 10 0
BBX 9 9 1 -1
BITMAP
5100
2A00
FF80
8080
1000
FF00
1100
2100
C600
ENDCHAR
STARTCHAR 52B5
ENCODING 21173
SWIDTH 900 0
DWIDTH 10 0
BBX 9 9 1 -1
BITMAP
4900
BE80
1400
FF80
5100
BE80
1200
2200
4600
ENDCHAR
STARTCHAR 52B6
ENCODING 21174
SWIDTH 990 0
DWIDTH 11 0
BBX 10 10 0 -1
BITMAP
1000
6100
7FC0
8140
8140
8240
BA40
AA40
AA40
9040
ENDCHAR
STARTCHAR 52B7
ENCODING 21175
SWIDTH 990 0
DWIDTH 11 0
BBX 9 10 1 -1
BITMAP
8000
4400
EF00
4480
4480
9480
E880
8880
8880
9100
ENDCHAR
STARTCHAR 52B8
ENCODING 21176
SWIDTH 990 0
DWIDTH 11 0
BBX 9 10 1 -2
BITMAP
0200
F200
4F80
4480
E480
4480
6480
4480
4880
E880
ENDCHAR
STARTCHAR 52B9
ENCODING 21177
SWIDTH 900 0
DWIDTH 10 0
BBX 9 9 1 -1
BITMAP
2200
2200
FF80
5280
8A80
5280
2280
5480
9580
ENDCHAR
STARTCHAR 52BA
ENCODING 21178
SWIDTH 990 0
DWIDTH 11 0
BBX 9 10 1 -1
BITMAP
0200
5200
9F80
6480
A480
7480
2480
FC80
2880
2800
ENDCHAR
STARTCHAR 52BB
ENCODING 21179
SWIDTH 990 0
DWIDTH 11 0
BBX 9 9 1 0
BITMAP
F200
8780
B280
A280
A480
A480
D480
8480
7880
ENDCHAR
STARTCHAR 52BC
ENCODING 21180
SWIDTH 900 0
DWIDTH 10 0
BBX 9 9 1 -1
BITMAP
4200
F200
4780
4280
F280
0280
F280
9480
F580
ENDCHAR
STARTCHAR 52BD
ENCODING 21181
SWIDTH 990 0
DWIDTH 11 0
BBX 9 10 1 -1
BITMAP
F800
4900
7900
9900
3100
2100
C900
FF80
1080
6180
ENDCHAR
STARTCHAR 52BE
ENCODING 21182
SWIDTH 900 0
DWIDTH 10 0
BBX 9 9 1 -1
BITMAP
4200
F200
4780
9280
6280
5280
A280
6480
9580
ENDCHAR
STARTCHAR 52C0
ENCODING 21184
SWIDTH 990 0
DWIDTH 11 0
BBX 10 10 0 -1
BITMAP
0100
2100
77C0
7240
5240
5240
6240
6240
6C40
9400
ENDCHAR
STARTCHAR 52C1
ENCODING 21185
SWIDTH 900 0
DWIDTH 10 0
BBX 9 9 1 -1
BITMAP
F200
0200
5780
A280
5280
0280
F280
4480
F580
ENDCHAR
STARTCHAR 52C3
ENCODING 21187
SWIDTH 900 0
DWIDTH 10 0
BBX 9 9 1 -1
BITMAP
2200
FA00
2780
FA80
8A80
3280
FA80
2480
6580
ENDCHAR
STARTCHAR 52C4
ENCODING 21188
SWIDTH 990 0
DWIDTH 11 0
BBX 10 10 0 -2
BITMAP
0100
7100
83C0
B140
5140
5240
7240
5240
7A40
1440
ENDCHAR
STARTCHAR 52C5
ENCODING 21189
SWIDTH 900 0
DWIDTH 10 0
BBX 9 9 1 -1
BITMAP
2200
FA00
2780
FA80
AA80
FA80
2280
7280
AD80
ENDCHAR
STARTCHAR 52C6
ENCODING 21190
SWIDTH 990 0
DWIDTH 11 0
BBX 9 10 1 -1
BITMAP
4000
6400
9F00
E480
A880
C880
8880
E880
D100
B100
ENDCHAR
STARTCHAR 52C7
ENCODING 21191
SWIDTH 900 0
DWIDTH 10 0
BBX 9 9 1 -1
BITMAP
7E00
1400
7F00
4900
7F00
4900
FF80
1080
E300
ENDCHAR
STARTCHAR 52C8
ENCODING 21192
SWIDTH 990 0
DWIDTH 11 0
BBX 9 10 1 -2
BITMAP
E200
2200
0780
F280
CA80
FC80
CC80
FC80
CC80
0880
ENDCHAR
STARTCHAR 52C9
ENCODING 21193
SWIDTH 900 0
DWIDTH 10 0
BBX 9 9 1 -1
BITMAP
7200
9200
2780
FA80
AA80
FA80
5580
5000
9F80
ENDCHAR
STARTCHAR 52CC
ENCODING 21196
SWIDTH 990 0
DWIDTH 11 0
BBX 10 10 0 -1
BITMAP
2000
7200
7F80
2240
FA40
5240
4A40
F440
5440
7880
ENDCHAR
STARTCHAR 52CD
ENCODING 21197
SWIDTH 900 0
DWIDTH 10 0
BBX 9 9 1 -1
BITMAP
2200
F200
0F80
F280
9280
F280
2280
B480
A580
ENDCHAR
STARTCHAR 52CF
ENCODING 21199
SWIDTH 990 0
DWIDTH 11 0
BBX 9 10 1 -2
BITMAP
0200
F200
0F00
2480
F480
0480
F480
9480
9880
6800
ENDCHAR
STARTCHAR 52D1
ENCODING 21201
SWIDTH 990 0
DWIDTH 11 0
BBX 10 10 0 -1
BITMAP
1000
1100
7BC0
5540
DD40
B140
B940
3540
5240
1240
ENDCHAR
STARTCHAR 52D2
ENCODING 21202
SWIDTH 900 0
DWIDTH 10 0
BBX 9 9 1 -1
BITMAP
5200
FA00
7780
2280
FA80
FA80
2280
F480
2580
ENDCHAR
STARTCHAR 52D4
ENCODING 21204
SWIDTH 990 0
DWIDTH 11 0
BBX 10 10 0 -1
BITMAP
7C80
1100
21C0
FD40
BD40
AD40
AD40
BD40
AE40
5040
ENDCHAR
STARTCHAR 52D5
ENCODING 21205
SWIDTH 900 0
DWIDTH 10 0
BBX 9 9 1 -1
BITMAP
FA00
2200
FF80
AA80
FA80
AA80
FA80
2280
F580
ENDCHAR
STARTCHAR 52D6
ENCODING 21206
SWIDTH 990 0
DWIDTH 11 0
BBX 9 10 1 -1
BITMAP
6000
A400
9F00
E480
0480
E880
E880
A880
F080
7100
ENDCHAR
STARTCHAR 52D7
ENCODING 21207
SWIDTH 900 0
DWIDTH 10 0
BBX 9 9 1 -1
BITMAP
7F00
4100
7F00
0000
7200
5780
7280
5A80
E580
ENDCHAR
STARTCHAR 52D8
ENCODING 21208
SWIDTH 900 0
DWIDTH 10 0
BBX 9 9 1 -1
BITMAP
5200
FA00
5780
7280
5280
FA80
5280
4480
7580
ENDCHAR
STARTCHAR 52D9
ENCODING 21209
SWIDTH 900 0
DWIDTH 10 0
BBX 9 9 1 -1
BITMAP
E400
2F80
5500
E200
2D80
4400
CF80
4480
D980
ENDCHAR
STARTCHAR 52DB
ENCODING 21211
SWIDTH 990 0
DWIDTH 11 0
BBX 9 10 1 -2
BITMAP
6200
9200
6F80
6280
9480
F480
F480
9480
6880
9880
ENDCHAR
STARTCHAR 52DC
ENCODING 21212
SWIDTH 990 0
DWIDTH 11 0
BBX 10 10 0 -2
BITMAP
1100
0900
47C0
2940
4A40
3240
7E40
5640
6C40
B440
ENDCHAR
STARTCHAR 52DD
ENCODING 21213
SWIDTH 900 0
DWIDTH 10 0
BBX 9 9 1 -1
BITMAP
E500
AF80
E200
AF00
F480
AF00
A500
A500
AB00
ENDCHAR
STARTCHAR 52DE
ENCODING 21214
SWIDTH 900 0
DWIDTH 10 0
BBX 9 9 1 -1
BITMAP
AA80
2200
D580
0000
FF80
8880
7F00
1100
6300
ENDCHAR
STARTCHAR 52DF
ENCODING 21215
SWIDTH 900 0
DWIDTH 10 0
BBX 9 9 1 -1
BITMAP
1400
FF80
3E00
2200
FF80
2A00
7F00
9280
2600
ENDCHAR
STARTCHAR 52E0
ENCODING 21216
SWIDTH 900 0
DWIDTH 10 0
BBX 9 9 1 -1
BITMAP
DA00
4A00
DF80
2280
5280
8A80
6280
1480
6580
ENDCHAR
STARTCHAR 52E1
ENCODING 21217
SWIDTH 990 0
DWIDTH 11 0
BBX 9 10 1 -1
BITMAP
FC00
5200
FB80
DE80
2280
7280
0280
FA80
AC80
2480
ENDCHAR
STARTCHAR 52E2
ENCODING 21218
SWIDTH 900 0
DWIDTH 10 0
BBX 9 9 1 -1
BITMAP
2400
F700
AD00
5700
E980
1000
FF00
2100
C700
ENDCHAR
STARTCHAR 52E3
ENCODING 21219
SWIDTH 900 0
DWIDTH 10 0
BBX 9 9 1 -1
BITMAP
2200
7200
2780
FA80
5280
7280
5280
7480
8D80
ENDCHAR
STARTCHAR 52E4
ENCODING 21220
SWIDTH 900 0
DWIDTH 10 0
BBX 9 9 1 -1
BITMAP
5200
FA00
7780
5280
7280
2280
7280
2480
F580
ENDCHAR
STARTCHAR 52E5
ENCODING 21221
SWIDTH 990 0
DWIDTH 11 0
BBX 9 10 1 -1
BITMAP
C000
2500
CA00
C780
2A80
2700
6F80
FF00
1080
6180
ENDCHAR
STARTCHAR 52E6
ENCODING 21222
SWIDTH 900 0
DWIDTH 10 0
BBX 9 9 1 -1
BITMAP
4A00
9200
FF80
AA80
FA80
2280
FA80
7480
A980
ENDCHAR
STARTCHAR 52E7
ENCODING 21223
SWIDTH 900 0
DWIDTH 10 0
BBX 9 9 1 -1
BITMAP
4200
7A00
A780
7280
7A80
D280
7A80
5480
7D80
ENDCHAR
STARTCHAR 52E8
ENCODING 21224
SWIDTH 990 0
DWIDTH 11 0
BBX 10 10 0 -2
BITMAP
3100
5100
6FC0
E940
3240
6640
3A40
5A40
3C40
5440
ENDCHAR
STARTCHAR 52E9
ENCODING 21225
SWIDTH 990 0
DWIDTH 11 0
BBX 10 10 0 -1
BITMAP
0400
FF00
4DC0
0140
3D40
7D40
7D40
3D40
4640
7E40
ENDCHAR
STARTCHAR 52EA
ENCODING 21226
SWIDTH 990 0
DWIDTH 11 0
BBX 10 10 0 -1
BITMAP
3000
5D00
03C0
7940
3940
7D40
8540
BD40
9640
0640
ENDCHAR
STARTCHAR 52EC
ENCODING 21228
SWIDTH 990 0
DWIDTH 11 0
BBX 10 10 0 -2
BITMAP
6100
7100
2F80
7A40
5240
4A40
5240
2A40
3440
8C00
ENDCHAR
STARTCHAR 52F0
ENCODING 21232
SWIDTH 990 0
DWIDTH 11 0
BBX 11 10 0 -1
BITMAP
10C0
7DC0
25C0
25C0
45C0
4880
7DA0
6D20
B540
B4C0
ENDCHAR
STARTCHAR 52F1
ENCODING 21233
SWIDTH 990 0
DWIDTH 11 0
BBX 10 11 0 -2
BITMAP
2800
7D00
7FC0
7D40
5540
3940
7E40
9E40
A240
0040
0400
ENDCHAR
STARTCHAR 52F2
ENCODING 21234
SWIDTH 900 0
DWIDTH 10 0
BBX 9 9 1 -1
BITMAP
3A00
E200
7F80
AA80
FA80
2480
F580
0000
9480
ENDCHAR
STARTCHAR 52F3
ENCODING 21235
SWIDTH 900 0
DWIDTH 10 0
BBX 9 9 1 -1
BITMAP
F200
4200
F780
D280
F280
4280
F280
0480
B580
ENDCHAR
STARTCHAR 52F4
ENCODING 21236
SWIDTH 990 0
DWIDTH 11 0
BBX 10 10 0 -1
BITMAP
0080
3D00
65C0
7D40
5D40
5B40
6F40
9D40
8240
8C40
ENDCHAR
STARTCHAR 52F5
ENCODING 21237
SWIDTH 900 0
DWIDTH 10 0
BBX 10 9 0 -1
BITMAP
7D00
5500
7FC0
5540
5D40
4940
7F40
AA40
A2C0
ENDCHAR
STARTCHAR 52F6
ENCODING 21238
SWIDTH 990 0
DWIDTH 11 0
BBX 11 10 0 -1
BITMAP
4000
9DE0
4A80
7E80
7D80
7C80
4740
0400
3BC0
30C0
ENDCHAR
STARTCHAR 52F7
ENCODING 21239
SWIDTH 990 0
DWIDTH 11 0
BBX 10 10 0 -2
BITMAP
1000
6D00
EFC0
6D40
3940
7D40
7F40
5640
4E40
7240
ENDCHAR
STARTCHAR 52F8
ENCODING 21240
SWIDTH 900 0
DWIDTH 10 0
BBX 10 9 0 -1
BITMAP
2900
7D00
2BC0
6D40
6D40
5140
F940
5240
7AC0
ENDCHAR
STARTCHAR 52F9
ENCODING 21241
SWIDTH 900 0
DWIDTH 10 0
BBX 9 9 1 -1
BITMAP
2000
2000
3F80
4080
8080
0080
0080
0080
0300
ENDCHAR
STARTCHAR 52FA
ENCODING 21242
SWIDTH 900 0
DWIDTH 10 0
BBX 9 9 1 -1
BITMAP
2000
2000
3F80
4080
9080
0880
0880
0080
0300
ENDCHAR
STARTCHAR 52FE
ENCODING 21246
SWIDTH 900 0
DWIDTH 10 0
BBX 9 9 1 -1
BITMAP
2000
2000
7F80
4080
9080
1080
2480
7C80
0300
ENDCHAR
STARTCHAR 52FF
ENCODING 21247
SWIDTH 900 0
DWIDTH 10 0
BBX 9 9 1 -1
BITMAP
2000
2000
7F80
5480
9480
2480
2880
4880
1300
ENDCHAR
STARTCHAR 5300
ENCODING 21248
SWIDTH 990 0
DWIDTH 11 0
BBX 8 10 1 -1
BITMAP
40
BF
81
01
39
01
01
03
1D
21
ENDCHAR
STARTCHAR 5301
ENCODING 21249
SWIDTH 900 0
DWIDTH 10 0
BBX 9 9 1 -1
BITMAP
2000
2000
7F00
8900
2900
1900
1500
2380
C600
ENDCHAR
STARTCHAR 5302
ENCODING 21250
SWIDTH 900 0
DWIDTH 10 0
BBX 9 9 1 -1
BITMAP
2000
3F80
4080
A080
3C80
2080
2280
3C80
0300
ENDCHAR
STARTCHAR 5303
ENCODING 21251
SWIDTH 990 0
DWIDTH 11 0
BBX 8 10 1 -1
BITMAP
40
BF
91
19
29
65
21
01
39
01
ENDCHAR
STARTCHAR 5305
ENCODING 21253
SWIDTH 900 0
DWIDTH 10 0
BBX 9 9 1 -1
BITMAP
2000
7F80
8080
3C80
0480
7D00
4000
4080
7F80
ENDCHAR
STARTCHAR 5306
ENCODING 21254
SWIDTH 900 0
DWIDTH 10 0
BBX 9 9 1 -1
BITMAP
2000
2000
7F80
9480
6480
3480
4880
9480
2180
ENDCHAR
STARTCHAR 5308
ENCODING 21256
SWIDTH 900 0
DWIDTH 10 0
BBX 9 9 1 -1
BITMAP
4000
7F80
8080
2880
9280
AA80
8280
FE80
0100
ENDCHAR
STARTCHAR 530A
ENCODING 21258
SWIDTH 990 0
DWIDTH 11 0
BBX 8 10 1 -1
BITMAP
40
BF
83
35
11
3F
15
35
53
01
ENDCHAR
STARTCHAR 530B
ENCODING 21259
SWIDTH 990 0
DWIDTH 11 0
BBX 8 10 1 -1
BITMAP
40
BF
81
3F
49
7F
09
4B
15
01
ENDCHAR
STARTCHAR 530C
ENCODING 21260
SWIDTH 990 0
DWIDTH 11 0
BBX 8 10 1 -1
BITMAP
40
BF
99
25
43
3F
3D
43
3D
01
ENDCHAR
STARTCHAR 530D
ENCODING 21261
SWIDTH 900 0
DWIDTH 10 0
BBX 9 9 1 -1
BITMAP
4000
7F80
9280
7C80
1080
7C80
5480
7C80
5500
ENDCHAR
STARTCHAR 530F
ENCODING 21263
SWIDTH 900 0
DWIDTH 10 0
BBX 9 9 1 -1
BITMAP
2400
FC00
5780
E880
0680
F680
4500
7480
2780
ENDCHAR
STARTCHAR 5310
ENCODING 21264
SWIDTH 900 0
DWIDTH 10 0
BBX 9 9 1 -1
BITMAP
4000
7F80
8080
7C80
2880
7C80
5480
6C80
7D00
ENDCHAR
STARTCHAR 5311
ENCODING 21265
SWIDTH 990 0
DWIDTH 11 0
BBX 8 10 1 -1
BITMAP
40
BF
A7
53
7D
79
57
33
53
13
ENDCHAR
STARTCHAR 5313
ENCODING 21267
SWIDTH 990 0
DWIDTH 11 0
BBX 8 10 1 -1
BITMAP
40
BF
85
ED
ED
63
0F
65
95
6B
ENDCHAR
STARTCHAR 5315
ENCODING 21269
SWIDTH 900 0
DWIDTH 10 0
BBX 9 9 1 -1
BITMAP
2000
2000
2100
2600
3800
E000
2000
2080
3F80
ENDCHAR
STARTCHAR 5316
ENCODING 21270
SWIDTH 900 0
DWIDTH 10 0
BBX 9 9 1 -1
BITMAP
2800
2800
4900
4E00
C800
4800
4800
4880
4780
ENDCHAR
STARTCHAR 5317
ENCODING 21271
SWIDTH 900 0
DWIDTH 10 0
BBX 9 9 1 -1
BITMAP
2400
2400
E700
2400
2400
2400
6400
A480
2780
ENDCHAR
STARTCHAR 5318
ENCODING 21272
SWIDTH 990 0
DWIDTH 11 0
BBX 9 10 1 -1
BITMAP
0200
9480
E480
9280
8400
8F80
D580
D280
1580
0F80
ENDCHAR
STARTCHAR 5319
ENCODING 21273
SWIDTH 900 0
DWIDTH 10 0
BBX 9 9 1 -1
BITMAP
F400
9400
F780
0400
F400
2480
B780
E000
9F80
ENDCHAR
STARTCHAR 531A
ENCODING 21274
SWIDTH 900 0
DWIDTH 10 0
BBX 9 9 1 -1
BITMAP
FF80
8000
8000
8000
8000
8000
8000
8000
FF80
ENDCHAR
STARTCHAR 531B
ENCODING 21275
SWIDTH 990 0
DWIDTH 11 0
BBX 8 8 1 0
BITMAP
FE
90
98
A8
C8
94
A4
FF
ENDCHAR
STARTCHAR 531C
ENCODING 21276
SWIDTH 990 0
DWIDTH 11 0
BBX 9 8 1 0
BITMAP
FE00
8000
BF00
E900
A280
A080
9F00
FF00
ENDCHAR
STARTCHAR 531D
ENCODING 21277
SWIDTH 900 0
DWIDTH 10 0
BBX 9 9 1 -1
BITMAP
FF80
8000
8400
BF80
A480
A480
A580
8400
FF80
ENDCHAR
STARTCHAR 531E
ENCODING 21278
SWIDTH 990 0
DWIDTH 11 0
BBX 7 8 2 0
BITMAP
FC
00
FC
10
10
FE
00
FC
ENDCHAR
STARTCHAR 531F
ENCODING 21279
SWIDTH 990 0
DWIDTH 11 0
BBX 8 8 1 0
BITMAP
FE
FF
80
BC
A4
A4
C5
FF
ENDCHAR
STARTCHAR 5320
ENCODING 21280
SWIDTH 900 0
DWIDTH 10 0
BBX 9 9 1 -1
BITMAP
FF00
8000
9E00
9000
9F00
A400
A400
8000
FF80
ENDCHAR
STARTCHAR 5321
ENCODING 21281
SWIDTH 900 0
DWIDTH 10 0
BBX 9 9 1 -1
BITMAP
FF00
8000
BE00
8800
BE00
8800
BE00
8000
FF80
ENDCHAR
STARTCHAR 5323
ENCODING 21283
SWIDTH 900 0
DWIDTH 10 0
BBX 9 9 1 -1
BITMAP
FF80
8000
BE00
AA00
BE00
AA00
BE00
8800
FF80
ENDCHAR
STARTCHAR 5325
ENCODING 21285
SWIDTH 990 0
DWIDTH 11 0
BBX 8 8 1 0
BITMAP
FE
90
A2
BC
80
FF
A4
FE
ENDCHAR
STARTCHAR 5327
ENCODING 21287
SWIDTH 990 0
DWIDTH 11 0
BBX 9 8 1 0
BITMAP
FF00
FF80
AA00
FD00
D400
9400
A200
FF00
ENDCHAR
STARTCHAR 5328
ENCODING 21288
SWIDTH 990 0
DWIDTH 11 0
BBX 9 8 1 0
BITMAP
FF00
D200
AF80
F200
B200
D200
C200
FF00
ENDCHAR
STARTCHAR 5329
ENCODING 21289
SWIDTH 990 0
DWIDTH 11 0
BBX 8 8 1 0
BITMAP
FF
BE
80
9C
BE
88
FF
FF
ENDCHAR
STARTCHAR 532A
ENCODING 21290
SWIDTH 900 0
DWIDTH 10 0
BBX 9 9 1 -1
BITMAP
FF80
8000
8A00
BB80
8A00
BB80
8A00
9200
FF80
ENDCHAR
STARTCHAR 532B
ENCODING 21291
SWIDTH 990 0
DWIDTH 11 0
BBX 8 8 1 0
BITMAP
FE
FE
AA
92
9C
A2
BE
FF
ENDCHAR
STARTCHAR 532C
ENCODING 21292
SWIDTH 990 0
DWIDTH 11 0
BBX 9 8 1 0
BITMAP
FE00
8400
9B00
8C00
BA80
AD00
AA80
FF80
ENDCHAR
STARTCHAR 532D
ENCODING 21293
SWIDTH 990 0
DWIDTH 11 0
BBX 9 8 1 0
BITMAP
FF00
B400
BE00
F500
F900
A900
B980
FF00
ENDCHAR
STARTCHAR 532F
ENCODING 21295
SWIDTH 900 0
DWIDTH 10 0
BBX 9 9 1 -1
BITMAP
FF80
A200
8780
AD00
8780
9500
A780
8000
FF80
ENDCHAR
STARTCHAR 5330
ENCODING 21296
SWIDTH 990 0
DWIDTH 11 0
BBX 8 8 1 0
BITMAP
FF
FE
A4
BE
BE
9C
FF
FF
ENDCHAR
STARTCHAR 5331
ENCODING 21297
SWIDTH 900 0
DWIDTH 10 0
BBX 9 9 1 -1
BITMAP
FF80
8400
9F00
BF80
9100
9100
9F00
A080
FF80
ENDCHAR
STARTCHAR 5332
ENCODING 21298
SWIDTH 990 0
DWIDTH 11 0
BBX 8 8 1 0
BITMAP
FF
BE
A2
BE
9C
B6
D6
FF
ENDCHAR
STARTCHAR 5333
ENCODING 21299
SWIDTH 900 0
DWIDTH 10 0
BBX 9 9 1 -1
BITMAP
FF80
8400
9B00
AE80
9500
9F00
8A00
9500
FF80
ENDCHAR
STARTCHAR 5335
ENCODING 21301
SWIDTH 990 0
DWIDTH 11 0
BBX 8 8 1 0
BITMAP
FF
BE
BE
BE
A4
BA
BE
FF
ENDCHAR
STARTCHAR 5338
ENCODING 21304
SWIDTH 900 0
DWIDTH 10 0
BBX 9 9 1 -1
BITMAP
FF80
4000
4000
4000
4000
4000
4000
4000
3F80
ENDCHAR
STARTCHAR 5339
ENCODING 21305
SWIDTH 900 0
DWIDTH 10 0
BBX 9 8 1 -1
BITMAP
FF80
9400
9400
A400
C700
8000
8000
FF80
ENDCHAR
STARTCHAR 533A
ENCODING 21306
SWIDTH 900 0
DWIDTH 10 0
BBX 9 9 1 -1
BITMAP
FF00
8200
A200
9400
8800
9400
A200
8000
FF80
ENDCHAR
STARTCHAR 533B
ENCODING 21307
SWIDTH 900 0
DWIDTH 10 0
BBX 9 9 1 -1
BITMAP
FF80
9000
9F00
A400
BF80
8400
8A00
B180
FF80
ENDCHAR
STARTCHAR 533C
ENCODING 21308
SWIDTH 990 0
DWIDTH 11 0
BBX 9 10 1 -1
BITMAP
FF80
8400
8A00
9100
BF80
8000
9F00
9100
8E00
7F80
ENDCHAR
STARTCHAR 533D
ENCODING 21309
SWIDTH 990 0
DWIDTH 11 0
BBX 8 8 1 0
BITMAP
FE
BE
BE
9C
80
BE
B8
FF
ENDCHAR
STARTCHAR 533E
ENCODING 21310
SWIDTH 990 0
DWIDTH 11 0
BBX 9 10 1 -1
BITMAP
FF80
8200
BC00
DF80
FF00
DF00
DF80
D280
5100
7F80
ENDCHAR
STARTCHAR 533F
ENCODING 21311
SWIDTH 900 0
DWIDTH 10 0
BBX 9 9 1 -1
BITMAP
FF80
8A00
BF80
8400
BF80
8800
9F00
A900
FF80
ENDCHAR
STARTCHAR 5340
ENCODING 21312
SWIDTH 900 0
DWIDTH 10 0
BBX 9 9 1 -1
BITMAP
FF80
8E00
8A00
8E00
8000
BB80
AA80
BB80
FF80
ENDCHAR
STARTCHAR 5341
ENCODING 21313
SWIDTH 900 0
DWIDTH 10 0
BBX 9 9 1 -1
BITMAP
0800
0800
0900
FF80
0800
0800
0800
0800
0800
ENDCHAR
STARTCHAR 5342
ENCODING 21314
SWIDTH 990 0
DWIDTH 11 0
BBX 10 10 1 -1
BITMAP
FC00
0200
2200
2200
FF00
2100
2140
20C0
20C0
0040
ENDCHAR
STARTCHAR 5343
ENCODING 21315
SWIDTH 900 0
DWIDTH 10 0
BBX 9 9 1 -1
BITMAP
0600
7800
0800
0800
FF80
0800
0800
0800
0800
ENDCHAR
STARTCHAR 5345
ENCODING 21317
SWIDTH 900 0
DWIDTH 10 0
BBX 9 9 1 -1
BITMAP
2A00
2A00
2A00
FF80
2A00
2A00
4A00
4A00
8200
ENDCHAR
STARTCHAR 5346
ENCODING 21318
SWIDTH 900 0
DWIDTH 10 0
BBX 9 9 1 -1
BITMAP
1000
FC00
2480
C780
0800
0800
FF80
0800
0800
ENDCHAR
STARTCHAR 5347
ENCODING 21319
SWIDTH 900 0
DWIDTH 10 0
BBX 9 9 1 -1
BITMAP
1400
6400
2400
2400
FF80
2400
2400
4400
8400
ENDCHAR
STARTCHAR 5348
ENCODING 21320
SWIDTH 900 0
DWIDTH 10 0
BBX 9 9 1 -1
BITMAP
2000
2000
7F00
8800
0800
FF80
0800
0800
0800
ENDCHAR
STARTCHAR 5349
ENCODING 21321
SWIDTH 900 0
DWIDTH 10 0
BBX 9 9 1 -1
BITMAP
0800
0800
FF80
0800
2A00
2200
FF80
4200
8200
ENDCHAR
STARTCHAR 534A
ENCODING 21322
SWIDTH 900 0
DWIDTH 10 0
BBX 9 9 1 -1
BITMAP
0800
4900
2A00
7F00
0800
0800
FF80
0800
0800
ENDCHAR
STARTCHAR 534B
ENCODING 21323
SWIDTH 990 0
DWIDTH 11 0
BBX 11 10 0 -1
BITMAP
0400
0400
7FC0
0400
0400
0000
FFE0
1200
1200
0E00
ENDCHAR
STARTCHAR 534C
ENCODING 21324
SWIDTH 990 0
DWIDTH 11 0
BBX 10 10 1 -1
BITMAP
5500
5500
5500
5500
FFC0
5500
5500
5500
5500
5500
ENDCHAR
STARTCHAR 534D
ENCODING 21325
SWIDTH 900 0
DWIDTH 10 0
BBX 9 9 1 -1
BITMAP
F880
0880
0880
0880
FF80
8800
8800
8800
8F80
ENDCHAR
STARTCHAR 5351
ENCODING 21329
SWIDTH 900 0
DWIDTH 10 0
BBX 9 9 1 -1
BITMAP
1000
7F00
4900
7F00
4900
7F00
2400
FF80
0400
ENDCHAR
STARTCHAR 5352
ENCODING 21330
SWIDTH 900 0
DWIDTH 10 0
BBX 9 9 1 -1
BITMAP
0800
FF80
2200
2200
5500
0800
FF80
0800
0800
ENDCHAR
STARTCHAR 5353
ENCODING 21331
SWIDTH 900 0
DWIDTH 10 0
BBX 9 9 1 -1
BITMAP
0800
0F00
0800
7F00
4100
7F00
0800
FF80
0800
ENDCHAR
STARTCHAR 5354
ENCODING 21332
SWIDTH 900 0
DWIDTH 10 0
BBX 9 9 1 -1
BITMAP
4400
4F00
E500
4500
4A00
5F80
4A80
4A80
5580
ENDCHAR
STARTCHAR 5357
ENCODING 21335
SWIDTH 900 0
DWIDTH 10 0
BBX 9 9 1 -1
BITMAP
0800
FF80
0800
FF80
9480
BE80
8880
BE80
8980
ENDCHAR
STARTCHAR 5358
ENCODING 21336
SWIDTH 900 0
DWIDTH 10 0
BBX 9 9 1 -1
BITMAP
2A00
7F00
4900
7F00
4900
7F00
0800
FF80
0800
ENDCHAR
STARTCHAR 5359
ENCODING 21337
SWIDTH 990 0
DWIDTH 11 0
BBX 11 10 0 -1
BITMAP
2000
7E80
3880
2880
39E0
FE80
6880
6A80
4480
3E00
ENDCHAR
STARTCHAR 535A
ENCODING 21338
SWIDTH 900 0
DWIDTH 10 0
BBX 10 9 0 -1
BITMAP
4280
5FC0
EA80
4F80
4A80
5FC0
4100
4900
4300
ENDCHAR
STARTCHAR 535B
ENCODING 21339
SWIDTH 990 0
DWIDTH 11 0
BBX 11 10 0 -1
BITMAP
0600
60C0
6780
30E0
4080
4E80
9720
0400
7FE0
0400
ENDCHAR
STARTCHAR 535C
ENCODING 21340
SWIDTH 900 0
DWIDTH 10 0
BBX 4 9 4 -1
BITMAP
80
80
80
C0
A0
90
80
80
80
ENDCHAR
STARTCHAR 535E
ENCODING 21342
SWIDTH 900 0
DWIDTH 10 0
BBX 9 9 1 -1
BITMAP
0800
0800
FF80
0800
0C00
0A00
0800
0800
0800
ENDCHAR
STARTCHAR 5360
ENCODING 21344
SWIDTH 900 0
DWIDTH 10 0
BBX 7 9 2 -1
BITMAP
10
10
1E
10
10
FE
82
82
FE
ENDCHAR
STARTCHAR 5361
ENCODING 21345
SWIDTH 990 0
DWIDTH 11 0
BBX 9 8 1 0
BITMAP
1000
1F00
1000
1000
FF80
1600
1100
1000
ENDCHAR
STARTCHAR 5363
ENCODING 21347
SWIDTH 990 0
DWIDTH 11 0
BBX 7 9 2 0
BITMAP
1E
20
DE
82
F2
92
E2
82
FE
ENDCHAR
STARTCHAR 5365
ENCODING 21349
SWIDTH 990 0
DWIDTH 11 0
BBX 7 10 2 -1
BITMAP
10
1E
10
EE
82
AA
D2
AA
C2
7E
ENDCHAR
STARTCHAR 5366
ENCODING 21350
SWIDTH 900 0
DWIDTH 10 0
BBX 9 9 1 -1
BITMAP
2200
FA00
2200
FB00
0280
2200
FA00
2200
FA00
ENDCHAR
STARTCHAR 5369
ENCODING 21353
SWIDTH 900 0
DWIDTH 10 0
BBX 5 9 3 -1
BITMAP
F8
88
88
88
88
88
98
80
80
ENDCHAR
STARTCHAR 536C
ENCODING 21356
SWIDTH 990 0
DWIDTH 11 0
BBX 8 9 1 -1
BITMAP
27
D1
91
91
91
91
91
B0
D1
ENDCHAR
STARTCHAR 536D
ENCODING 21357
SWIDTH 990 0
DWIDTH 11 0
BBX 8 10 1 -1
BITMAP
07
09
69
49
49
49
59
68
89
08
ENDCHAR
STARTCHAR 536E
ENCODING 21358
SWIDTH 900 0
DWIDTH 10 0
BBX 9 9 1 -1
BITMAP
7F00
4000
7F80
4000
5E00
5200
5600
9080
9F80
ENDCHAR
STARTCHAR 536F
ENCODING 21359
SWIDTH 900 0
DWIDTH 10 0
BBX 9 9 1 -1
BITMAP
3000
C780
9480
9480
9480
F480
9580
2400
4400
ENDCHAR
STARTCHAR 5370
ENCODING 21360
SWIDTH 900 0
DWIDTH 10 0
BBX 9 9 1 -1
BITMAP
3000
C780
8480
F480
8480
8480
F580
8400
0400
ENDCHAR
STARTCHAR 5371
ENCODING 21361
SWIDTH 900 0
DWIDTH 10 0
BBX 9 9 1 -1
BITMAP
3C00
4400
FF00
4000
5E00
5200
5600
9080
9F80
ENDCHAR
STARTCHAR 5372
ENCODING 21362
SWIDTH 990 0
DWIDTH 11 0
BBX 10 10 0 -1
BITMAP
7880
2640
2640
4640
8240
7A40
4A40
4A40
4A00
3800
ENDCHAR
STARTCHAR 5373
ENCODING 21363
SWIDTH 900 0
DWIDTH 10 0
BBX 9 9 1 -1
BITMAP
F780
9480
F480
9480
F480
8480
A580
D400
0400
ENDCHAR
STARTCHAR 5374
ENCODING 21364
SWIDTH 900 0
DWIDTH 10 0
BBX 9 9 1 -1
BITMAP
2000
2780
F480
2480
F480
4480
5480
F580
0400
ENDCHAR
STARTCHAR 5375
ENCODING 21365
SWIDTH 900 0
DWIDTH 10 0
BBX 9 9 1 -1
BITMAP
1000
E780
9480
D480
B680
9480
F480
9580
2400
ENDCHAR
STARTCHAR 5377
ENCODING 21367
SWIDTH 900 0
DWIDTH 10 0
BBX 9 9 1 -1
BITMAP
4900
BE80
1400
FF80
2200
7D00
A480
2100
3F00
ENDCHAR
STARTCHAR 5378
ENCODING 21368
SWIDTH 900 0
DWIDTH 10 0
BBX 9 9 1 -1
BITMAP
8000
F780
2480
F480
2480
B480
A480
B580
E400
ENDCHAR
STARTCHAR 5379
ENCODING 21369
SWIDTH 990 0
DWIDTH 11 0
BBX 9 10 1 -1
BITMAP
2000
2380
7A80
D680
D680
D680
D680
D600
DA80
A000
ENDCHAR
STARTCHAR 537B
ENCODING 21371
SWIDTH 900 0
DWIDTH 10 0
BBX 9 9 1 -1
BITMAP
A000
9780
0480
6480
9480
0480
F580
9400
F400
ENDCHAR
STARTCHAR 537E
ENCODING 21374
SWIDTH 990 0
DWIDTH 11 0
BBX 10 10 0 -1
BITMAP
2480
EB40
4540
7F40
0140
7D40
3940
0500
0940
0800
ENDCHAR
STARTCHAR 537F
ENCODING 21375
SWIDTH 900 0
DWIDTH 10 0
BBX 9 9 1 -1
BITMAP
4000
9D80
D580
DD80
D180
D580
5D80
4500
8100
ENDCHAR
STARTCHAR 5382
ENCODING 21378
SWIDTH 900 0
DWIDTH 10 0
BBX 9 9 1 -1
BITMAP
7F80
4000
4000
4000
4000
4000
4000
8000
8000
ENDCHAR
STARTCHAR 5383
ENCODING 21379
SWIDTH 990 0
DWIDTH 11 0
BBX 11 10 0 -1
BITMAP
1000
2E00
4200
BFE0
2000
2000
2000
2000
4000
4000
ENDCHAR
STARTCHAR 5384
ENCODING 21380
SWIDTH 900 0
DWIDTH 10 0
BBX 9 9 1 -1
BITMAP
7F80
4000
5F00
5100
5100
5300
5000
9080
9F80
ENDCHAR
STARTCHAR 5387
ENCODING 21383
SWIDTH 990 0
DWIDTH 11 0
BBX 10 10 0 -1
BITMAP
1FC0
6000
4000
4300
5C00
4400
5F80
4440
4480
8380
ENDCHAR
STARTCHAR 5388
ENCODING 21384
SWIDTH 990 0
DWIDTH 11 0
BBX 10 10 0 -1
BITMAP
1FC0
6000
4000
5FC0
4200
4200
5F80
4200
4200
8200
ENDCHAR
STARTCHAR 538E
ENCODING 21390
SWIDTH 990 0
DWIDTH 11 0
BBX 10 10 0 -1
BITMAP
1FC0
6000
4000
4100
4E00
4A00
4D80
4900
50C0
8C00
ENDCHAR
STARTCHAR 5393
ENCODING 21395
SWIDTH 990 0
DWIDTH 11 0
BBX 10 10 0 -1
BITMAP
1FC0
6200
4200
4F80
4200
5F80
4200
4F80
4200
9D80
ENDCHAR
STARTCHAR 5394
ENCODING 21396
SWIDTH 990 0
DWIDTH 11 0
BBX 10 10 0 -1
BITMAP
1FC0
6000
3FC0
4400
4880
4B00
4600
4F80
4200
9D80
ENDCHAR
STARTCHAR 5396
ENCODING 21398
SWIDTH 900 0
DWIDTH 10 0
BBX 9 9 1 -1
BITMAP
FF80
9480
9300
B880
9300
9080
9300
A800
AF80
ENDCHAR
STARTCHAR 5398
ENCODING 21400
SWIDTH 900 0
DWIDTH 10 0
BBX 9 9 1 -1
BITMAP
7F80
5500
5F00
5500
5F00
4400
5F00
8400
BF80
ENDCHAR
STARTCHAR 5399
ENCODING 21401
SWIDTH 990 0
DWIDTH 11 0
BBX 10 10 0 -1
BITMAP
1FC0
6000
4F80
4700
4A80
4F80
4A80
4700
4F80
8000
ENDCHAR
STARTCHAR 539A
ENCODING 21402
SWIDTH 900 0
DWIDTH 10 0
BBX 9 9 1 -1
BITMAP
7F80
5100
5F00
5100
5F00
4200
5F80
8400
8C00
ENDCHAR
STARTCHAR 539D
ENCODING 21405
SWIDTH 990 0
DWIDTH 11 0
BBX 10 10 0 -1
BITMAP
1FC0
6000
5FC0
4900
5680
4700
5880
4F80
5080
8F00
ENDCHAR
STARTCHAR 539F
ENCODING 21407
SWIDTH 900 0
DWIDTH 10 0
BBX 9 9 1 -1
BITMAP
7F80
4400
5F00
5100
5100
5F00
4400
A480
AC80
ENDCHAR
STARTCHAR 53A0
ENCODING 21408
SWIDTH 900 0
DWIDTH 10 0
BBX 9 9 1 -1
BITMAP
FF80
8000
B880
AA80
BA80
AA80
BA80
8080
A980
ENDCHAR
STARTCHAR 53A1
ENCODING 21409
SWIDTH 990 0
DWIDTH 11 0
BBX 10 10 0 -1
BITMAP
1FC0
6200
4F80
4880
4F80
4700
5E80
4B00
52C0
8400
ENDCHAR
STARTCHAR 53A4
ENCODING 21412
SWIDTH 990 0
DWIDTH 11 0
BBX 10 10 0 -1
BITMAP
1FC0
6000
4C40
4880
5FC0
4880
5D80
6AC0
4A80
8880
ENDCHAR
STARTCHAR 53A5
ENCODING 21413
SWIDTH 900 0
DWIDTH 10 0
BBX 9 9 1 -1
BITMAP
FF80
8000
AA00
BF80
9280
B400
BD00
9100
A280
ENDCHAR
STARTCHAR 53A6
ENCODING 21414
SWIDTH 900 0
DWIDTH 10 0
BBX 9 9 1 -1
BITMAP
FF80
9F00
8400
9F00
9F00
8600
9A00
8400
BB80
ENDCHAR
STARTCHAR 53A8
ENCODING 21416
SWIDTH 900 0
DWIDTH 10 0
BBX 10 9 0 -1
BITMAP
7FC0
4000
5C80
43C0
5C80
5580
5C80
5480
B980
ENDCHAR
STARTCHAR 53A9
ENCODING 21417
SWIDTH 900 0
DWIDTH 10 0
BBX 9 9 1 -1
BITMAP
FF80
8000
BB80
AB00
BB80
A100
AB00
BB00
AD80
ENDCHAR
STARTCHAR 53AA
ENCODING 21418
SWIDTH 990 0
DWIDTH 11 0
BBX 10 10 0 -1
BITMAP
1FC0
6080
4F80
4700
4F80
4A80
4700
4780
4700
8D80
ENDCHAR
STARTCHAR 53AB
ENCODING 21419
SWIDTH 990 0
DWIDTH 11 0
BBX 10 10 0 -1
BITMAP
1FC0
6900
5E00
5F80
5280
5D80
4D80
5500
5580
AE40
ENDCHAR
STARTCHAR 53AD
ENCODING 21421
SWIDTH 900 0
DWIDTH 10 0
BBX 9 9 1 -1
BITMAP
FF80
8000
B980
A900
BB80
A900
B900
AA80
AA80
ENDCHAR
STARTCHAR 53AE
ENCODING 21422
SWIDTH 900 0
DWIDTH 10 0
BBX 9 9 1 -1
BITMAP
FF80
8000
AB80
FE00
AB80
BA80
AA80
FE80
A880
ENDCHAR
STARTCHAR 53AF
ENCODING 21423
SWIDTH 990 0
DWIDTH 11 0
BBX 10 10 0 -1
BITMAP
1FC0
6000
5FC0
4880
5180
7340
4000
4040
5000
8F00
ENDCHAR
STARTCHAR 53B0
ENCODING 21424
SWIDTH 900 0
DWIDTH 10 0
BBX 9 9 1 -1
BITMAP
FF80
9000
B500
9380
BE80
A680
B500
B500
A680
ENDCHAR
STARTCHAR 53B2
ENCODING 21426
SWIDTH 990 0
DWIDTH 11 0
BBX 10 10 0 -1
BITMAP
1FC0
6400
4F80
4B80
4F80
4780
4F80
5240
55C0
80C0
ENDCHAR
STARTCHAR 53B3
ENCODING 21427
SWIDTH 900 0
DWIDTH 10 0
BBX 9 9 1 -1
BITMAP
4900
FF80
8000
BA00
9380
FE80
A900
F980
8A80
ENDCHAR
STARTCHAR 53B4
ENCODING 21428
SWIDTH 990 0
DWIDTH 11 0
BBX 10 10 0 -1
BITMAP
1FC0
6C00
5D40
4080
4D80
5E80
4640
4FC0
4F80
8200
ENDCHAR
STARTCHAR 53B5
ENCODING 21429
SWIDTH 990 0
DWIDTH 11 0
BBX 11 10 0 -1
BITMAP
1FC0
6780
4780
4200
4840
FFE0
7BC0
AD40
9CC0
15A0
ENDCHAR
STARTCHAR 53B6
ENCODING 21430
SWIDTH 900 0
DWIDTH 10 0
BBX 9 9 1 -1
BITMAP
0800
0800
0800
1000
1000
2200
2100
4E80
F080
ENDCHAR
STARTCHAR 53B7
ENCODING 21431
SWIDTH 990 0
DWIDTH 11 0
BBX 10 9 0 0
BITMAP
0800
FFC0
1000
1000
2200
2400
4400
4880
1E40
ENDCHAR
STARTCHAR 53B8
ENCODING 21432
SWIDTH 990 0
DWIDTH 11 0
BBX 11 10 0 -1
BITMAP
2000
2100
2100
4100
4100
4A40
4A40
4A40
5AA0
E720
ENDCHAR
STARTCHAR 53BA
ENCODING 21434
SWIDTH 990 0
DWIDTH 11 0
BBX 10 9 0 0
BITMAP
0800
7FC0
1200
2100
2080
C840
1100
1080
3E00
ENDCHAR
STARTCHAR 53BB
ENCODING 21435
SWIDTH 900 0
DWIDTH 10 0
BBX 9 9 1 -1
BITMAP
0800
0800
7F00
0800
FF80
0800
1000
2200
7D00
ENDCHAR
STARTCHAR 53BD
ENCODING 21437
SWIDTH 990 0
DWIDTH 11 0
BBX 10 10 1 -1
BITMAP
1000
1000
2200
2100
7C00
4200
8200
9480
9480
E740
ENDCHAR
STARTCHAR 53C0
ENCODING 21440
SWIDTH 990 0
DWIDTH 11 0
BBX 7 10 2 -1
BITMAP
10
7C
7C
92
FE
92
6C
40
44
FA
ENDCHAR
STARTCHAR 53C2
ENCODING 21442
SWIDTH 900 0
DWIDTH 10 0
BBX 9 9 1 -1
BITMAP
1000
2200
7F00
0800
FF80
2200
D980
0600
3800
ENDCHAR
STARTCHAR 53C3
ENCODING 21443
SWIDTH 900 0
DWIDTH 10 0
BBX 9 9 1 -1
BITMAP
1400
3E00
4100
EB80
1400
2600
D980
0600
7800
ENDCHAR
STARTCHAR 53C5
ENCODING 21445
SWIDTH 990 0
DWIDTH 11 0
BBX 10 9 1 -1
BITMAP
1000
2100
5E00
8280
F7C0
0800
1400
6300
D1C0
ENDCHAR
STARTCHAR 53C8
ENCODING 21448
SWIDTH 900 0
DWIDTH 10 0
BBX 9 8 1 -1
BITMAP
7E00
2200
2200
1400
1400
0800
3600
C180
ENDCHAR
STARTCHAR 53C9
ENCODING 21449
SWIDTH 900 0
DWIDTH 10 0
BBX 9 9 1 -1
BITMAP
7F00
1100
4900
2A00
2200
1400
0800
3600
C180
ENDCHAR
STARTCHAR 53CA
ENCODING 21450
SWIDTH 900 0
DWIDTH 10 0
BBX 9 9 1 -1
BITMAP
FC00
2400
2400
2700
2100
5100
4A00
4C00
B380
ENDCHAR
STARTCHAR 53CB
ENCODING 21451
SWIDTH 900 0
DWIDTH 10 0
BBX 9 9 1 -1
BITMAP
1000
1000
FF80
1000
1F00
2900
2A00
4400
9B80
ENDCHAR
STARTCHAR 53CC
ENCODING 21452
SWIDTH 900 0
DWIDTH 10 0
BBX 9 9 1 -1
BITMAP
FF80
1080
1480
5500
2500
5200
5200
8500
0880
ENDCHAR
STARTCHAR 53CD
ENCODING 21453
SWIDTH 900 0
DWIDTH 10 0
BBX 9 9 1 -1
BITMAP
7F80
4000
7F00
5100
5100
4A00
4400
8A00
B180
ENDCHAR
STARTCHAR 53CE
ENCODING 21454
SWIDTH 900 0
DWIDTH 10 0
BBX 9 9 1 -1
BITMAP
2000
2F80
A080
A500
A500
B200
E200
A500
2880
ENDCHAR
STARTCHAR 53CF
ENCODING 21455
SWIDTH 990 0
DWIDTH 11 0
BBX 9 10 1 -1
BITMAP
0800
7F00
0900
0900
FE80
7F00
2200
1400
1C00
E380
ENDCHAR
STARTCHAR 53D2
ENCODING 21458
SWIDTH 990 0
DWIDTH 11 0
BBX 10 10 0 -1
BITMAP
3F00
1100
0A00
0600
1980
FBC0
3180
1080
3180
4E40
ENDCHAR
STARTCHAR 53D3
ENCODING 21459
SWIDTH 990 0
DWIDTH 11 0
BBX 8 10 1 -1
BITMAP
08
7F
7F
89
7F
08
76
14
08
77
ENDCHAR
STARTCHAR 53D4
ENCODING 21460
SWIDTH 900 0
DWIDTH 10 0
BBX 9 9 1 -1
BITMAP
2000
3780
2280
FA80
2280
A900
A900
2280
6480
ENDCHAR
STARTCHAR 53D5
ENCODING 21461
SWIDTH 990 0
DWIDTH 11 0
BBX 10 10 0 -1
BITMAP
7380
2A80
3180
1080
2B40
DFC0
3180
1080
3180
4E40
ENDCHAR
STARTCHAR 53D6
ENCODING 21462
SWIDTH 900 0
DWIDTH 10 0
BBX 9 9 1 -1
BITMAP
F800
5780
7280
5280
7280
5100
F100
1280
1480
ENDCHAR
STARTCHAR 53D7
ENCODING 21463
SWIDTH 900 0
DWIDTH 10 0
BBX 9 9 1 -1
BITMAP
0700
7900
2A00
FF80
8080
3E00
2200
1C00
E380
ENDCHAR
STARTCHAR 53D9
ENCODING 21465
SWIDTH 900 0
DWIDTH 10 0
BBX 9 9 1 -1
BITMAP
2000
5780
FA80
2280
FA80
2280
A900
A900
6280
ENDCHAR
STARTCHAR 53DA
ENCODING 21466
SWIDTH 990 0
DWIDTH 11 0
BBX 9 10 1 -1
BITMAP
6700
9100
9700
E000
8F00
F500
8500
8200
E500
8880
ENDCHAR
STARTCHAR 53DB
ENCODING 21467
SWIDTH 900 0
DWIDTH 10 0
BBX 9 9 1 -1
BITMAP
5780
E400
4780
F680
4680
F580
4500
4900
8A80
ENDCHAR
STARTCHAR 53DD
ENCODING 21469
SWIDTH 990 0
DWIDTH 11 0
BBX 10 10 1 -1
BITMAP
0300
4480
6480
4480
4400
F780
4680
A900
9980
F240
ENDCHAR
STARTCHAR 53DE
ENCODING 21470
SWIDTH 990 0
DWIDTH 11 0
BBX 11 10 0 -1
BITMAP
3D80
C540
7D40
8180
9980
8080
9C80
9580
B640
8220
ENDCHAR
STARTCHAR 53DF
ENCODING 21471
SWIDTH 900 0
DWIDTH 10 0
BBX 9 9 1 -1
BITMAP
2800
4B00
6B00
7F00
0800
7F00
2200
1C00
E380
ENDCHAR
STARTCHAR 53E0
ENCODING 21472
SWIDTH 990 0
DWIDTH 11 0
BBX 11 10 0 -1
BITMAP
3F80
3E00
3980
4B40
39C0
86C0
3F00
3F00
3F00
7FE0
ENDCHAR
STARTCHAR 53E1
ENCODING 21473
SWIDTH 900 0
DWIDTH 10 0
BBX 9 9 1 -1
BITMAP
3800
2380
FA80
AA80
7280
D900
7100
5280
7480
ENDCHAR
STARTCHAR 53E2
ENCODING 21474
SWIDTH 900 0
DWIDTH 10 0
BBX 9 9 1 -1
BITMAP
5500
FF80
2200
FF80
5000
7700
5500
F200
1580
ENDCHAR
STARTCHAR 53E3
ENCODING 21475
SWIDTH 900 0
DWIDTH 10 0
BBX 8 8 1 -1
BITMAP
FF
81
81
81
81
81
81
FF
ENDCHAR
ENDFONT
